<svg width="96" height="96" viewBox="0 0 96 96" fill="none" xmlns="http://www.w3.org/2000/svg">
<path d="M47.5929 0C21.3016 0 0 21.3016 0 47.5929C0 73.8841 21.3016 95.1857 47.5929 95.1857C73.8841 95.1857 95.1857 73.8841 95.1857 47.5929C95.1857 21.3016 73.8841 0 47.5929 0ZM47.5929 18.423C56.9195 18.423 64.4807 25.9842 64.4807 35.3108C64.4807 44.6375 56.9195 52.1986 47.5929 52.1986C38.2662 52.1986 30.7051 44.6375 30.7051 35.3108C30.7051 25.9842 38.2662 18.423 47.5929 18.423ZM47.5929 84.439C36.3279 84.439 26.2337 79.3342 19.4785 71.3509C23.0864 64.5574 30.1486 59.8749 38.3814 59.8749C38.8419 59.8749 39.3025 59.9517 39.7439 60.086C42.2387 60.892 44.8486 61.4102 47.5929 61.4102C50.3371 61.4102 52.9663 60.892 55.4419 60.086C55.8832 59.9517 56.3438 59.8749 56.8044 59.8749C65.0372 59.8749 72.0994 64.5574 75.7072 71.3509C68.9521 79.3342 58.8578 84.439 47.5929 84.439Z" fill="#5157E0"/>
</svg>
