<svg width="32" height="32" viewBox="0 0 32 32" fill="none" xmlns="http://www.w3.org/2000/svg">
<path fill-rule="evenodd" clip-rule="evenodd" d="M10.6665 5.33333C10.6665 4.59733 11.2172 4 11.8972 4H20.1025C20.7825 4 21.3332 4.59733 21.3332 5.33333C21.3332 6.06933 20.7825 6.66667 20.1025 6.66667H11.8972C11.2172 6.66667 10.6665 6.06933 10.6665 5.33333ZM13.0372 28H18.9625C23.1238 28 25.2052 28 26.6998 27.0373C27.3429 26.6239 27.8983 26.0879 28.3345 25.46C29.3332 24.02 29.3332 22.0133 29.3332 18C29.3332 13.9867 29.3332 11.9813 28.3332 10.54C27.8975 9.91215 27.3425 9.37619 26.6998 8.96267C25.2052 8 23.1238 8 18.9625 8H13.0372C8.87584 8 6.7945 8 5.29984 8.96267C4.6572 9.37622 4.10222 9.91218 3.6665 10.54C2.6665 11.98 2.6665 13.9867 2.6665 17.9973V18C2.6665 22.0133 2.6665 24.0187 3.66517 25.46C4.09717 26.084 4.65184 26.62 5.29984 27.0373C6.7945 28 8.87584 28 13.0372 28ZM10.4438 18C10.4438 15.04 12.9318 12.6427 15.9998 12.6427C19.0678 12.6427 21.5558 15.0413 21.5558 18C21.5558 20.9587 19.0665 23.3573 15.9998 23.3573C12.9318 23.3573 10.4438 20.9573 10.4438 18ZM12.6665 18C12.6665 16.224 14.1598 14.7867 15.9998 14.7867C17.8398 14.7867 19.3332 16.2253 19.3332 18C19.3332 19.7747 17.8398 21.2133 15.9998 21.2133C14.1598 21.2133 12.6665 19.7747 12.6665 18ZM24.1478 12.6427C23.5345 12.6427 23.0372 13.1227 23.0372 13.7147C23.0372 14.3053 23.5345 14.7853 24.1478 14.7853H24.8892C25.5025 14.7853 25.9998 14.3053 25.9998 13.7147C25.9998 13.1227 25.5025 12.6427 24.8892 12.6427H24.1478Z" fill="#242760" fill-opacity="0.81"/>
</svg>
