<svg width="115" height="65" viewBox="0 0 115 65" fill="none" xmlns="http://www.w3.org/2000/svg">
<path d="M0.19043 12.4883C0.19043 5.86086 5.56301 0.488281 12.1904 0.488281H102.565C109.192 0.488281 114.565 5.86086 114.565 12.4883V52.4883C114.565 59.1157 109.192 64.4883 102.565 64.4883H12.1904C5.56301 64.4883 0.19043 59.1157 0.19043 52.4883V12.4883Z" fill="white"/>
<path opacity="0.18" d="M98.7155 50.4282C98.4704 52.0665 98.0348 53.757 96.7144 55.0601C95.5323 56.238 93.7649 56.9712 92.0089 57.6106C80.5105 61.7647 67.5057 62.8227 54.8004 62.8853C45.0127 62.9374 34.98 62.4023 26.0182 59.3879C17.3627 56.4778 9.79851 50.8747 7.66583 43.8591C7.58869 43.6124 7.5229 43.3639 7.45937 43.112C6.90578 40.8413 6.9262 38.4923 7.1372 36.1781C7.54332 31.7269 8.76394 27.1037 12.478 23.6584C15.7564 20.6128 20.5618 18.8459 24.9315 16.7419C28.7045 14.9246 32.2302 12.798 36.1802 11.2187C41.3985 9.13385 47.2316 8.11227 53.0942 8.00629C63.2403 7.83255 71.7575 11.3073 81.477 12.5739C91.6572 13.896 91.9136 19.6103 92.8982 26.4157C93.3883 29.7758 95.4189 32.8718 96.8006 36.0843C98.7832 40.7037 99.4365 45.5971 98.7155 50.4282Z" fill="#5157E0"/>
<path opacity="0.37" d="M98.2798 50.5413C98.0325 52.1779 97.5991 53.8684 96.2787 55.1732C95.0966 56.3494 93.3292 57.0843 91.5732 57.7219C80.0748 61.876 67.0814 62.9341 54.3647 62.9967C44.577 63.0505 34.5466 62.5137 25.5848 59.4993C16.9316 56.5892 9.3651 50.9896 7.23242 43.9688H98.4182C98.6526 46.1578 98.6063 48.3592 98.2798 50.5413Z" fill="#5157E0"/>
<path opacity="0.74" d="M21.417 51.787C20.7364 52.3534 20.0557 52.9597 20.0557 53.6252C20.0421 54.8413 22.2497 55.7378 24.43 56.1861C27.3159 56.7785 30.4628 56.921 33.562 57.0374C45.5866 57.4943 57.6613 57.675 69.7245 57.8557C74.6546 57.9304 79.6438 57.9999 84.4559 57.4474C86.2483 57.2407 88.2063 56.8619 88.9482 55.995C89.8738 54.9108 88.449 53.5626 89.4155 52.4907C89.926 51.9243 91.0423 51.5195 91.3395 50.9131C91.6911 50.1903 90.6815 49.4381 89.3906 49.1045C88.0996 48.7709 86.5954 48.757 85.1502 48.7414C74.6849 48.6638 64.2181 48.6058 53.7498 48.5676L32.7225 48.4738C30.5444 48.4651 25.7777 47.9526 23.9172 48.6319C22.3949 49.1809 22.4539 50.9183 21.417 51.787Z" fill="#5157E0"/>
<path d="M25.1333 47.5547H35.3611V54.3045C35.3611 54.5406 35.3004 54.7744 35.1824 54.9926C35.0643 55.2108 34.8914 55.409 34.6733 55.576C34.4553 55.743 34.1964 55.8754 33.9115 55.9658C33.6266 56.0561 33.3213 56.1027 33.0129 56.1027H27.4815C27.1731 56.1027 26.8678 56.0561 26.5829 55.9658C26.298 55.8754 26.0391 55.743 25.8211 55.576C25.603 55.409 25.4301 55.2108 25.312 54.9926C25.194 54.7744 25.1333 54.5406 25.1333 54.3045V47.5547Z" fill="#090909"/>
<path d="M75.1675 47.5547H85.3975V54.3045C85.3975 54.5406 85.3368 54.7744 85.2188 54.9926C85.1008 55.2108 84.9278 55.409 84.7098 55.576C84.4917 55.743 84.2329 55.8754 83.948 55.9658C83.6631 56.0561 83.3577 56.1027 83.0493 56.1027H77.5157C77.2073 56.1027 76.902 56.0561 76.6171 55.9658C76.3322 55.8754 76.0733 55.743 75.8553 55.576C75.6372 55.409 75.4642 55.2108 75.3462 54.9926C75.2282 54.7744 75.1675 54.5406 75.1675 54.3045V47.5547Z" fill="#090909"/>
<path d="M26.5536 32.1127H31.4066V28.9854H26.5536C26.0121 28.9854 25.4927 29.1501 25.1098 29.4433C24.7268 29.7366 24.5117 30.1343 24.5117 30.549C24.5117 30.9637 24.7268 31.3614 25.1098 31.6547C25.4927 31.9479 26.0121 32.1127 26.5536 32.1127Z" fill="#5157E0"/>
<path d="M83.7959 32.1127H78.9429V28.9854H83.7959C84.3374 28.9854 84.8568 29.1501 85.2397 29.4433C85.6227 29.7366 85.8378 30.1343 85.8378 30.549C85.8378 30.9637 85.6227 31.3614 85.2397 31.6547C84.8568 31.9479 84.3374 32.1127 83.7959 32.1127Z" fill="#5157E0"/>
<path d="M26.5536 32.1127H31.4066V28.9854H26.5536C26.0121 28.9854 25.4927 29.1501 25.1098 29.4433C24.7268 29.7366 24.5117 30.1343 24.5117 30.549C24.5117 30.9637 24.7268 31.3614 25.1098 31.6547C25.4927 31.9479 26.0121 32.1127 26.5536 32.1127Z" fill="url(#paint0_linear_589_235)"/>
<path d="M83.7959 32.1127H78.9429V28.9854H83.7959C84.3374 28.9854 84.8568 29.1501 85.2397 29.4433C85.6227 29.7366 85.8378 30.1343 85.8378 30.549C85.8378 30.9637 85.6227 31.3614 85.2397 31.6547C84.8568 31.9479 84.3374 32.1127 83.7959 32.1127Z" fill="url(#paint1_linear_589_235)"/>
<path d="M62.158 20.3868H47.7239L48.3705 16.6167H61.5114L62.158 20.3868Z" fill="#5157E0"/>
<path d="M62.158 20.3868H47.7239L48.3705 16.6167H61.5114L62.158 20.3868Z" fill="url(#paint2_linear_589_235)"/>
<path d="M26.7307 35.2817C25.6793 37.374 25.1409 39.5968 25.1426 41.8387L38.4605 46.9414L70.7116 46.99L85.4067 41.8387C85.4073 39.5969 84.8689 37.3742 83.8186 35.2817H26.7307Z" fill="#5157E0"/>
<path d="M26.7307 35.2817C25.6793 37.374 25.1409 39.5968 25.1426 41.8387L38.4605 46.9414L70.7116 46.99L85.4067 41.8387C85.4073 39.5969 84.8689 37.3742 83.8186 35.2817H26.7307Z" fill="url(#paint3_linear_589_235)"/>
<path d="M67.6283 20.3867H42.9822C40.7252 20.3866 38.5242 20.9245 36.6845 21.9257C34.8449 22.927 33.4578 24.3419 32.7158 25.9742L30.9189 29.9233H79.6984L77.8992 25.9742C77.1573 24.3412 75.7696 22.9257 73.929 21.9244C72.0883 20.9231 69.8861 20.3856 67.6283 20.3867Z" fill="#5157E0"/>
<path d="M77.3409 29.9237H32.541L34.3561 25.8773C34.9299 24.6054 36.0077 23.5022 37.4393 22.7218C38.8709 21.9413 40.5849 21.5224 42.3423 21.5234H67.8732C69.7158 21.5234 71.5079 21.9851 72.9757 22.838C74.4435 23.691 75.5065 24.8884 76.0023 26.2474L77.3409 29.9237Z" fill="url(#paint4_linear_589_235)"/>
<path d="M26.7307 35.2818C45.465 37.0889 64.4197 37.1093 83.1606 35.3426L83.8004 35.2818C82.879 33.4488 81.5766 31.7421 79.9434 30.2277L79.6099 29.9185H30.9189L30.5832 30.2277C28.9522 31.7427 27.6513 33.4493 26.7307 35.2818Z" fill="#5157E0"/>
<path d="M26.7307 35.2818C45.465 37.0889 64.4197 37.1093 83.1606 35.3426L83.8004 35.2818C82.879 33.4488 81.5766 31.7421 79.9434 30.2277L79.6099 29.9185H30.9189L30.5832 30.2277C28.9522 31.7427 27.6513 33.4493 26.7307 35.2818Z" fill="url(#paint5_linear_589_235)"/>
<path d="M85.8036 45.3741L85.3975 41.8438H84.7486L78.6977 43.1885C74.2656 44.1751 69.6732 44.6758 65.0576 44.6757H44.8244C40.2088 44.6758 35.6164 44.1751 31.1843 43.1885L25.1334 41.8438L24.7273 45.3741C24.63 46.2221 24.7642 47.0764 25.1212 47.8825C25.4783 48.6887 26.0504 49.4292 26.8013 50.0569C27.5521 50.6847 28.4652 51.1859 29.4827 51.5289C30.5001 51.8719 31.5995 52.0491 32.7112 52.0492H77.8197C78.9313 52.0491 80.0308 51.8719 81.0482 51.5289C82.0656 51.1859 82.9788 50.6847 83.7296 50.0569C84.4805 49.4292 85.0526 48.6887 85.4096 47.8825C85.7667 47.0764 85.9008 46.2221 85.8036 45.3741Z" fill="#5157E0"/>
<path d="M85.8036 45.3741L85.3975 41.8438H84.7486L78.6977 43.1885C74.2656 44.1751 69.6732 44.6758 65.0576 44.6757H44.8244C40.2088 44.6758 35.6164 44.1751 31.1843 43.1885L25.1334 41.8438L24.7273 45.3741C24.63 46.2221 24.7642 47.0764 25.1212 47.8825C25.4783 48.6887 26.0504 49.4292 26.8013 50.0569C27.5521 50.6847 28.4652 51.1859 29.4827 51.5289C30.5001 51.8719 31.5995 52.0491 32.7112 52.0492H77.8197C78.9313 52.0491 80.0308 51.8719 81.0482 51.5289C82.0656 51.1859 82.9788 50.6847 83.7296 50.0569C84.4805 49.4292 85.0526 48.6887 85.4096 47.8825C85.7667 47.0764 85.9008 46.2221 85.8036 45.3741Z" fill="url(#paint6_linear_589_235)"/>
<path d="M55.2655 37.1685H43.1931L45.6003 42.4779H55.2655H64.9283L67.3378 37.1685H55.2655Z" fill="white"/>
<path d="M55.2654 37.5889H44.0779L46.3081 42.0574H55.2654H64.2227L66.4529 37.5889H55.2654Z" fill="#5157E0"/>
<path d="M55.2654 37.5889H44.0779L46.3081 42.0574H55.2654H64.2227L66.4529 37.5889H55.2654Z" fill="url(#paint7_linear_589_235)"/>
<path d="M44.0779 38.0996H66.3621V38.659H44.0779V38.0996Z" fill="white"/>
<path d="M44.7996 39.5435H65.7407V40.1029H44.7996V39.5435Z" fill="white"/>
<path d="M45.3101 40.9873H64.9466V41.5467H45.3101V40.9873Z" fill="white"/>
<path d="M72.9031 50.6627H37.6367C37.6367 48.9284 40.686 47.5225 44.4431 47.5225H66.0853C69.847 47.5225 72.8918 48.9267 72.8918 50.6627H72.9031Z" fill="#090909"/>
<path d="M68.4496 36.215L77.341 29.71H32.5388L41.9998 36.2045C50.8087 36.6038 59.6401 36.6073 68.4496 36.215Z" fill="#5157E0"/>
<path d="M68.4496 36.215L77.341 29.71H32.5388L41.9998 36.2045C50.8087 36.6038 59.6401 36.6073 68.4496 36.215Z" fill="url(#paint8_linear_589_235)"/>
<path opacity="0.2" d="M30.0771 30.0226H26.0772C25.943 30.0226 25.8144 29.9814 25.7195 29.908C25.6246 29.8345 25.5713 29.735 25.5713 29.6312C25.5713 29.5274 25.6246 29.4278 25.7195 29.3544C25.8144 29.281 25.943 29.2397 26.0772 29.2397H30.0771C30.2113 29.2397 30.34 29.281 30.4349 29.3544C30.5298 29.4278 30.5831 29.5274 30.5831 29.6312C30.5831 29.735 30.5298 29.8345 30.4349 29.908C30.34 29.9814 30.2113 30.0226 30.0771 30.0226Z" fill="white"/>
<path opacity="0.2" d="M84.3879 30.0226H80.388C80.2538 30.0226 80.1252 29.9814 80.0303 29.908C79.9354 29.8345 79.8821 29.735 79.8821 29.6312C79.8821 29.5274 79.9354 29.4278 80.0303 29.3544C80.1252 29.281 80.2538 29.2397 80.388 29.2397H84.3879C84.4544 29.2397 84.5202 29.2499 84.5816 29.2695C84.6429 29.2892 84.6987 29.318 84.7457 29.3544C84.7927 29.3907 84.8299 29.4339 84.8554 29.4814C84.8808 29.5289 84.8939 29.5798 84.8939 29.6312C84.8939 29.6826 84.8808 29.7335 84.8554 29.781C84.8299 29.8285 84.7927 29.8716 84.7457 29.908C84.6987 29.9443 84.6429 29.9731 84.5816 29.9928C84.5202 30.0125 84.4544 30.0226 84.3879 30.0226Z" fill="white"/>
<path d="M41.5052 37.0699C41.5052 37.0699 29.8594 36.3941 28.5956 36.768C27.3319 37.1419 26.5537 40.4541 26.5537 40.4541L44.0236 42.2568L41.5052 37.0699Z" fill="white"/>
<path d="M69.0552 37.0699C69.0552 37.0699 80.7033 36.3941 81.9648 36.768C83.2262 37.1419 84.0067 40.4541 84.0067 40.4541L66.5369 42.2568L69.0552 37.0699Z" fill="white"/>
<path d="M50.4761 29.7099H38.1814C38.2104 29.6741 38.243 29.64 38.279 29.6081C38.6185 29.3121 38.9782 29.0302 39.3566 28.7638C39.6894 28.5003 40.0619 28.2687 40.4661 28.074C41.3305 27.6843 42.3061 27.6405 43.3044 27.5474L43.4496 27.5351H43.5517L43.799 27.5088C44.4287 27.441 45.0659 27.4239 45.7002 27.4579L45.9271 27.4702C46.459 27.5059 46.9863 27.5746 47.5039 27.6756C48.1814 27.7849 48.8191 28.0091 49.3712 28.332C49.9134 28.6831 50.1947 29.1605 50.4602 29.6204C50.4713 29.6335 50.4784 29.6483 50.4812 29.6638C50.4839 29.6793 50.4822 29.695 50.4761 29.7099Z" fill="#5157E0"/>
<path d="M50.4761 29.7099H38.1814C38.2104 29.6741 38.243 29.64 38.279 29.6081C38.6185 29.3121 38.9782 29.0302 39.3566 28.7638C39.6894 28.5003 40.0619 28.2687 40.4661 28.074C41.3305 27.6843 42.3061 27.6405 43.3044 27.5474L43.4496 27.5351H43.5517L43.799 27.5088C44.4287 27.441 45.0659 27.4239 45.7002 27.4579L45.9271 27.4702C46.459 27.5059 46.9863 27.5746 47.5039 27.6756C48.1814 27.7849 48.8191 28.0091 49.3712 28.332C49.9134 28.6831 50.1947 29.1605 50.4602 29.6204C50.4713 29.6335 50.4784 29.6483 50.4812 29.6638C50.4839 29.6793 50.4822 29.695 50.4761 29.7099Z" fill="url(#paint9_linear_589_235)"/>
<path d="M43.352 28.248C43.4646 28.3829 43.6335 28.4839 43.8307 28.5341C44.2964 28.6486 44.7875 28.688 45.2737 28.6499C45.4374 28.6556 45.6002 28.6277 45.7456 28.5692C45.8188 28.5212 45.8772 28.4611 45.9164 28.3934C45.9557 28.3257 45.9748 28.252 45.9724 28.1778C46.0129 27.797 45.9351 27.4142 45.7456 27.0614C45.7211 27.0029 45.6754 26.9512 45.614 26.9122C45.5501 26.8829 45.479 26.8644 45.4052 26.8578C44.9515 26.7928 43.9419 26.6823 43.572 26.9631C43.3043 27.172 43.1818 28.004 43.352 28.248Z" fill="#F7AD7E"/>
<path d="M43.9827 28.2146C44.2027 28.3129 44.4524 28.3647 44.7064 28.3647C44.9605 28.3647 45.2101 28.3129 45.4302 28.2146C45.5294 28.1728 45.6137 28.1124 45.6752 28.0391C45.7448 27.9242 45.7677 27.7957 45.741 27.6705C45.7477 27.5421 45.6909 27.4166 45.5822 27.3194C45.4807 27.2577 45.3604 27.2172 45.2328 27.2018C44.8419 27.1311 44.4383 27.1127 44.0394 27.1474C43.8602 27.1522 43.6871 27.1987 43.5425 27.2808C43.497 27.3256 43.4654 27.3778 43.45 27.4335C43.4347 27.4892 43.4361 27.5468 43.4541 27.602C43.4771 27.7283 43.5366 27.8489 43.6281 27.955C43.7196 28.061 43.8408 28.1498 43.9827 28.2146Z" fill="url(#paint10_linear_589_235)"/>
<path d="M46.7347 26.6626C46.5616 26.9808 46.2851 27.2591 45.9321 27.4703C45.5791 27.6816 45.1616 27.8187 44.72 27.8685C44.0394 27.9089 43.2929 27.4911 42.9957 26.968C42.6985 26.445 42.6554 24.4352 42.6554 24.4352C42.646 24.3 42.6861 24.1656 42.7711 24.0473C42.8641 23.9016 43.0365 23.4627 43.2725 23.3346C44.3588 23.1446 45.4885 23.1615 46.5645 23.3838C46.7914 23.5172 46.9049 23.9402 46.9548 24.0192C46.9792 24.0664 46.9952 24.116 47.0024 24.1666C47.0932 24.6511 47.0523 26.0342 46.7347 26.6626Z" fill="#F7AD7E"/>
<path d="M42.6236 24.9722C42.5517 24.9401 42.468 24.9275 42.3858 24.9364C42.3036 24.9453 42.2276 24.9752 42.1699 25.0214C42.1269 25.0787 42.1101 25.1454 42.1222 25.211C42.122 25.2763 42.1296 25.3415 42.1449 25.4058C42.2062 25.5827 42.3351 25.7411 42.5147 25.8604C42.5596 25.8943 42.6108 25.9227 42.6667 25.9447C42.7261 25.9669 42.794 25.9713 42.8573 25.957C42.9021 25.9412 42.9409 25.9168 42.9699 25.886C42.9989 25.8553 43.0172 25.8192 43.0229 25.7814C43.0618 25.6204 43.0405 25.4542 42.9617 25.3022C42.8996 25.1662 42.7807 25.05 42.6236 24.9722Z" fill="#F7AD7E"/>
<path d="M47.1364 24.9426C47.2082 24.9106 47.2917 24.8978 47.3738 24.9064C47.4559 24.915 47.532 24.9444 47.5902 24.99C47.6336 25.0472 47.6512 25.1139 47.6401 25.1796C47.6396 25.245 47.6313 25.3102 47.6152 25.3744C47.5539 25.5513 47.425 25.7098 47.2453 25.8291C47.2017 25.8641 47.1502 25.8926 47.0933 25.9133C47.0343 25.9362 46.9663 25.9412 46.9028 25.9274C46.8562 25.9106 46.8163 25.8845 46.7872 25.8518C46.7581 25.819 46.7408 25.7809 46.7371 25.7413C46.698 25.5802 46.72 25.4137 46.8007 25.2621C46.864 25.1299 46.982 25.0175 47.1364 24.9426Z" fill="#F7AD7E"/>
<path d="M47.0343 25.0234C47.0274 24.9908 47.0184 24.9586 47.0071 24.9268C46.944 24.7542 46.8597 24.5867 46.7553 24.4266C46.5897 24.151 46.4263 23.8789 46.2629 23.6033C46.2357 23.5612 46.2108 23.5173 46.1858 23.4752C46.1609 23.4331 46.1858 23.4752 46.1858 23.4875C46.1591 23.5071 46.1263 23.521 46.0905 23.5279C45.868 23.5848 45.6406 23.6293 45.4099 23.6613C45.1066 23.6897 44.7991 23.6755 44.5024 23.6191C44.2505 23.57 43.9919 23.4243 43.7241 23.4313H43.6856C43.556 23.4305 43.4298 23.4632 43.327 23.5243C43.2242 23.5853 43.1508 23.6713 43.1184 23.7683C43.0642 24.216 42.9219 24.6546 42.6964 25.069C42.4082 24.9374 42.3765 24.6758 42.3742 24.4494C42.3719 24.223 42.3742 23.9807 42.3742 23.7473C42.3635 23.6337 42.3828 23.5196 42.4309 23.412C42.4629 23.3537 42.5133 23.3026 42.5776 23.2633C42.6418 23.224 42.7178 23.1979 42.7985 23.1873C42.9369 23.1698 43.098 23.2014 43.2159 23.1505C43.2596 23.1249 43.2953 23.092 43.3204 23.0544C43.3455 23.0167 43.3594 22.9752 43.3611 22.9328C43.3868 22.764 43.4786 22.6054 43.6243 22.4782C43.9556 22.2167 44.584 22.1991 45.0809 22.3027C45.5778 22.4062 46.0088 22.6204 46.4989 22.7468C46.8279 22.8328 47.209 22.8907 47.42 23.075C47.5196 23.1714 47.5846 23.2865 47.6084 23.4085C47.6772 23.6937 47.6613 23.9873 47.5619 24.2671C47.4624 24.5469 47.282 24.8055 47.0343 25.0234Z" fill="#E29F0B"/>
<path d="M47.141 24.802C47.1095 24.8511 47.0637 24.8938 47.0071 24.9267C46.944 24.7541 46.8597 24.5865 46.7553 24.4264L46.1858 23.475C46.298 23.4295 46.4191 23.3987 46.5443 23.3838C46.7127 23.3622 46.8853 23.3924 47.0253 23.468C47.1203 23.5314 47.1877 23.616 47.2181 23.7102C47.2673 23.8593 47.2909 24.0128 47.2884 24.1666C47.3211 24.385 47.2698 24.606 47.141 24.802Z" fill="url(#paint11_linear_589_235)"/>
<path d="M46.8641 23.3384C46.6465 23.4009 46.4434 23.4904 46.2629 23.6034C46.2357 23.5613 46.2107 23.5174 46.1858 23.4753C46.1608 23.4331 46.1858 23.4753 46.1858 23.4876C46.1591 23.5072 46.1262 23.5211 46.0905 23.5279C45.868 23.5848 45.6405 23.6294 45.4098 23.6613C45.1065 23.6898 44.7991 23.6755 44.5023 23.6192C44.2505 23.5701 43.9918 23.4244 43.7241 23.4314H43.6855C43.6855 23.4033 43.715 23.3735 43.7287 23.3419C43.858 23.0593 43.9442 22.8153 44.4229 22.7275C44.7048 22.6807 44.9983 22.699 45.2669 22.7802C45.5122 22.8744 45.7701 22.9474 46.036 22.9978C46.2014 23.0012 46.3661 23.0153 46.5284 23.04C46.6145 23.0608 46.6916 23.0997 46.7509 23.1524C46.8101 23.2051 46.8494 23.2695 46.8641 23.3384Z" fill="url(#paint12_linear_589_235)"/>
<path d="M44.3502 27.7915C42.5783 27.7915 41.0876 28.6112 40.6929 29.71H41.5255C41.8999 28.9079 43.0252 28.3251 44.3502 28.3251C45.6752 28.3251 46.8028 28.9079 47.1794 29.71H48.0143C47.615 28.6112 46.1221 27.7915 44.3502 27.7915Z" fill="url(#paint13_linear_589_235)"/>
<path d="M42.1814 28.4779C42.358 28.5818 42.5153 28.7041 42.6487 28.8413C42.67 28.8559 42.6866 28.8741 42.6973 28.8945C42.7079 28.9149 42.7122 28.9369 42.71 28.9589C42.6964 29.0063 42.6238 29.0291 42.5625 29.0396C42.4243 29.0625 42.281 29.0589 42.1451 29.0291C42.1932 29.0605 42.2263 29.1036 42.2391 29.1513C42.2518 29.1991 42.2435 29.2487 42.2154 29.2924C42.1838 29.3348 42.1344 29.3677 42.0754 29.3855C42.0165 29.4034 41.9514 29.4052 41.891 29.3907C41.9154 29.4135 41.9331 29.4401 41.943 29.4687C41.9528 29.4973 41.9546 29.5272 41.9481 29.5564C41.9417 29.5855 41.9271 29.6133 41.9055 29.6377C41.8839 29.6621 41.8557 29.6826 41.8229 29.6978C41.6831 29.7532 41.5249 29.7746 41.3691 29.7593L40.6272 29.7452C40.5191 29.7514 40.4111 29.7312 40.3187 29.6873C40.2586 29.6477 40.2184 29.5931 40.2052 29.5329C40.1767 29.3497 40.2278 29.1644 40.3504 29.0063C40.4377 28.8277 40.573 28.6656 40.7475 28.5306C40.9464 28.4021 41.1941 28.3274 41.453 28.3179C41.7118 28.3084 41.9676 28.3646 42.1814 28.4779Z" fill="#F7AD7E"/>
<path d="M47.125 29.0744C46.9492 29.1243 46.793 29.2083 46.6713 29.3184C46.6299 29.3585 46.6061 29.4076 46.6032 29.4588C46.601 29.4843 46.6078 29.5097 46.623 29.5323C46.6382 29.5549 46.6612 29.5738 46.6894 29.587C46.8006 29.6361 46.9413 29.5624 47.066 29.587C47.0536 29.6122 47.0539 29.6402 47.0669 29.6652C47.0799 29.6903 47.1048 29.7106 47.1364 29.7221C47.2005 29.7438 47.2711 29.7517 47.3406 29.7449L48.146 29.7256C48.1897 29.729 48.2336 29.721 48.2708 29.7028C48.2923 29.6857 48.3064 29.6639 48.3113 29.6403C48.3162 29.6168 48.3115 29.5926 48.298 29.5712C48.2435 29.4553 48.0711 29.3956 48.0212 29.271C47.9713 29.1464 48.0212 28.9094 47.7489 28.8796C47.5606 28.8603 47.2884 29.0147 47.125 29.0744Z" fill="#F7AD7E"/>
<path d="M42.3423 21.5234L51.6013 29.8994L61.2415 29.849L52.9603 21.6729L42.3423 21.5234Z" fill="url(#paint14_linear_589_235)"/>
<path d="M49.978 18.899C49.928 18.899 49.88 18.907 49.834 18.923C49.79 18.939 49.751 18.963 49.717 18.995C49.685 19.025 49.659 19.063 49.639 19.109C49.619 19.155 49.609 19.209 49.609 19.271C49.609 19.395 49.644 19.488 49.714 19.55C49.786 19.612 49.873 19.643 49.975 19.643C50.035 19.643 50.087 19.636 50.131 19.622C50.175 19.608 50.214 19.593 50.248 19.577C50.288 19.605 50.318 19.636 50.338 19.67C50.358 19.702 50.368 19.741 50.368 19.787C50.368 19.869 50.329 19.933 50.251 19.979C50.173 20.023 50.065 20.045 49.927 20.045C49.801 20.045 49.687 20.027 49.585 19.991C49.483 19.953 49.395 19.901 49.321 19.835C49.249 19.767 49.193 19.686 49.153 19.592C49.113 19.498 49.093 19.394 49.093 19.28C49.093 19.148 49.114 19.033 49.156 18.935C49.2 18.835 49.259 18.753 49.333 18.689C49.407 18.625 49.492 18.577 49.588 18.545C49.686 18.513 49.789 18.497 49.897 18.497C50.041 18.497 50.152 18.523 50.23 18.575C50.308 18.627 50.347 18.694 50.347 18.776C50.347 18.814 50.338 18.85 50.32 18.884C50.302 18.916 50.281 18.944 50.257 18.968C50.223 18.952 50.182 18.937 50.134 18.923C50.086 18.907 50.034 18.899 49.978 18.899ZM51.2478 19.676C51.2818 19.676 51.3188 19.673 51.3588 19.667C51.4008 19.659 51.4318 19.649 51.4518 19.637V19.397L51.2358 19.415C51.1798 19.419 51.1338 19.431 51.0978 19.451C51.0618 19.471 51.0438 19.501 51.0438 19.541C51.0438 19.581 51.0588 19.614 51.0888 19.64C51.1208 19.664 51.1738 19.676 51.2478 19.676ZM51.2238 18.497C51.3318 18.497 51.4298 18.508 51.5178 18.53C51.6078 18.552 51.6838 18.586 51.7458 18.632C51.8098 18.676 51.8588 18.733 51.8928 18.803C51.9268 18.871 51.9438 18.952 51.9438 19.046V19.718C51.9438 19.77 51.9288 19.813 51.8988 19.847C51.8708 19.879 51.8368 19.907 51.7968 19.931C51.6668 20.009 51.4838 20.048 51.2478 20.048C51.1418 20.048 51.0458 20.038 50.9598 20.018C50.8758 19.998 50.8028 19.968 50.7408 19.928C50.6808 19.888 50.6338 19.837 50.5998 19.775C50.5678 19.713 50.5518 19.641 50.5518 19.559C50.5518 19.421 50.5928 19.315 50.6748 19.241C50.7568 19.167 50.8838 19.121 51.0558 19.103L51.4488 19.061V19.04C51.4488 18.982 51.4228 18.941 51.3708 18.917C51.3208 18.891 51.2478 18.878 51.1518 18.878C51.0758 18.878 51.0018 18.886 50.9298 18.902C50.8578 18.918 50.7928 18.938 50.7348 18.962C50.7088 18.944 50.6868 18.917 50.6688 18.881C50.6508 18.843 50.6418 18.804 50.6418 18.764C50.6418 18.712 50.6538 18.671 50.6778 18.641C50.7038 18.609 50.7428 18.582 50.7948 18.56C50.8528 18.538 50.9208 18.522 50.9988 18.512C51.0788 18.502 51.1538 18.497 51.2238 18.497ZM52.7656 19.997C52.7456 20.003 52.7136 20.009 52.6696 20.015C52.6276 20.021 52.5836 20.024 52.5376 20.024C52.4936 20.024 52.4536 20.021 52.4176 20.015C52.3836 20.009 52.3546 19.997 52.3306 19.979C52.3066 19.961 52.2876 19.937 52.2736 19.907C52.2616 19.875 52.2556 19.834 52.2556 19.784V18.884C52.2556 18.838 52.2636 18.799 52.2796 18.767C52.2976 18.733 52.3226 18.703 52.3546 18.677C52.3866 18.651 52.4256 18.628 52.4716 18.608C52.5196 18.586 52.5706 18.567 52.6246 18.551C52.6786 18.535 52.7346 18.523 52.7926 18.515C52.8506 18.505 52.9086 18.5 52.9666 18.5C53.0626 18.5 53.1386 18.519 53.1946 18.557C53.2506 18.593 53.2786 18.653 53.2786 18.737C53.2786 18.765 53.2746 18.793 53.2666 18.821C53.2586 18.847 53.2486 18.871 53.2366 18.893C53.1946 18.893 53.1516 18.895 53.1076 18.899C53.0636 18.903 53.0206 18.909 52.9786 18.917C52.9366 18.925 52.8966 18.934 52.8586 18.944C52.8226 18.952 52.7916 18.962 52.7656 18.974V19.997ZM54.1287 18.497C54.2487 18.497 54.3597 18.513 54.4617 18.545C54.5657 18.575 54.6547 18.622 54.7287 18.686C54.8027 18.75 54.8607 18.831 54.9027 18.929C54.9447 19.025 54.9657 19.14 54.9657 19.274C54.9657 19.402 54.9477 19.514 54.9117 19.61C54.8757 19.706 54.8247 19.787 54.7587 19.853C54.6927 19.917 54.6127 19.965 54.5187 19.997C54.4267 20.029 54.3237 20.045 54.2097 20.045C54.1237 20.045 54.0437 20.032 53.9697 20.006V20.504C53.9497 20.51 53.9177 20.516 53.8737 20.522C53.8297 20.53 53.7847 20.534 53.7387 20.534C53.6947 20.534 53.6547 20.531 53.6187 20.525C53.5847 20.519 53.5557 20.507 53.5317 20.489C53.5077 20.471 53.4897 20.446 53.4777 20.414C53.4657 20.384 53.4597 20.344 53.4597 20.294V18.854C53.4597 18.8 53.4707 18.756 53.4927 18.722C53.5167 18.688 53.5487 18.657 53.5887 18.629C53.6507 18.589 53.7277 18.557 53.8197 18.533C53.9117 18.509 54.0147 18.497 54.1287 18.497ZM54.1347 19.643C54.3407 19.643 54.4437 19.52 54.4437 19.274C54.4437 19.146 54.4177 19.051 54.3657 18.989C54.3157 18.927 54.2427 18.896 54.1467 18.896C54.1087 18.896 54.0747 18.901 54.0447 18.911C54.0147 18.919 53.9887 18.929 53.9667 18.941V19.601C53.9907 19.613 54.0167 19.623 54.0447 19.631C54.0727 19.639 54.1027 19.643 54.1347 19.643ZM56.7236 19.271C56.7236 19.395 56.7046 19.506 56.6666 19.604C56.6286 19.7 56.5746 19.781 56.5046 19.847C56.4366 19.913 56.3546 19.963 56.2586 19.997C56.1626 20.031 56.0556 20.048 55.9376 20.048C55.8196 20.048 55.7126 20.03 55.6166 19.994C55.5206 19.958 55.4376 19.907 55.3676 19.841C55.2996 19.773 55.2466 19.691 55.2086 19.595C55.1706 19.499 55.1516 19.391 55.1516 19.271C55.1516 19.153 55.1706 19.046 55.2086 18.95C55.2466 18.854 55.2996 18.773 55.3676 18.707C55.4376 18.639 55.5206 18.587 55.6166 18.551C55.7126 18.515 55.8196 18.497 55.9376 18.497C56.0556 18.497 56.1626 18.516 56.2586 18.554C56.3546 18.59 56.4366 18.642 56.5046 18.71C56.5746 18.776 56.6286 18.857 56.6666 18.953C56.7046 19.049 56.7236 19.155 56.7236 19.271ZM55.6736 19.271C55.6736 19.393 55.6966 19.487 55.7426 19.553C55.7906 19.617 55.8566 19.649 55.9406 19.649C56.0246 19.649 56.0886 19.616 56.1326 19.55C56.1786 19.484 56.2016 19.391 56.2016 19.271C56.2016 19.151 56.1786 19.059 56.1326 18.995C56.0866 18.929 56.0216 18.896 55.9376 18.896C55.8536 18.896 55.7886 18.929 55.7426 18.995C55.6966 19.059 55.6736 19.151 55.6736 19.271ZM58.4814 19.271C58.4814 19.395 58.4624 19.506 58.4244 19.604C58.3864 19.7 58.3324 19.781 58.2624 19.847C58.1944 19.913 58.1124 19.963 58.0164 19.997C57.9204 20.031 57.8134 20.048 57.6954 20.048C57.5774 20.048 57.4704 20.03 57.3744 19.994C57.2784 19.958 57.1954 19.907 57.1254 19.841C57.0574 19.773 57.0044 19.691 56.9664 19.595C56.9284 19.499 56.9094 19.391 56.9094 19.271C56.9094 19.153 56.9284 19.046 56.9664 18.95C57.0044 18.854 57.0574 18.773 57.1254 18.707C57.1954 18.639 57.2784 18.587 57.3744 18.551C57.4704 18.515 57.5774 18.497 57.6954 18.497C57.8134 18.497 57.9204 18.516 58.0164 18.554C58.1124 18.59 58.1944 18.642 58.2624 18.71C58.3324 18.776 58.3864 18.857 58.4244 18.953C58.4624 19.049 58.4814 19.155 58.4814 19.271ZM57.4314 19.271C57.4314 19.393 57.4544 19.487 57.5004 19.553C57.5484 19.617 57.6144 19.649 57.6984 19.649C57.7824 19.649 57.8464 19.616 57.8904 19.55C57.9364 19.484 57.9594 19.391 57.9594 19.271C57.9594 19.151 57.9364 19.059 57.8904 18.995C57.8444 18.929 57.7794 18.896 57.6954 18.896C57.6114 18.896 57.5464 18.929 57.5004 18.995C57.4544 19.059 57.4314 19.151 57.4314 19.271ZM59.2492 19.997C59.2272 20.001 59.1942 20.006 59.1502 20.012C59.1082 20.02 59.0652 20.024 59.0212 20.024C58.9772 20.024 58.9372 20.021 58.9012 20.015C58.8672 20.009 58.8382 19.997 58.8142 19.979C58.7902 19.961 58.7712 19.937 58.7572 19.907C58.7452 19.875 58.7392 19.834 58.7392 19.784V18.044C58.7612 18.04 58.7932 18.035 58.8352 18.029C58.8792 18.021 58.9232 18.017 58.9672 18.017C59.0112 18.017 59.0502 18.02 59.0842 18.026C59.1202 18.032 59.1502 18.044 59.1742 18.062C59.1982 18.08 59.2162 18.105 59.2282 18.137C59.2422 18.167 59.2492 18.207 59.2492 18.257V19.997Z" fill="white"/>
<defs>
<linearGradient id="paint0_linear_589_235" x1="27.6903" y1="25.4254" x2="28.0885" y2="36.3621" gradientUnits="userSpaceOnUse">
<stop offset="0.01"/>
<stop offset="0.83" stop-opacity="0.07"/>
<stop offset="1" stop-opacity="0"/>
</linearGradient>
<linearGradient id="paint1_linear_589_235" x1="81.8991" y1="23.45" x2="82.2973" y2="34.3867" gradientUnits="userSpaceOnUse">
<stop offset="0.01"/>
<stop offset="0.83" stop-opacity="0.07"/>
<stop offset="1" stop-opacity="0"/>
</linearGradient>
<linearGradient id="paint2_linear_589_235" x1="54.73" y1="11.9032" x2="54.9003" y2="23.6115" gradientUnits="userSpaceOnUse">
<stop offset="0.01"/>
<stop offset="0.83" stop-opacity="0.07"/>
<stop offset="1" stop-opacity="0"/>
</linearGradient>
<linearGradient id="paint3_linear_589_235" x1="55.3677" y1="30.4674" x2="55.2825" y2="46.6342" gradientUnits="userSpaceOnUse">
<stop offset="0.01"/>
<stop offset="0.83" stop-opacity="0.07"/>
<stop offset="1" stop-opacity="0"/>
</linearGradient>
<linearGradient id="paint4_linear_589_235" x1="56.4724" y1="12.8504" x2="53.1652" y2="75.7063" gradientUnits="userSpaceOnUse">
<stop offset="0.01"/>
<stop offset="0.83" stop-opacity="0.07"/>
<stop offset="1" stop-opacity="0"/>
</linearGradient>
<linearGradient id="paint5_linear_589_235" x1="54.5985" y1="47.7476" x2="55.1683" y2="29.6001" gradientUnits="userSpaceOnUse">
<stop offset="0.01"/>
<stop offset="0.83" stop-opacity="0.07"/>
<stop offset="1" stop-opacity="0"/>
</linearGradient>
<linearGradient id="paint6_linear_589_235" x1="54.6483" y1="34.8247" x2="55.3327" y2="55.8003" gradientUnits="userSpaceOnUse">
<stop offset="0.01"/>
<stop offset="0.83" stop-opacity="0.07"/>
<stop offset="1" stop-opacity="0"/>
</linearGradient>
<linearGradient id="paint7_linear_589_235" x1="55.0816" y1="34.1089" x2="55.4797" y2="46.9777" gradientUnits="userSpaceOnUse">
<stop offset="0.01"/>
<stop offset="0.83" stop-opacity="0.07"/>
<stop offset="1" stop-opacity="0"/>
</linearGradient>
<linearGradient id="paint8_linear_589_235" x1="54.9411" y1="17.9952" x2="54.9411" y2="39.1727" gradientUnits="userSpaceOnUse">
<stop offset="0.01"/>
<stop offset="0.83" stop-opacity="0.07"/>
<stop offset="1" stop-opacity="0"/>
</linearGradient>
<linearGradient id="paint9_linear_589_235" x1="44.4025" y1="31.065" x2="44.306" y2="27.9088" gradientUnits="userSpaceOnUse">
<stop offset="0.01"/>
<stop offset="0.83" stop-opacity="0.07"/>
<stop offset="1" stop-opacity="0"/>
</linearGradient>
<linearGradient id="paint10_linear_589_235" x1="44.7473" y1="26.1522" x2="44.6016" y2="28.5628" gradientUnits="userSpaceOnUse">
<stop offset="0.01"/>
<stop offset="0.83" stop-opacity="0.07"/>
<stop offset="1" stop-opacity="0"/>
</linearGradient>
<linearGradient id="paint11_linear_589_235" x1="48.8471" y1="23.9455" x2="45.7375" y2="24.4703" gradientUnits="userSpaceOnUse">
<stop offset="0.01"/>
<stop offset="0.83" stop-opacity="0.07"/>
<stop offset="1" stop-opacity="0"/>
</linearGradient>
<linearGradient id="paint12_linear_589_235" x1="45.065" y1="24.7777" x2="45.2602" y2="22.5372" gradientUnits="userSpaceOnUse">
<stop offset="0.01"/>
<stop offset="0.83" stop-opacity="0.07"/>
<stop offset="1" stop-opacity="0"/>
</linearGradient>
<linearGradient id="paint13_linear_589_235" x1="44.6156" y1="25.0691" x2="44.1862" y2="37.659" gradientUnits="userSpaceOnUse">
<stop offset="0.01"/>
<stop offset="0.83" stop-opacity="0.07"/>
<stop offset="1" stop-opacity="0"/>
</linearGradient>
<linearGradient id="paint14_linear_589_235" x1="52.738" y1="15.1559" x2="50.0666" y2="65.9135" gradientUnits="userSpaceOnUse">
<stop offset="0.02" stop-color="white" stop-opacity="0"/>
<stop offset="0.39" stop-color="white" stop-opacity="0.39"/>
<stop offset="1" stop-color="white"/>
</linearGradient>
</defs>
</svg>
