<svg width="25" height="20" viewBox="0 0 25 20" fill="none" xmlns="http://www.w3.org/2000/svg">
<path d="M0 10V15C0 15.6914 0.558594 16.25 1.25 16.25H2.5V8.75H1.25C0.558594 8.75 0 9.30859 0 10ZM18.125 3.75H13.75V1.25C13.75 0.558594 13.1914 0 12.5 0C11.8086 0 11.25 0.558594 11.25 1.25V3.75H6.875C5.14844 3.75 3.75 5.14844 3.75 6.875V17.5C3.75 18.8789 4.87109 20 6.25 20H18.75C20.1289 20 21.25 18.8789 21.25 17.5V6.875C21.25 5.14844 19.8516 3.75 18.125 3.75ZM10 16.25H7.5V15H10V16.25ZM8.75 11.5625C7.88672 11.5625 7.1875 10.8633 7.1875 10C7.1875 9.13672 7.88672 8.4375 8.75 8.4375C9.61328 8.4375 10.3125 9.13672 10.3125 10C10.3125 10.8633 9.61328 11.5625 8.75 11.5625ZM13.75 16.25H11.25V15H13.75V16.25ZM17.5 16.25H15V15H17.5V16.25ZM16.25 11.5625C15.3867 11.5625 14.6875 10.8633 14.6875 10C14.6875 9.13672 15.3867 8.4375 16.25 8.4375C17.1133 8.4375 17.8125 9.13672 17.8125 10C17.8125 10.8633 17.1133 11.5625 16.25 11.5625ZM23.75 8.75H22.5V16.25H23.75C24.4414 16.25 25 15.6914 25 15V10C25 9.30859 24.4414 8.75 23.75 8.75Z" fill="white"/>
</svg>
