<svg width="22" height="16" viewBox="0 0 22 16" fill="none" xmlns="http://www.w3.org/2000/svg">
<path d="M11 0C4.93436 0 0 3.58862 0 8C0 12.4114 4.93436 16 11 16C17.0656 16 22 12.4114 22 8C22 3.58862 17.0656 0 11 0ZM16.2314 12.1379C16.0527 12.2679 15.818 12.3334 15.5834 12.3334C15.3487 12.3334 15.1139 12.2679 14.9353 12.1379L10.3519 8.80469C10.1796 8.68005 10.0834 8.51062 10.0834 8.33337V4C10.0834 3.63135 10.4939 3.33337 11 3.33337C11.5061 3.33337 11.9166 3.63135 11.9166 4V8.05737L16.2314 11.1953C16.5898 11.4561 16.5898 11.8773 16.2314 12.1379Z" fill="#0C0B0B"/>
</svg>
