<svg width="40" height="40" viewBox="0 0 40 40" fill="none" xmlns="http://www.w3.org/2000/svg">
<path d="M20.0002 3.3335C10.7835 3.3335 3.3335 10.7835 3.3335 20.0002C3.3335 29.2168 10.7835 36.6668 20.0002 36.6668C29.2168 36.6668 36.6668 29.2168 36.6668 20.0002C36.6668 10.7835 29.2168 3.3335 20.0002 3.3335ZM27.1668 27.1668C26.5168 27.8168 25.4668 27.8168 24.8168 27.1668L20.0002 22.3502L15.1835 27.1668C14.5335 27.8168 13.4835 27.8168 12.8335 27.1668C12.1835 26.5168 12.1835 25.4668 12.8335 24.8168L17.6502 20.0002L12.8335 15.1835C12.1835 14.5335 12.1835 13.4835 12.8335 12.8335C13.4835 12.1835 14.5335 12.1835 15.1835 12.8335L20.0002 17.6502L24.8168 12.8335C25.4668 12.1835 26.5168 12.1835 27.1668 12.8335C27.8168 13.4835 27.8168 14.5335 27.1668 15.1835L22.3502 20.0002L27.1668 24.8168C27.8002 25.4502 27.8002 26.5168 27.1668 27.1668Z" fill="#0C0B0B"/>
</svg>
