<svg width="30" height="30" viewBox="0 0 30 30" fill="none" xmlns="http://www.w3.org/2000/svg">
<path d="M16.125 21.0328H17.1C18.075 21.0328 18.885 20.1628 18.885 19.1128C18.885 17.8078 18.42 17.5528 17.655 17.2828L16.14 16.7578V21.0328H16.125Z" fill="#40B59F"/>
<path d="M14.955 2.51747e-05C6.67505 0.0300249 -0.0298995 6.76497 0.000100279 15.045C0.0301 23.3249 6.76505 30.0299 15.045 29.9999C23.325 29.9699 30.0299 23.2349 29.9999 14.955C29.9699 6.67497 23.235 -0.0149747 14.955 2.51747e-05ZM18.39 15.15C19.56 15.555 21.135 16.425 21.135 19.1099C21.135 21.4199 19.32 23.2799 17.1 23.2799H16.125V24.1499C16.125 24.7649 15.615 25.2749 15 25.2749C14.385 25.2749 13.875 24.7649 13.875 24.1499V23.2799H13.335C10.875 23.2799 8.88003 21.2099 8.88003 18.6599C8.88003 18.045 9.39002 17.535 10.005 17.535C10.62 17.535 11.13 18.045 11.13 18.6599C11.13 19.9649 12.12 21.0299 13.335 21.0299H13.875V15.96L11.61 15.15C10.44 14.745 8.86503 13.875 8.86503 11.1899C8.86503 8.87995 10.68 7.01997 12.9 7.01997H13.875V6.14998C13.875 5.53498 14.385 5.02498 15 5.02498C15.615 5.02498 16.125 5.53498 16.125 6.14998V7.01997H16.665C19.125 7.01997 21.12 9.08995 21.12 11.6399C21.12 12.255 20.61 12.765 19.995 12.765C19.38 12.765 18.87 12.255 18.87 11.6399C18.87 10.3349 17.88 9.26995 16.665 9.26995H16.125V14.34L18.39 15.15Z" fill="#40B59F"/>
<path d="M11.1328 11.2045C11.1328 12.5095 11.5978 12.7645 12.3628 13.0345L13.8778 13.5595V9.26953H12.9028C11.9278 9.26953 11.1328 10.1395 11.1328 11.2045Z" fill="#40B59F"/>
</svg>
