<svg width="37" height="39" viewBox="0 0 37 39" fill="none" xmlns="http://www.w3.org/2000/svg">
<path d="M2.05556 21.6667H14.3889C15.5194 21.6667 16.4444 20.6917 16.4444 19.5V2.16667C16.4444 0.975 15.5194 0 14.3889 0H2.05556C0.925 0 0 0.975 0 2.16667V19.5C0 20.6917 0.925 21.6667 2.05556 21.6667ZM2.05556 39H14.3889C15.5194 39 16.4444 38.025 16.4444 36.8333V28.1667C16.4444 26.975 15.5194 26 14.3889 26H2.05556C0.925 26 0 26.975 0 28.1667V36.8333C0 38.025 0.925 39 2.05556 39ZM22.6111 39H34.9444C36.075 39 37 38.025 37 36.8333V19.5C37 18.3083 36.075 17.3333 34.9444 17.3333H22.6111C21.4806 17.3333 20.5556 18.3083 20.5556 19.5V36.8333C20.5556 38.025 21.4806 39 22.6111 39ZM20.5556 2.16667V10.8333C20.5556 12.025 21.4806 13 22.6111 13H34.9444C36.075 13 37 12.025 37 10.8333V2.16667C37 0.975 36.075 0 34.9444 0H22.6111C21.4806 0 20.5556 0.975 20.5556 2.16667Z" fill="white"/>
</svg>
