<svg width="41" height="30" viewBox="0 0 41 30" fill="none" xmlns="http://www.w3.org/2000/svg">
<path d="M11.4443 7.90771C7.65804 7.90771 4.57764 10.4716 4.57764 13.6231C4.57764 16.7746 7.65804 19.3385 11.4443 19.3385C15.2306 19.3385 18.311 16.7746 18.311 13.6231C18.311 10.4716 15.2306 7.90771 11.4443 7.90771ZM11.4443 18.0684C8.49944 18.0684 6.10357 16.0743 6.10357 13.6231C6.10357 11.172 8.49944 9.1778 11.4443 9.1778C14.3892 9.1778 16.7851 11.172 16.7851 13.6231C16.7851 16.0743 14.3892 18.0684 11.4443 18.0684Z" fill="white"/>
<path d="M19.988 23.0722C18.108 21.4834 15.6158 20.6084 12.9704 20.6084H9.91856C7.2732 20.6084 4.78095 21.4834 2.901 23.0722C1.03026 24.6532 0 26.7401 0 28.9486C0 29.2994 0.341605 29.5837 0.762966 29.5837H22.126C22.5474 29.5837 22.889 29.2994 22.889 28.9486C22.889 26.7401 21.8587 24.6532 19.988 23.0722ZM1.5595 28.3136C1.94175 24.7114 5.54478 21.8785 9.91856 21.8785H12.9704C17.3442 21.8785 20.9472 24.7114 21.3295 28.3136H1.5595Z" fill="white"/>
<path d="M29.8064 10.2255L30.5015 10.9207L24.0945 17.2261L23.4216 17.1987L23.3994 16.531L29.8064 10.2255ZM32.2938 5.96369C32.111 5.95624 31.9232 6.02107 31.7889 6.1533L30.4947 7.42693L33.3279 10.2603L34.6221 8.98667C34.8979 8.71524 34.8826 8.25801 34.588 7.96334L32.8201 6.19532C32.669 6.04421 32.484 5.97144 32.2938 5.96369ZM29.7381 8.17161L21.9166 15.869L22.0073 18.5907L24.7498 18.7024L32.5712 11.005L29.7381 8.17161Z" fill="white"/>
</svg>
