<svg width="456" height="571" viewBox="0 0 456 571" fill="none" xmlns="http://www.w3.org/2000/svg">
<path d="M130.555 491.06V492.54H124.495V497.24H129.415V498.72H124.495V505H122.675V491.06H130.555ZM137.533 505.18C136.506 505.18 135.573 504.947 134.733 504.48C133.906 504.013 133.253 503.353 132.773 502.5C132.306 501.633 132.073 500.633 132.073 499.5C132.073 498.38 132.313 497.393 132.793 496.54C133.286 495.673 133.953 495.013 134.793 494.56C135.633 494.093 136.573 493.86 137.613 493.86C138.653 493.86 139.593 494.093 140.433 494.56C141.273 495.013 141.933 495.667 142.413 496.52C142.906 497.373 143.153 498.367 143.153 499.5C143.153 500.633 142.9 501.633 142.393 502.5C141.9 503.353 141.226 504.013 140.373 504.48C139.52 504.947 138.573 505.18 137.533 505.18ZM137.533 503.58C138.186 503.58 138.8 503.427 139.373 503.12C139.946 502.813 140.406 502.353 140.753 501.74C141.113 501.127 141.293 500.38 141.293 499.5C141.293 498.62 141.12 497.873 140.773 497.26C140.426 496.647 139.973 496.193 139.413 495.9C138.853 495.593 138.246 495.44 137.593 495.44C136.926 495.44 136.313 495.593 135.753 495.9C135.206 496.193 134.766 496.647 134.433 497.26C134.1 497.873 133.933 498.62 133.933 499.5C133.933 500.393 134.093 501.147 134.413 501.76C134.746 502.373 135.186 502.833 135.733 503.14C136.28 503.433 136.88 503.58 137.533 503.58ZM147.366 495.82C147.686 495.193 148.139 494.707 148.726 494.36C149.326 494.013 150.053 493.84 150.906 493.84V495.72H150.426C148.386 495.72 147.366 496.827 147.366 499.04V505H145.546V494.04H147.366V495.82ZM157.527 493.86C158.473 493.86 159.3 494.067 160.007 494.48C160.727 494.893 161.26 495.413 161.607 496.04V494.04H163.447V505.24C163.447 506.24 163.233 507.127 162.807 507.9C162.38 508.687 161.767 509.3 160.967 509.74C160.18 510.18 159.26 510.4 158.207 510.4C156.767 510.4 155.567 510.06 154.607 509.38C153.647 508.7 153.08 507.773 152.907 506.6H154.707C154.907 507.267 155.32 507.8 155.947 508.2C156.573 508.613 157.327 508.82 158.207 508.82C159.207 508.82 160.02 508.507 160.647 507.88C161.287 507.253 161.607 506.373 161.607 505.24V502.94C161.247 503.58 160.713 504.113 160.007 504.54C159.3 504.967 158.473 505.18 157.527 505.18C156.553 505.18 155.667 504.94 154.867 504.46C154.08 503.98 153.46 503.307 153.007 502.44C152.553 501.573 152.327 500.587 152.327 499.48C152.327 498.36 152.553 497.38 153.007 496.54C153.46 495.687 154.08 495.027 154.867 494.56C155.667 494.093 156.553 493.86 157.527 493.86ZM161.607 499.5C161.607 498.673 161.44 497.953 161.107 497.34C160.773 496.727 160.32 496.26 159.747 495.94C159.187 495.607 158.567 495.44 157.887 495.44C157.207 495.44 156.587 495.6 156.027 495.92C155.467 496.24 155.02 496.707 154.687 497.32C154.353 497.933 154.187 498.653 154.187 499.48C154.187 500.32 154.353 501.053 154.687 501.68C155.02 502.293 155.467 502.767 156.027 503.1C156.587 503.42 157.207 503.58 157.887 503.58C158.567 503.58 159.187 503.42 159.747 503.1C160.32 502.767 160.773 502.293 161.107 501.68C161.44 501.053 161.607 500.327 161.607 499.5ZM171.302 505.18C170.276 505.18 169.342 504.947 168.502 504.48C167.676 504.013 167.022 503.353 166.542 502.5C166.076 501.633 165.842 500.633 165.842 499.5C165.842 498.38 166.082 497.393 166.562 496.54C167.056 495.673 167.722 495.013 168.562 494.56C169.402 494.093 170.342 493.86 171.382 493.86C172.422 493.86 173.362 494.093 174.202 494.56C175.042 495.013 175.702 495.667 176.182 496.52C176.676 497.373 176.922 498.367 176.922 499.5C176.922 500.633 176.669 501.633 176.162 502.5C175.669 503.353 174.996 504.013 174.142 504.48C173.289 504.947 172.342 505.18 171.302 505.18ZM171.302 503.58C171.956 503.58 172.569 503.427 173.142 503.12C173.716 502.813 174.176 502.353 174.522 501.74C174.882 501.127 175.062 500.38 175.062 499.5C175.062 498.62 174.889 497.873 174.542 497.26C174.196 496.647 173.742 496.193 173.182 495.9C172.622 495.593 172.016 495.44 171.362 495.44C170.696 495.44 170.082 495.593 169.522 495.9C168.976 496.193 168.536 496.647 168.202 497.26C167.869 497.873 167.702 498.62 167.702 499.5C167.702 500.393 167.862 501.147 168.182 501.76C168.516 502.373 168.956 502.833 169.502 503.14C170.049 503.433 170.649 503.58 171.302 503.58ZM181.535 495.54V502C181.535 502.533 181.649 502.913 181.875 503.14C182.102 503.353 182.495 503.46 183.055 503.46H184.395V505H182.755C181.742 505 180.982 504.767 180.475 504.3C179.969 503.833 179.715 503.067 179.715 502V495.54H178.295V494.04H179.715V491.28H181.535V494.04H184.395V495.54H181.535ZM194.153 495.54V502C194.153 502.533 194.266 502.913 194.493 503.14C194.719 503.353 195.113 503.46 195.673 503.46H197.013V505H195.373C194.359 505 193.599 504.767 193.093 504.3C192.586 503.833 192.333 503.067 192.333 502V495.54H190.913V494.04H192.333V491.28H194.153V494.04H197.013V495.54H194.153ZM204.658 493.84C205.484 493.84 206.231 494.02 206.898 494.38C207.564 494.727 208.084 495.253 208.458 495.96C208.844 496.667 209.038 497.527 209.038 498.54V505H207.238V498.8C207.238 497.707 206.964 496.873 206.418 496.3C205.871 495.713 205.124 495.42 204.178 495.42C203.218 495.42 202.451 495.72 201.878 496.32C201.318 496.92 201.038 497.793 201.038 498.94V505H199.218V490.2H201.038V495.6C201.398 495.04 201.891 494.607 202.518 494.3C203.158 493.993 203.871 493.84 204.658 493.84ZM222.011 499.1C222.011 499.447 221.991 499.813 221.951 500.2H213.191C213.257 501.28 213.624 502.127 214.291 502.74C214.971 503.34 215.791 503.64 216.751 503.64C217.537 503.64 218.191 503.46 218.711 503.1C219.244 502.727 219.617 502.233 219.831 501.62H221.791C221.497 502.673 220.911 503.533 220.031 504.2C219.151 504.853 218.057 505.18 216.751 505.18C215.711 505.18 214.777 504.947 213.951 504.48C213.137 504.013 212.497 503.353 212.031 502.5C211.564 501.633 211.331 500.633 211.331 499.5C211.331 498.367 211.557 497.373 212.011 496.52C212.464 495.667 213.097 495.013 213.911 494.56C214.737 494.093 215.684 493.86 216.751 493.86C217.791 493.86 218.711 494.087 219.511 494.54C220.311 494.993 220.924 495.62 221.351 496.42C221.791 497.207 222.011 498.1 222.011 499.1ZM220.131 498.72C220.131 498.027 219.977 497.433 219.671 496.94C219.364 496.433 218.944 496.053 218.411 495.8C217.891 495.533 217.311 495.4 216.671 495.4C215.751 495.4 214.964 495.693 214.311 496.28C213.671 496.867 213.304 497.68 213.211 498.72H220.131ZM239.065 495.14C239.065 496.3 238.665 497.267 237.865 498.04C237.078 498.8 235.872 499.18 234.245 499.18H231.565V505H229.745V491.06H234.245C235.818 491.06 237.012 491.44 237.825 492.2C238.652 492.96 239.065 493.94 239.065 495.14ZM234.245 497.68C235.258 497.68 236.005 497.46 236.485 497.02C236.965 496.58 237.205 495.953 237.205 495.14C237.205 493.42 236.218 492.56 234.245 492.56H231.565V497.68H234.245ZM240.647 499.48C240.647 498.36 240.874 497.38 241.327 496.54C241.78 495.687 242.4 495.027 243.187 494.56C243.987 494.093 244.874 493.86 245.847 493.86C246.807 493.86 247.64 494.067 248.347 494.48C249.054 494.893 249.58 495.413 249.927 496.04V494.04H251.767V505H249.927V502.96C249.567 503.6 249.027 504.133 248.307 504.56C247.6 504.973 246.774 505.18 245.827 505.18C244.854 505.18 243.974 504.94 243.187 504.46C242.4 503.98 241.78 503.307 241.327 502.44C240.874 501.573 240.647 500.587 240.647 499.48ZM249.927 499.5C249.927 498.673 249.76 497.953 249.427 497.34C249.094 496.727 248.64 496.26 248.067 495.94C247.507 495.607 246.887 495.44 246.207 495.44C245.527 495.44 244.907 495.6 244.347 495.92C243.787 496.24 243.34 496.707 243.007 497.32C242.674 497.933 242.507 498.653 242.507 499.48C242.507 500.32 242.674 501.053 243.007 501.68C243.34 502.293 243.787 502.767 244.347 503.1C244.907 503.42 245.527 503.58 246.207 503.58C246.887 503.58 247.507 503.42 248.067 503.1C248.64 502.767 249.094 502.293 249.427 501.68C249.76 501.053 249.927 500.327 249.927 499.5ZM258.723 505.18C257.883 505.18 257.129 505.04 256.463 504.76C255.796 504.467 255.269 504.067 254.883 503.56C254.496 503.04 254.283 502.447 254.243 501.78H256.123C256.176 502.327 256.429 502.773 256.883 503.12C257.349 503.467 257.956 503.64 258.703 503.64C259.396 503.64 259.943 503.487 260.343 503.18C260.743 502.873 260.943 502.487 260.943 502.02C260.943 501.54 260.729 501.187 260.303 500.96C259.876 500.72 259.216 500.487 258.323 500.26C257.509 500.047 256.843 499.833 256.323 499.62C255.816 499.393 255.376 499.067 255.003 498.64C254.643 498.2 254.463 497.627 254.463 496.92C254.463 496.36 254.629 495.847 254.963 495.38C255.296 494.913 255.769 494.547 256.383 494.28C256.996 494 257.696 493.86 258.483 493.86C259.696 493.86 260.676 494.167 261.423 494.78C262.169 495.393 262.569 496.233 262.623 497.3H260.803C260.763 496.727 260.529 496.267 260.103 495.92C259.689 495.573 259.129 495.4 258.423 495.4C257.769 495.4 257.249 495.54 256.863 495.82C256.476 496.1 256.283 496.467 256.283 496.92C256.283 497.28 256.396 497.58 256.623 497.82C256.863 498.047 257.156 498.233 257.503 498.38C257.863 498.513 258.356 498.667 258.983 498.84C259.769 499.053 260.409 499.267 260.903 499.48C261.396 499.68 261.816 499.987 262.163 500.4C262.523 500.813 262.709 501.353 262.723 502.02C262.723 502.62 262.556 503.16 262.223 503.64C261.889 504.12 261.416 504.5 260.803 504.78C260.203 505.047 259.509 505.18 258.723 505.18ZM269.172 505.18C268.332 505.18 267.579 505.04 266.912 504.76C266.245 504.467 265.719 504.067 265.332 503.56C264.945 503.04 264.732 502.447 264.692 501.78H266.572C266.625 502.327 266.879 502.773 267.332 503.12C267.799 503.467 268.405 503.64 269.152 503.64C269.845 503.64 270.392 503.487 270.792 503.18C271.192 502.873 271.392 502.487 271.392 502.02C271.392 501.54 271.179 501.187 270.752 500.96C270.325 500.72 269.665 500.487 268.772 500.26C267.959 500.047 267.292 499.833 266.772 499.62C266.265 499.393 265.825 499.067 265.452 498.64C265.092 498.2 264.912 497.627 264.912 496.92C264.912 496.36 265.079 495.847 265.412 495.38C265.745 494.913 266.219 494.547 266.832 494.28C267.445 494 268.145 493.86 268.932 493.86C270.145 493.86 271.125 494.167 271.872 494.78C272.619 495.393 273.019 496.233 273.072 497.3H271.252C271.212 496.727 270.979 496.267 270.552 495.92C270.139 495.573 269.579 495.4 268.872 495.4C268.219 495.4 267.699 495.54 267.312 495.82C266.925 496.1 266.732 496.467 266.732 496.92C266.732 497.28 266.845 497.58 267.072 497.82C267.312 498.047 267.605 498.233 267.952 498.38C268.312 498.513 268.805 498.667 269.432 498.84C270.219 499.053 270.859 499.267 271.352 499.48C271.845 499.68 272.265 499.987 272.612 500.4C272.972 500.813 273.159 501.353 273.172 502.02C273.172 502.62 273.005 503.16 272.672 503.64C272.339 504.12 271.865 504.5 271.252 504.78C270.652 505.047 269.959 505.18 269.172 505.18ZM290.341 494.04L286.921 505H285.041L282.401 496.3L279.761 505H277.881L274.441 494.04H276.301L278.821 503.24L281.541 494.04H283.401L286.061 503.26L288.541 494.04H290.341ZM296.927 505.18C295.901 505.18 294.967 504.947 294.127 504.48C293.301 504.013 292.647 503.353 292.167 502.5C291.701 501.633 291.467 500.633 291.467 499.5C291.467 498.38 291.707 497.393 292.187 496.54C292.681 495.673 293.347 495.013 294.187 494.56C295.027 494.093 295.967 493.86 297.007 493.86C298.047 493.86 298.987 494.093 299.827 494.56C300.667 495.013 301.327 495.667 301.807 496.52C302.301 497.373 302.547 498.367 302.547 499.5C302.547 500.633 302.294 501.633 301.787 502.5C301.294 503.353 300.621 504.013 299.767 504.48C298.914 504.947 297.967 505.18 296.927 505.18ZM296.927 503.58C297.581 503.58 298.194 503.427 298.767 503.12C299.341 502.813 299.801 502.353 300.147 501.74C300.507 501.127 300.687 500.38 300.687 499.5C300.687 498.62 300.514 497.873 300.167 497.26C299.821 496.647 299.367 496.193 298.807 495.9C298.247 495.593 297.641 495.44 296.987 495.44C296.321 495.44 295.707 495.593 295.147 495.9C294.601 496.193 294.161 496.647 293.827 497.26C293.494 497.873 293.327 498.62 293.327 499.5C293.327 500.393 293.487 501.147 293.807 501.76C294.141 502.373 294.581 502.833 295.127 503.14C295.674 503.433 296.274 503.58 296.927 503.58ZM306.76 495.82C307.08 495.193 307.534 494.707 308.12 494.36C308.72 494.013 309.447 493.84 310.3 493.84V495.72H309.82C307.78 495.72 306.76 496.827 306.76 499.04V505H304.94V494.04H306.76V495.82ZM311.721 499.48C311.721 498.36 311.948 497.38 312.401 496.54C312.855 495.687 313.475 495.027 314.261 494.56C315.061 494.093 315.955 493.86 316.941 493.86C317.795 493.86 318.588 494.06 319.321 494.46C320.055 494.847 320.615 495.36 321.001 496V490.2H322.841V505H321.001V502.94C320.641 503.593 320.108 504.133 319.401 504.56C318.695 504.973 317.868 505.18 316.921 505.18C315.948 505.18 315.061 504.94 314.261 504.46C313.475 503.98 312.855 503.307 312.401 502.44C311.948 501.573 311.721 500.587 311.721 499.48ZM321.001 499.5C321.001 498.673 320.835 497.953 320.501 497.34C320.168 496.727 319.715 496.26 319.141 495.94C318.581 495.607 317.961 495.44 317.281 495.44C316.601 495.44 315.981 495.6 315.421 495.92C314.861 496.24 314.415 496.707 314.081 497.32C313.748 497.933 313.581 498.653 313.581 499.48C313.581 500.32 313.748 501.053 314.081 501.68C314.415 502.293 314.861 502.767 315.421 503.1C315.981 503.42 316.601 503.58 317.281 503.58C317.961 503.58 318.581 503.42 319.141 503.1C319.715 502.767 320.168 502.293 320.501 501.68C320.835 501.053 321.001 500.327 321.001 499.5ZM329.477 490.88C330.797 490.88 331.864 491.253 332.677 492C333.49 492.747 333.897 493.747 333.897 495C333.897 496.4 333.464 497.44 332.597 498.12C331.73 498.787 330.557 499.12 329.077 499.12L329.017 501.02H327.437L327.357 497.86H327.937C329.257 497.86 330.29 497.66 331.037 497.26C331.784 496.86 332.157 496.107 332.157 495C332.157 494.2 331.917 493.567 331.437 493.1C330.957 492.633 330.31 492.4 329.497 492.4C328.67 492.4 328.017 492.627 327.537 493.08C327.07 493.52 326.837 494.127 326.837 494.9H325.117C325.117 494.1 325.297 493.4 325.657 492.8C326.017 492.187 326.524 491.713 327.177 491.38C327.844 491.047 328.61 490.88 329.477 490.88ZM328.217 505.12C327.87 505.12 327.577 505 327.337 504.76C327.097 504.52 326.977 504.227 326.977 503.88C326.977 503.533 327.097 503.24 327.337 503C327.577 502.76 327.87 502.64 328.217 502.64C328.55 502.64 328.83 502.76 329.057 503C329.297 503.24 329.417 503.533 329.417 503.88C329.417 504.227 329.297 504.52 329.057 504.76C328.83 505 328.55 505.12 328.217 505.12ZM186.513 524.04L183.093 535H181.213L178.573 526.3L175.933 535H174.053L170.613 524.04H172.473L174.993 533.24L177.713 524.04H179.573L182.233 533.26L184.713 524.04H186.513ZM198.319 529.1C198.319 529.447 198.299 529.813 198.259 530.2H189.499C189.566 531.28 189.933 532.127 190.599 532.74C191.279 533.34 192.099 533.64 193.059 533.64C193.846 533.64 194.499 533.46 195.019 533.1C195.553 532.727 195.926 532.233 196.139 531.62H198.099C197.806 532.673 197.219 533.533 196.339 534.2C195.459 534.853 194.366 535.18 193.059 535.18C192.019 535.18 191.086 534.947 190.259 534.48C189.446 534.013 188.806 533.353 188.339 532.5C187.873 531.633 187.639 530.633 187.639 529.5C187.639 528.367 187.866 527.373 188.319 526.52C188.773 525.667 189.406 525.013 190.219 524.56C191.046 524.093 191.993 523.86 193.059 523.86C194.099 523.86 195.019 524.087 195.819 524.54C196.619 524.993 197.233 525.62 197.659 526.42C198.099 527.207 198.319 528.1 198.319 529.1ZM196.439 528.72C196.439 528.027 196.286 527.433 195.979 526.94C195.673 526.433 195.253 526.053 194.719 525.8C194.199 525.533 193.619 525.4 192.979 525.4C192.059 525.4 191.273 525.693 190.619 526.28C189.979 526.867 189.613 527.68 189.519 528.72H196.439ZM210.574 523.86C211.52 523.86 212.347 524.067 213.054 524.48C213.774 524.893 214.307 525.413 214.654 526.04V524.04H216.494V535.24C216.494 536.24 216.28 537.127 215.854 537.9C215.427 538.687 214.814 539.3 214.014 539.74C213.227 540.18 212.307 540.4 211.254 540.4C209.814 540.4 208.614 540.06 207.654 539.38C206.694 538.7 206.127 537.773 205.954 536.6H207.754C207.954 537.267 208.367 537.8 208.994 538.2C209.62 538.613 210.374 538.82 211.254 538.82C212.254 538.82 213.067 538.507 213.694 537.88C214.334 537.253 214.654 536.373 214.654 535.24V532.94C214.294 533.58 213.76 534.113 213.054 534.54C212.347 534.967 211.52 535.18 210.574 535.18C209.6 535.18 208.714 534.94 207.914 534.46C207.127 533.98 206.507 533.307 206.054 532.44C205.6 531.573 205.374 530.587 205.374 529.48C205.374 528.36 205.6 527.38 206.054 526.54C206.507 525.687 207.127 525.027 207.914 524.56C208.714 524.093 209.6 523.86 210.574 523.86ZM214.654 529.5C214.654 528.673 214.487 527.953 214.154 527.34C213.82 526.727 213.367 526.26 212.794 525.94C212.234 525.607 211.614 525.44 210.934 525.44C210.254 525.44 209.634 525.6 209.074 525.92C208.514 526.24 208.067 526.707 207.734 527.32C207.4 527.933 207.234 528.653 207.234 529.48C207.234 530.32 207.4 531.053 207.734 531.68C208.067 532.293 208.514 532.767 209.074 533.1C209.634 533.42 210.254 533.58 210.934 533.58C211.614 533.58 212.234 533.42 212.794 533.1C213.367 532.767 213.82 532.293 214.154 531.68C214.487 531.053 214.654 530.327 214.654 529.5ZM224.349 535.18C223.323 535.18 222.389 534.947 221.549 534.48C220.723 534.013 220.069 533.353 219.589 532.5C219.123 531.633 218.889 530.633 218.889 529.5C218.889 528.38 219.129 527.393 219.609 526.54C220.103 525.673 220.769 525.013 221.609 524.56C222.449 524.093 223.389 523.86 224.429 523.86C225.469 523.86 226.409 524.093 227.249 524.56C228.089 525.013 228.749 525.667 229.229 526.52C229.723 527.373 229.969 528.367 229.969 529.5C229.969 530.633 229.716 531.633 229.209 532.5C228.716 533.353 228.043 534.013 227.189 534.48C226.336 534.947 225.389 535.18 224.349 535.18ZM224.349 533.58C225.003 533.58 225.616 533.427 226.189 533.12C226.763 532.813 227.223 532.353 227.569 531.74C227.929 531.127 228.109 530.38 228.109 529.5C228.109 528.62 227.936 527.873 227.589 527.26C227.243 526.647 226.789 526.193 226.229 525.9C225.669 525.593 225.063 525.44 224.409 525.44C223.743 525.44 223.129 525.593 222.569 525.9C222.023 526.193 221.583 526.647 221.249 527.26C220.916 527.873 220.749 528.62 220.749 529.5C220.749 530.393 220.909 531.147 221.229 531.76C221.563 532.373 222.003 532.833 222.549 533.14C223.096 533.433 223.696 533.58 224.349 533.58ZM234.582 525.54V532C234.582 532.533 234.696 532.913 234.922 533.14C235.149 533.353 235.542 533.46 236.102 533.46H237.442V535H235.802C234.789 535 234.029 534.767 233.522 534.3C233.016 533.833 232.762 533.067 232.762 532V525.54H231.342V524.04H232.762V521.28H234.582V524.04H237.442V525.54H234.582ZM254.419 524.04L247.819 540.16H245.939L248.099 534.88L243.679 524.04H245.699L249.139 532.92L252.539 524.04H254.419ZM261.029 535.18C260.002 535.18 259.069 534.947 258.229 534.48C257.402 534.013 256.749 533.353 256.269 532.5C255.802 531.633 255.569 530.633 255.569 529.5C255.569 528.38 255.809 527.393 256.289 526.54C256.782 525.673 257.449 525.013 258.289 524.56C259.129 524.093 260.069 523.86 261.109 523.86C262.149 523.86 263.089 524.093 263.929 524.56C264.769 525.013 265.429 525.667 265.909 526.52C266.402 527.373 266.649 528.367 266.649 529.5C266.649 530.633 266.396 531.633 265.889 532.5C265.396 533.353 264.722 534.013 263.869 534.48C263.016 534.947 262.069 535.18 261.029 535.18ZM261.029 533.58C261.682 533.58 262.296 533.427 262.869 533.12C263.442 532.813 263.902 532.353 264.249 531.74C264.609 531.127 264.789 530.38 264.789 529.5C264.789 528.62 264.616 527.873 264.269 527.26C263.922 526.647 263.469 526.193 262.909 525.9C262.349 525.593 261.742 525.44 261.089 525.44C260.422 525.44 259.809 525.593 259.249 525.9C258.702 526.193 258.262 526.647 257.929 527.26C257.596 527.873 257.429 528.62 257.429 529.5C257.429 530.393 257.589 531.147 257.909 531.76C258.242 532.373 258.682 532.833 259.229 533.14C259.776 533.433 260.376 533.58 261.029 533.58ZM278.762 524.04V535H276.942V533.38C276.595 533.94 276.109 534.38 275.482 534.7C274.869 535.007 274.189 535.16 273.442 535.16C272.589 535.16 271.822 534.987 271.142 534.64C270.462 534.28 269.922 533.747 269.522 533.04C269.135 532.333 268.942 531.473 268.942 530.46V524.04H270.742V530.22C270.742 531.3 271.015 532.133 271.562 532.72C272.109 533.293 272.855 533.58 273.802 533.58C274.775 533.58 275.542 533.28 276.102 532.68C276.662 532.08 276.942 531.207 276.942 530.06V524.04H278.762ZM151.022 563.32L154.422 554.04H156.362L152.062 565H149.942L145.642 554.04H147.602L151.022 563.32ZM168.153 559.1C168.153 559.447 168.133 559.813 168.093 560.2H159.333C159.4 561.28 159.767 562.127 160.433 562.74C161.113 563.34 161.933 563.64 162.893 563.64C163.68 563.64 164.333 563.46 164.853 563.1C165.387 562.727 165.76 562.233 165.973 561.62H167.933C167.64 562.673 167.053 563.533 166.173 564.2C165.293 564.853 164.2 565.18 162.893 565.18C161.853 565.18 160.92 564.947 160.093 564.48C159.28 564.013 158.64 563.353 158.173 562.5C157.707 561.633 157.473 560.633 157.473 559.5C157.473 558.367 157.7 557.373 158.153 556.52C158.607 555.667 159.24 555.013 160.053 554.56C160.88 554.093 161.827 553.86 162.893 553.86C163.933 553.86 164.853 554.087 165.653 554.54C166.453 554.993 167.067 555.62 167.493 556.42C167.933 557.207 168.153 558.1 168.153 559.1ZM166.273 558.72C166.273 558.027 166.12 557.433 165.813 556.94C165.507 556.433 165.087 556.053 164.553 555.8C164.033 555.533 163.453 555.4 162.813 555.4C161.893 555.4 161.107 555.693 160.453 556.28C159.813 556.867 159.447 557.68 159.353 558.72H166.273ZM172.376 555.82C172.696 555.193 173.149 554.707 173.736 554.36C174.336 554.013 175.062 553.84 175.916 553.84V555.72H175.436C173.396 555.72 172.376 556.827 172.376 559.04V565H170.556V554.04H172.376V555.82ZM178.957 552.26C178.61 552.26 178.317 552.14 178.077 551.9C177.837 551.66 177.717 551.367 177.717 551.02C177.717 550.673 177.837 550.38 178.077 550.14C178.317 549.9 178.61 549.78 178.957 549.78C179.29 549.78 179.57 549.9 179.797 550.14C180.037 550.38 180.157 550.673 180.157 551.02C180.157 551.367 180.037 551.66 179.797 551.9C179.57 552.14 179.29 552.26 178.957 552.26ZM179.837 554.04V565H178.017V554.04H179.837ZM187.398 555.54H185.098V565H183.278V555.54H181.858V554.04H183.278V553.26C183.278 552.033 183.592 551.14 184.218 550.58C184.858 550.007 185.878 549.72 187.278 549.72V551.24C186.478 551.24 185.912 551.4 185.578 551.72C185.258 552.027 185.098 552.54 185.098 553.26V554.04H187.398V555.54ZM198.96 554.04L192.36 570.16H190.48L192.64 564.88L188.22 554.04H190.24L193.68 562.92L197.08 554.04H198.96ZM215.562 554.04L208.962 570.16H207.082L209.242 564.88L204.822 554.04H206.842L210.282 562.92L213.682 554.04H215.562ZM222.172 565.18C221.145 565.18 220.212 564.947 219.372 564.48C218.545 564.013 217.892 563.353 217.412 562.5C216.945 561.633 216.712 560.633 216.712 559.5C216.712 558.38 216.952 557.393 217.432 556.54C217.925 555.673 218.592 555.013 219.432 554.56C220.272 554.093 221.212 553.86 222.252 553.86C223.292 553.86 224.232 554.093 225.072 554.56C225.912 555.013 226.572 555.667 227.052 556.52C227.545 557.373 227.792 558.367 227.792 559.5C227.792 560.633 227.538 561.633 227.032 562.5C226.538 563.353 225.865 564.013 225.012 564.48C224.158 564.947 223.212 565.18 222.172 565.18ZM222.172 563.58C222.825 563.58 223.438 563.427 224.012 563.12C224.585 562.813 225.045 562.353 225.392 561.74C225.752 561.127 225.932 560.38 225.932 559.5C225.932 558.62 225.758 557.873 225.412 557.26C225.065 556.647 224.612 556.193 224.052 555.9C223.492 555.593 222.885 555.44 222.232 555.44C221.565 555.44 220.952 555.593 220.392 555.9C219.845 556.193 219.405 556.647 219.072 557.26C218.738 557.873 218.572 558.62 218.572 559.5C218.572 560.393 218.732 561.147 219.052 561.76C219.385 562.373 219.825 562.833 220.372 563.14C220.918 563.433 221.518 563.58 222.172 563.58ZM239.905 554.04V565H238.085V563.38C237.738 563.94 237.251 564.38 236.625 564.7C236.011 565.007 235.331 565.16 234.585 565.16C233.731 565.16 232.965 564.987 232.285 564.64C231.605 564.28 231.065 563.747 230.665 563.04C230.278 562.333 230.085 561.473 230.085 560.46V554.04H231.885V560.22C231.885 561.3 232.158 562.133 232.705 562.72C233.251 563.293 233.998 563.58 234.945 563.58C235.918 563.58 236.685 563.28 237.245 562.68C237.805 562.08 238.085 561.207 238.085 560.06V554.04H239.905ZM244.798 555.82C245.118 555.193 245.571 554.707 246.158 554.36C246.758 554.013 247.484 553.84 248.338 553.84V555.72H247.858C245.818 555.72 244.798 556.827 244.798 559.04V565H242.978V554.04H244.798V555.82ZM265.77 559.1C265.77 559.447 265.75 559.813 265.71 560.2H256.95C257.017 561.28 257.384 562.127 258.05 562.74C258.73 563.34 259.55 563.64 260.51 563.64C261.297 563.64 261.95 563.46 262.47 563.1C263.004 562.727 263.377 562.233 263.59 561.62H265.55C265.257 562.673 264.67 563.533 263.79 564.2C262.91 564.853 261.817 565.18 260.51 565.18C259.47 565.18 258.537 564.947 257.71 564.48C256.897 564.013 256.257 563.353 255.79 562.5C255.324 561.633 255.09 560.633 255.09 559.5C255.09 558.367 255.317 557.373 255.77 556.52C256.224 555.667 256.857 555.013 257.67 554.56C258.497 554.093 259.444 553.86 260.51 553.86C261.55 553.86 262.47 554.087 263.27 554.54C264.07 554.993 264.684 555.62 265.11 556.42C265.55 557.207 265.77 558.1 265.77 559.1ZM263.89 558.72C263.89 558.027 263.737 557.433 263.43 556.94C263.124 556.433 262.704 556.053 262.17 555.8C261.65 555.533 261.07 555.4 260.43 555.4C259.51 555.4 258.724 555.693 258.07 556.28C257.43 556.867 257.064 557.68 256.97 558.72H263.89ZM281.353 553.84C282.206 553.84 282.966 554.02 283.633 554.38C284.299 554.727 284.826 555.253 285.213 555.96C285.599 556.667 285.793 557.527 285.793 558.54V565H283.993V558.8C283.993 557.707 283.719 556.873 283.173 556.3C282.639 555.713 281.913 555.42 280.993 555.42C280.046 555.42 279.293 555.727 278.733 556.34C278.173 556.94 277.893 557.813 277.893 558.96V565H276.093V558.8C276.093 557.707 275.819 556.873 275.273 556.3C274.739 555.713 274.013 555.42 273.093 555.42C272.146 555.42 271.393 555.727 270.833 556.34C270.273 556.94 269.993 557.813 269.993 558.96V565H268.173V554.04H269.993V555.62C270.353 555.047 270.833 554.607 271.433 554.3C272.046 553.993 272.719 553.84 273.453 553.84C274.373 553.84 275.186 554.047 275.893 554.46C276.599 554.873 277.126 555.48 277.473 556.28C277.779 555.507 278.286 554.907 278.993 554.48C279.699 554.053 280.486 553.84 281.353 553.84ZM288.098 559.48C288.098 558.36 288.325 557.38 288.778 556.54C289.232 555.687 289.852 555.027 290.638 554.56C291.438 554.093 292.325 553.86 293.298 553.86C294.258 553.86 295.092 554.067 295.798 554.48C296.505 554.893 297.032 555.413 297.378 556.04V554.04H299.218V565H297.378V562.96C297.018 563.6 296.478 564.133 295.758 564.56C295.052 564.973 294.225 565.18 293.278 565.18C292.305 565.18 291.425 564.94 290.638 564.46C289.852 563.98 289.232 563.307 288.778 562.44C288.325 561.573 288.098 560.587 288.098 559.48ZM297.378 559.5C297.378 558.673 297.212 557.953 296.878 557.34C296.545 556.727 296.092 556.26 295.518 555.94C294.958 555.607 294.338 555.44 293.658 555.44C292.978 555.44 292.358 555.6 291.798 555.92C291.238 556.24 290.792 556.707 290.458 557.32C290.125 557.933 289.958 558.653 289.958 559.48C289.958 560.32 290.125 561.053 290.458 561.68C290.792 562.293 291.238 562.767 291.798 563.1C292.358 563.42 292.978 563.58 293.658 563.58C294.338 563.58 294.958 563.42 295.518 563.1C296.092 562.767 296.545 562.293 296.878 561.68C297.212 561.053 297.378 560.327 297.378 559.5ZM303.234 552.26C302.887 552.26 302.594 552.14 302.354 551.9C302.114 551.66 301.994 551.367 301.994 551.02C301.994 550.673 302.114 550.38 302.354 550.14C302.594 549.9 302.887 549.78 303.234 549.78C303.567 549.78 303.847 549.9 304.074 550.14C304.314 550.38 304.434 550.673 304.434 551.02C304.434 551.367 304.314 551.66 304.074 551.9C303.847 552.14 303.567 552.26 303.234 552.26ZM304.114 554.04V565H302.294V554.04H304.114ZM309.036 550.2V565H307.216V550.2H309.036Z" fill="white"/>
<path d="M275.017 28.8974C307.44 41.4567 337.653 57.0562 364.169 79.5496C392.116 103.257 418.073 129.408 432.971 162.891C449.181 199.323 462.27 240.052 452.819 278.791C443.345 317.62 410.429 344.976 381.753 372.817C353.724 400.031 324.896 427.579 287.598 439.203C249.821 450.977 208.724 450.193 170.914 438.526C134.038 427.147 101.988 403.649 77.0185 374.222C53.3194 346.293 45.1037 310.178 32.7475 275.696C19.5043 238.739 -7.03292 202.42 1.74381 164.155C10.532 125.84 50.4408 104.844 78.2969 77.1077C105.729 49.7934 126.821 11.3922 164.421 2.17779C201.895 -7.0061 239.038 14.9612 275.017 28.8974Z" fill="white"/>
<g clip-path="url(#clip0_399_771)">
<path d="M191.197 251.632C201.821 228.047 222.086 209.937 243.538 211.682C227.714 233.399 218.487 261.479 217.489 290.955C217.137 302.324 217.683 315.016 211.701 323.53C207.98 328.827 202.291 331.392 196.697 331.931C191.104 332.469 185.511 331.193 179.992 329.923L178.654 330.442C178.144 303.32 180.573 275.218 191.197 251.632Z" fill="#F0F0F0"/>
<path d="M243.57 212.25C227.706 221.888 214.18 237.984 205.876 257.615C204.081 261.859 202.553 266.361 201.886 271.122C201.219 275.884 201.685 280.418 202.974 284.942C204.152 289.077 205.737 293.135 206.098 297.56C206.479 302.224 205.119 306.585 202.672 310.046C199.677 314.281 195.655 316.905 191.651 319.299C187.206 321.957 182.555 324.628 179.406 329.589C179.025 330.19 178.308 329.407 178.689 328.807C184.167 320.177 193.544 318.555 200.047 311.603C203.081 308.359 205.359 303.941 205.215 298.765C205.089 294.239 203.458 290.052 202.236 285.878C200.953 281.495 200.313 277.088 200.773 272.415C201.244 267.635 202.636 263.048 204.338 258.764C208.175 249.104 213.426 240.236 219.441 232.569C226.354 223.757 234.411 216.502 243.263 211.118C243.811 210.785 244.114 211.919 243.57 212.25Z" fill="white"/>
<path d="M208.308 251.054C205.876 248.81 204.156 245.548 203.454 241.85C202.752 238.153 203.114 234.261 204.476 230.869C204.753 230.184 205.61 230.696 205.332 231.382C204.059 234.537 203.722 238.163 204.381 241.604C205.041 245.045 206.653 248.076 208.927 250.149C209.421 250.6 208.799 251.503 208.308 251.054Z" fill="white"/>
<path d="M202.157 282.944C208.251 281.82 213.786 277.839 217.657 271.794C218.04 271.195 218.757 271.977 218.374 272.576C214.336 278.857 208.57 282.985 202.227 284.137C201.622 284.246 201.556 283.053 202.157 282.944Z" fill="white"/>
<path d="M226.822 225.228C227.62 226.344 228.625 227.192 229.746 227.697C230.868 228.201 232.071 228.347 233.248 228.119C233.852 228 233.917 229.194 233.318 229.312C232.016 229.555 230.688 229.393 229.447 228.839C228.207 228.285 227.093 227.356 226.203 226.133C226.112 226.027 226.056 225.88 226.047 225.724C226.038 225.567 226.076 225.412 226.154 225.29C226.237 225.171 226.353 225.097 226.478 225.086C226.603 225.074 226.727 225.125 226.822 225.228Z" fill="white"/>
<path d="M286.221 286.085C285.846 286.173 285.471 286.26 285.093 286.357C280.056 287.57 275.105 289.297 270.289 291.522C269.915 291.686 269.537 291.86 269.167 292.038C257.611 297.553 246.966 305.729 237.774 316.148C234.12 320.299 230.721 324.794 227.607 329.595C223.306 336.226 219.061 343.848 213.442 348.171C212.859 348.631 212.255 349.044 211.632 349.409L179.259 332.463C179.201 332.378 179.139 332.302 179.08 332.216L177.763 331.614C177.91 331.352 178.067 331.085 178.214 330.823C178.299 330.671 178.39 330.522 178.475 330.37C178.534 330.27 178.593 330.169 178.642 330.075C178.661 330.041 178.681 330.008 178.697 329.984C178.746 329.889 178.799 329.807 178.844 329.722C179.718 328.223 180.601 326.73 181.494 325.242C181.497 325.233 181.497 325.233 181.507 325.227C188.335 313.91 195.971 303.213 204.651 294.319C204.912 294.051 205.176 293.774 205.452 293.514C209.382 289.533 213.564 285.963 217.955 282.841C220.363 281.141 222.839 279.596 225.371 278.213C231.92 274.653 238.872 272.415 245.972 271.582C260.126 269.923 274.543 273.996 285.399 285.217C285.676 285.505 285.947 285.788 286.221 286.085Z" fill="#F0F0F0"/>
<path d="M285.978 286.565C268.714 282.207 250.235 284.781 234.24 294.146C230.782 296.17 227.413 298.604 224.61 301.898C221.805 305.194 220.014 309.168 218.886 313.759C217.854 317.957 217.183 322.401 215.361 326.208C213.44 330.222 210.274 332.671 206.668 333.574C202.257 334.68 197.793 333.719 193.455 332.588C188.637 331.333 183.649 329.932 178.769 331.5C178.178 331.69 177.979 330.521 178.569 330.331C187.06 327.603 195.321 333.433 203.83 332.823C207.8 332.538 211.726 330.742 214.081 326.5C216.14 322.79 216.834 318.208 217.85 313.947C218.916 309.472 220.508 305.467 223.105 302.086C225.761 298.627 229.061 296.022 232.463 293.895C240.135 289.097 248.559 286.006 257.019 284.455C266.743 282.672 276.637 283.001 286.273 285.429C286.869 285.579 286.571 286.715 285.978 286.565Z" fill="white"/>
<path d="M239.312 290.756C238.441 287.116 238.623 283.204 239.827 279.718C241.03 276.233 243.176 273.4 245.881 271.727C246.43 271.391 246.869 272.45 246.32 272.787C243.799 274.339 241.8 276.978 240.685 280.226C239.569 283.475 239.411 287.12 240.238 290.503C240.417 291.239 239.49 291.487 239.312 290.756Z" fill="white"/>
<path d="M219.187 311.544C224.589 315.277 230.907 316.304 236.881 314.419C237.473 314.232 237.673 315.401 237.081 315.588C230.861 317.534 224.288 316.449 218.673 312.549C218.138 312.177 218.655 311.174 219.187 311.544Z" fill="white"/>
<path d="M266.415 284.203C266.52 285.7 266.917 287.14 267.572 288.395C268.227 289.651 269.118 290.681 270.166 291.394C270.705 291.757 270.188 292.76 269.653 292.398C268.498 291.604 267.514 290.465 266.788 289.08C266.062 287.695 265.616 286.107 265.489 284.455C265.467 284.3 265.492 284.141 265.559 284.009C265.627 283.877 265.731 283.782 265.852 283.744C265.975 283.712 266.103 283.742 266.208 283.827C266.314 283.913 266.388 284.048 266.415 284.203Z" fill="white"/>
<path d="M224.552 314.044C220.019 286.378 214.351 277.154 214.351 277.154L212.186 275.035L209.583 272.483L209.595 272.154L208.978 271.889L208.833 271.747L208.595 271.517L208.557 271.569L208.476 271.674L196.694 266.62L181.747 260.212L174.826 248.859C173.698 247.009 172.247 245.515 170.585 244.492C168.924 243.469 167.097 242.946 165.249 242.963L143.144 243.17C140.155 243.198 137.282 244.635 135.091 247.201L120.562 264.209L97.9223 277.855L97.8841 277.807L97.6463 278.021L94.1484 280.132L94.2927 281.08L92.1277 283.052C92.1277 283.052 86.4604 291.634 81.9266 317.377C80.7732 323.927 80.2055 337.978 80.0006 355.293C79.9903 356.169 80.1181 357.039 80.3765 357.852C80.6349 358.665 81.0188 359.405 81.5059 360.029C81.993 360.653 82.5735 361.149 83.2137 361.487C83.854 361.825 84.5411 362 85.2352 362H206.157L221.249 362C221.943 362 222.629 361.825 223.269 361.487C223.909 361.149 224.489 360.654 224.976 360.031C225.463 359.408 225.847 358.668 226.106 357.856C226.365 357.044 226.493 356.175 226.484 355.3C226.284 336.459 225.716 321.147 224.552 314.044Z" fill="#3F3D56"/>
<path d="M240.067 126.127C235.363 126.127 230.851 128.486 227.524 132.684C224.197 136.882 222.329 142.576 222.329 148.514C222.329 154.451 224.197 160.145 227.524 164.343C230.851 168.542 235.363 170.9 240.067 170.9H372.261C376.966 170.9 381.478 168.542 384.805 164.343C388.131 160.145 390 154.451 390 148.514C390 142.576 388.131 136.882 384.805 132.684C381.478 128.486 376.966 126.127 372.261 126.127H240.067Z" fill="#E5E5E5"/>
<path d="M240.067 130.658C236.315 130.658 232.716 132.539 230.062 135.887C227.409 139.236 225.918 143.778 225.918 148.514C225.918 153.249 227.409 157.791 230.062 161.14C232.716 164.488 236.315 166.37 240.067 166.37H372.261C376.014 166.37 379.613 164.488 382.266 161.14C384.919 157.791 386.41 153.249 386.41 148.514C386.41 143.778 384.919 139.236 382.266 135.887C379.613 132.539 376.014 130.658 372.261 130.658H240.067Z" fill="white"/>
<path d="M157.668 232.483C173.662 232.483 186.627 216.12 186.627 195.935C186.627 175.75 173.662 159.387 157.668 159.387C141.674 159.387 128.708 175.75 128.708 195.935C128.708 216.12 141.674 232.483 157.668 232.483Z" fill="#9E616A"/>
<path d="M150.259 230.693C150.136 230.349 150.012 230.004 149.889 229.658C149.937 229.66 149.984 229.669 150.031 229.67L150.259 230.693Z" fill="#2F2E41"/>
<path d="M127.903 161.049C129.367 159.574 131.079 158.217 132.952 158.293C134.824 158.37 136.723 160.504 136.336 162.817C139.775 155.131 145.25 149.22 151.799 146.121C158.349 143.021 165.554 142.932 172.15 145.869C176.804 147.942 181.368 152.088 182.437 158.168C182.712 159.729 182.771 161.441 183.543 162.709C184.517 164.307 186.38 164.668 187.914 164.106C187.929 164.1 187.944 164.095 187.96 164.089C188.219 163.977 188.499 163.966 188.763 164.057C189.027 164.149 189.263 164.338 189.441 164.6C189.619 164.863 189.731 165.187 189.762 165.53C189.792 165.874 189.74 166.221 189.613 166.527L188.296 169.626C189.956 170.093 191.681 170.047 193.324 169.491C193.597 169.401 193.885 169.419 194.15 169.544C194.414 169.669 194.641 169.894 194.8 170.188C194.959 170.482 195.042 170.831 195.038 171.187C195.033 171.543 194.942 171.889 194.776 172.176C190.433 179.7 183.179 184.559 175.775 184.502C170.513 184.462 165.197 182.173 160.076 183.7C158.095 184.291 156.244 185.434 154.659 187.045C153.073 188.657 151.794 190.696 150.914 193.012C150.035 195.329 149.577 197.865 149.576 200.434C149.574 203.003 150.028 205.54 150.905 207.859C149.331 205.687 146.29 206.202 144.681 208.331C143.072 210.46 142.655 213.638 142.817 216.573C143.065 221.063 144.459 225.293 145.928 229.41C133.609 228.921 121.957 218.015 118.035 203.264C114.097 188.452 118.225 170.792 127.903 161.049Z" fill="#2F2E41"/>
<path opacity="0.2" d="M108.504 305.691L116.626 361.464L121.5 362L108.504 305.691Z" fill="black"/>
<path opacity="0.2" d="M197.975 301.485L189.853 361.424L184.979 362L197.975 301.485Z" fill="black"/>
<path d="M134.83 142.278C133.273 143.099 131.648 142.199 130.966 140.14C130.274 138.048 130.921 135.925 132.503 135.092C134.085 134.258 135.681 135.159 136.385 137.284C137.077 139.377 136.438 141.431 134.83 142.278ZM131.847 130.975L130.609 131.628C130.299 131.789 129.953 131.798 129.639 131.652C129.325 131.507 129.065 131.218 128.912 130.842L128.851 130.691C127.518 127.659 127.366 123.973 128.4 119.742C129.357 115.947 129.755 113.278 128.955 110.86C128.03 108.065 126.055 107.189 123.536 108.457C122.559 108.972 122.248 108.964 121.48 109.927C121.312 110.138 121.113 110.306 120.894 110.418C120.674 110.531 120.439 110.587 120.202 110.582C119.973 110.578 119.746 110.517 119.537 110.401C119.327 110.285 119.138 110.116 118.981 109.906C118.678 109.501 118.508 108.966 118.506 108.408C118.504 107.851 118.669 107.314 118.969 106.905C120.261 105.198 121.819 103.847 123.546 102.938C128.958 100.086 131.682 104.297 132.929 108.065C134.148 111.751 133.462 115.17 132.36 119.599C131.437 123.279 131.49 126.006 132.54 128.717C132.615 128.922 132.658 129.144 132.664 129.37C132.67 129.596 132.639 129.821 132.575 130.032C132.51 130.243 132.412 130.436 132.287 130.598C132.162 130.76 132.012 130.888 131.847 130.975Z" fill="#6C63FF"/>
<path d="M269.267 159.191H242.965C242.882 159.191 242.799 159.171 242.722 159.131C242.644 159.091 242.574 159.033 242.515 158.958C242.455 158.884 242.408 158.796 242.376 158.698C242.344 158.601 242.328 158.497 242.328 158.391C242.328 158.286 242.344 158.181 242.376 158.084C242.408 157.987 242.455 157.898 242.515 157.824C242.574 157.749 242.644 157.691 242.722 157.651C242.799 157.611 242.882 157.591 242.965 157.592H269.267C269.435 157.593 269.595 157.678 269.712 157.828C269.83 157.977 269.896 158.18 269.896 158.391C269.896 158.602 269.83 158.805 269.712 158.955C269.595 159.104 269.435 159.189 269.267 159.191Z" fill="#6C63FF"/>
<path d="M302.632 159.457H276.331C276.247 159.458 276.164 159.438 276.087 159.398C276.01 159.358 275.939 159.299 275.88 159.225C275.821 159.151 275.774 159.062 275.742 158.965C275.709 158.867 275.693 158.763 275.693 158.658C275.693 158.552 275.709 158.448 275.742 158.35C275.774 158.253 275.821 158.165 275.88 158.09C275.939 158.016 276.01 157.957 276.087 157.917C276.164 157.877 276.247 157.857 276.331 157.858H302.632C302.716 157.857 302.799 157.877 302.876 157.917C302.954 157.957 303.024 158.016 303.083 158.09C303.143 158.165 303.19 158.253 303.222 158.35C303.254 158.448 303.27 158.552 303.27 158.658C303.27 158.763 303.254 158.867 303.222 158.965C303.19 159.062 303.143 159.151 303.083 159.225C303.024 159.299 302.954 159.358 302.876 159.398C302.799 159.438 302.716 159.458 302.632 159.457Z" fill="#6C63FF"/>
<path d="M335.998 159.724H309.696C309.529 159.722 309.369 159.637 309.251 159.487C309.133 159.338 309.067 159.135 309.067 158.924C309.067 158.713 309.133 158.51 309.251 158.361C309.369 158.211 309.529 158.126 309.696 158.125H335.998C336.081 158.124 336.164 158.144 336.242 158.184C336.319 158.224 336.389 158.282 336.449 158.357C336.508 158.431 336.555 158.519 336.587 158.617C336.619 158.714 336.636 158.819 336.636 158.924C336.636 159.03 336.619 159.134 336.587 159.231C336.555 159.329 336.508 159.417 336.449 159.491C336.389 159.566 336.319 159.624 336.242 159.664C336.164 159.704 336.081 159.724 335.998 159.724Z" fill="#6C63FF"/>
<path d="M369.363 159.99H343.061C342.894 159.989 342.734 159.904 342.616 159.754C342.498 159.604 342.432 159.402 342.432 159.191C342.432 158.979 342.498 158.777 342.616 158.627C342.734 158.477 342.894 158.392 343.061 158.391H369.363C369.53 158.392 369.69 158.477 369.808 158.627C369.926 158.777 369.992 158.979 369.992 159.191C369.992 159.402 369.926 159.604 369.808 159.754C369.69 159.904 369.53 159.989 369.363 159.99Z" fill="#6C63FF"/>
<path d="M256.058 151.832C258.758 151.832 260.947 149.07 260.947 145.663C260.947 142.256 258.758 139.494 256.058 139.494C253.359 139.494 251.17 142.256 251.17 145.663C251.17 149.07 253.359 151.832 256.058 151.832Z" fill="#6C63FF"/>
<path d="M289.625 151.832C292.325 151.832 294.514 149.07 294.514 145.663C294.514 142.256 292.325 139.494 289.625 139.494C286.925 139.494 284.737 142.256 284.737 145.663C284.737 149.07 286.925 151.832 289.625 151.832Z" fill="#6C63FF"/>
<path d="M323.192 151.832C325.892 151.832 328.08 149.07 328.08 145.663C328.08 142.256 325.892 139.494 323.192 139.494C320.492 139.494 318.304 142.256 318.304 145.663C318.304 149.07 320.492 151.832 323.192 151.832Z" fill="#6C63FF"/>
<path d="M356.759 151.832C359.459 151.832 361.647 149.07 361.647 145.663C361.647 142.256 359.459 139.494 356.759 139.494C354.059 139.494 351.871 142.256 351.871 145.663C351.871 149.07 354.059 151.832 356.759 151.832Z" fill="#6C63FF"/>
</g>
<defs>
<clipPath id="clip0_399_771">
<rect width="310" height="260" fill="white" transform="translate(80 102)"/>
</clipPath>
</defs>
</svg>
