<svg width="26" height="21" viewBox="0 0 26 21" fill="none" xmlns="http://www.w3.org/2000/svg">
<path d="M25.299 9.00255C25.2984 9.00208 25.2978 9.00161 25.2972 9.00113L14.6913 0.558376C14.2392 0.198337 13.6382 0 12.9988 0C12.3595 0 11.7585 0.198179 11.3062 0.558218L0.705807 8.99671C0.702236 8.99955 0.698666 9.00255 0.695095 9.0054C-0.23325 9.74869 -0.231663 10.9547 0.699657 11.6961C1.12515 12.0349 1.68711 12.2312 2.28796 12.2517C2.31236 12.2536 2.33696 12.2546 2.36175 12.2546H2.78447V18.4679C2.78447 19.6974 4.0411 20.6978 5.58596 20.6978H9.73535C10.1559 20.6978 10.4971 20.4264 10.4971 20.0914V15.2202C10.4971 14.6591 11.0703 14.2027 11.7751 14.2027H14.2225C14.9273 14.2027 15.5006 14.6591 15.5006 15.2202V20.0914C15.5006 20.4264 15.8416 20.6978 16.2623 20.6978H20.4117C21.9566 20.6978 23.2132 19.6974 23.2132 18.4679V12.2546H23.6052C24.2443 12.2546 24.8453 12.0564 25.2978 11.6964C26.2301 10.9537 26.2305 9.74569 25.299 9.00255Z" fill="white"/>
</svg>
