<svg width="191" height="200" viewBox="0 0 191 200" fill="none" xmlns="http://www.w3.org/2000/svg">
<g clip-path="url(#clip0_317_718)">
<path d="M102.253 21.0664C108.92 38.1434 130.739 35.5736 145.544 31.926C149.094 31.0142 152.731 30.0194 155.934 28.2785C159.138 26.5377 161.822 23.7191 162.861 20.3203C163.986 16.507 162.687 12.2792 160.436 8.96331C158.358 5.89609 155.328 2.66307 152.124 0.673517C150.739 4.07233 145.804 4.32103 142.427 4.32103C137.665 4.32103 133.336 2.58017 128.92 1.3367C124.418 0.0932313 119.57 -0.155462 115.067 1.00511C105.976 3.07756 98.7033 11.9476 102.253 21.0664Z" fill="#0C0B0B"/>
<path d="M115.847 135.383C115.587 135.383 115.5 135.383 115.327 135.467L115.847 135.383Z" fill="#0C0B0B"/>
<path d="M115.847 135.383C115.587 135.383 115.5 135.383 115.327 135.467L115.847 135.383Z" fill="#0C0B0B"/>
<path d="M96.6255 52.2361V36.2368C96.6255 22.6415 109.873 11.5332 126.063 11.5332C134.116 11.5332 141.475 14.2688 146.843 18.7453C152.211 23.2218 155.501 29.3563 155.501 36.1539V52.1532" stroke="#0C0B0B" stroke-width="2" stroke-miterlimit="10"/>
<path d="M155.501 69.5618V88.048C155.501 101.643 142.254 112.752 126.063 112.752C109.873 112.752 96.6255 101.643 96.6255 88.048V69.5618" stroke="#0C0B0B" stroke-width="2" stroke-miterlimit="10"/>
<path d="M108.574 75.2818C116.846 75.2818 123.553 68.861 123.553 60.9405C123.553 53.02 116.846 46.5991 108.574 46.5991C100.301 46.5991 93.5952 53.02 93.5952 60.9405C93.5952 68.861 100.301 75.2818 108.574 75.2818Z" stroke="#0C0B0B" stroke-width="2" stroke-miterlimit="10"/>
<path d="M143.466 75.2818C151.739 75.2818 158.445 68.861 158.445 60.9405C158.445 53.02 151.739 46.5991 143.466 46.5991C135.194 46.5991 128.488 53.02 128.488 60.9405C128.488 68.861 135.194 75.2818 143.466 75.2818Z" stroke="#0C0B0B" stroke-width="2" stroke-miterlimit="10"/>
<path d="M123.466 60.5259H128.661" stroke="#0C0B0B" stroke-width="4" stroke-miterlimit="10"/>
<path d="M138.098 110.513H138.184V136.46" stroke="#0C0B0B" stroke-width="2" stroke-miterlimit="10"/>
<path d="M116.54 136.129V111.177" stroke="#0C0B0B" stroke-width="2" stroke-miterlimit="10"/>
<path d="M108.574 64.2563C110.487 64.2563 112.037 62.7718 112.037 60.9404C112.037 59.1091 110.487 57.6245 108.574 57.6245C106.661 57.6245 105.111 59.1091 105.111 60.9404C105.111 62.7718 106.661 64.2563 108.574 64.2563Z" fill="#0C0B0B"/>
<path d="M143.466 64.2563C145.379 64.2563 146.93 62.7718 146.93 60.9404C146.93 59.1091 145.379 57.6245 143.466 57.6245C141.553 57.6245 140.003 59.1091 140.003 60.9404C140.003 62.7718 141.553 64.2563 143.466 64.2563Z" fill="#0C0B0B"/>
<path d="M94.6343 66.3286H92.9026C90.9978 66.3286 89.2662 67.0747 87.9675 68.2353C86.7553 69.4787 85.9761 71.1367 85.9761 72.9604C85.9761 76.608 89.093 79.5923 92.9026 79.5923H96.3659" stroke="#0C0B0B" stroke-width="2" stroke-miterlimit="10"/>
<path d="M157.406 66.3286H159.138C162.947 66.3286 166.064 69.3129 166.064 72.9604C166.064 74.7842 165.285 76.4422 163.986 77.6856C162.774 78.8462 161.042 79.5923 159.138 79.5923H155.674" stroke="#0C0B0B" stroke-width="2" stroke-miterlimit="10"/>
<path d="M96.4526 70.9709V74.9501H93.682C92.5564 74.9501 91.604 74.0382 91.604 72.9605C91.604 72.3802 91.8637 71.8828 92.2101 71.5512C92.5564 71.2196 93.0759 70.9709 93.682 70.9709H96.4526Z" fill="#0C0B0B"/>
<path d="M155.674 74.9501V70.9709H158.445C159.571 70.9709 160.523 71.8828 160.523 72.9605C160.523 73.5408 160.263 74.0382 159.917 74.3698C159.571 74.7014 159.051 74.9501 158.445 74.9501H155.674Z" fill="#0C0B0B"/>
<path d="M126.064 74.6184C126.064 74.6184 121.735 81.2502 128.661 79.5923" stroke="#0C0B0B" stroke-width="2" stroke-miterlimit="10" stroke-linecap="round"/>
<path d="M118.271 93.7678C118.271 93.7678 125.198 101.975 134.722 93.7678" stroke="#0C0B0B" stroke-width="2" stroke-miterlimit="10" stroke-linecap="round"/>
<path d="M101.82 43.9462C101.82 43.9462 106.582 39.3868 114.808 43.1172" stroke="#0C0B0B" stroke-width="3" stroke-miterlimit="10" stroke-linecap="round"/>
<path d="M150.307 43.9462C150.307 43.9462 145.545 39.3868 137.319 43.1172" stroke="#0C0B0B" stroke-width="3" stroke-miterlimit="10" stroke-linecap="round"/>
<path d="M96.4522 34.4958C96.4522 34.4958 84.5039 25.6257 89.6988 14.849C94.8937 4.07225 111.344 9.87511 111.344 9.87511C111.344 9.87511 117.925 36.734 96.4522 34.4958Z" fill="#0C0B0B"/>
<path d="M37.0569 100.732C36.018 97.4993 34.5461 95.9242 33.7668 91.199C32.1218 81.7486 32.7278 72.7128 28.6585 73.0444C27.0134 73.2102 26.4939 74.8681 26.5805 75.78L27.8792 90.7016C27.3598 92.4425 26.4074 91.7793 26.4074 91.7793C26.4074 91.7793 23.0307 78.5156 22.5977 76.1116C22.1648 73.7904 20.9527 72.4641 19.3076 72.6299C16.4504 72.8786 17.576 76.1945 17.8357 77.438L20.8661 93.5201C21.1258 95.0952 19.3942 94.5978 19.3942 94.5978L12.6408 78.5156C11.8616 76.7748 10.3897 77.1893 10.3897 77.1893C7.70563 77.7695 8.74461 80.0907 8.74461 80.0907L14.5456 97.1677C14.5456 97.2506 14.5456 97.3335 14.5456 97.4164C14.6322 98.3282 13.42 98.8256 12.9006 97.9966C11.0823 95.3439 7.53246 91.1161 4.58868 89.4582C3.11678 88.6292 2.0778 88.795 1.47172 89.2095C0.865647 89.6239 0.779065 90.37 1.21198 90.9503L12.0347 105.955C14.5456 121.871 24.6757 123.778 24.6757 123.778L30.7365 146.492L39.6544 182.304L40.78 186.863C41.819 191.257 45.9749 194.407 50.6503 194.407H55.4123C58.789 194.407 61.1268 191.257 60.0878 188.272L38.5288 125.436L37.5764 119.965C39.6544 117.726 41.0397 113.001 41.7324 109.602C42.1653 107.779 42.3384 105.872 42.1653 104.048C41.819 99.4888 45.0225 91.2819 45.0225 91.2819C44.7627 89.7068 41.6458 91.0332 41.6458 91.0332C38.1825 92.1938 37.3167 97.4992 37.0569 100.401C36.9704 101.644 36.3643 102.722 35.4985 103.551C30.3035 108.442 29.8706 113.913 29.8706 113.913" stroke="#0C0B0B" stroke-width="2" stroke-miterlimit="10"/>
<path d="M22.5113 76.1935C22.0783 73.8724 21.2991 72.1315 19.2211 72.7118C16.4505 73.4579 17.4895 76.2764 17.7492 77.5199" stroke="#0C0B0B" stroke-width="2" stroke-miterlimit="10"/>
<path d="M191 198.966V199.794H172.125L168.142 178.656V199.794H86.4089V187.774C86.4089 184.873 86.4089 181.971 86.4955 179.07C84.6772 180.479 82.6858 181.64 80.3481 182.883L62.2525 194.489C62.1659 194.572 62.0793 194.572 61.9927 194.655C61.2135 195.069 60.3477 195.318 59.3953 195.318L55.6322 195.455C55.6322 195.455 59.655 193.992 60.6074 190.344L54.1138 169.62C63.378 162.242 78.3567 140.937 107.102 136.543C108.314 136.295 109.613 136.046 110.998 135.88C112.297 135.714 113.596 135.549 115.068 135.466L116.02 135.383V135.549L115.5 135.632C115.674 135.632 115.76 135.632 115.933 135.549H116.02C116.193 135.549 116.366 135.549 116.539 135.466H116.626L117.492 135.383V138.533C117.492 138.947 117.665 139.445 118.098 139.859C119.397 141.269 122.34 142.346 125.89 142.595C126.496 142.678 127.102 142.678 127.709 142.678C127.795 142.678 127.882 142.678 127.882 142.678H127.968C131.432 142.595 134.635 141.683 136.28 140.357C136.8 139.942 137.319 139.362 137.319 138.533V135.632L138.185 135.797H138.358C138.618 135.797 138.791 135.88 139.051 135.88V135.632L140.176 135.797C171.952 139.528 191 163.154 191 198.966Z" fill="#5157E0"/>
<path d="M62.1661 194.406L61.9062 194.573C61.9928 194.573 62.0795 194.49 62.1661 194.406Z" fill="#0C0B0B"/>
</g>
<defs>
<clipPath id="clip0_317_718">
<rect width="191" height="199.701" fill="white" transform="translate(0 0.0932617)"/>
</clipPath>
</defs>
</svg>
