<svg width="17" height="24" viewBox="0 0 17 24" fill="none" xmlns="http://www.w3.org/2000/svg">
<path d="M5.175 9.13C5.285 9.08 5.455 9.025 5.685 8.965C5.925 8.895 6.165 8.86 6.405 8.86C6.825 8.86 7.175 8.925 7.455 9.055C7.735 9.175 7.905 9.355 7.965 9.595C8.075 10.005 8.175 10.39 8.265 10.75C8.365 11.1 8.46 11.44 8.55 11.77C8.64 12.09 8.725 12.41 8.805 12.73C8.895 13.05 8.98 13.385 9.06 13.735H9.135C9.225 13.125 9.305 12.545 9.375 11.995C9.445 11.435 9.51 10.89 9.57 10.36C9.63 9.82 9.69 9.29 9.75 8.77C9.81 8.24 9.87 7.705 9.93 7.165C10.3 6.955 10.695 6.85 11.115 6.85C11.485 6.85 11.805 6.93 12.075 7.09C12.345 7.25 12.48 7.52 12.48 7.9C12.48 8.12 12.455 8.435 12.405 8.845C12.365 9.245 12.305 9.695 12.225 10.195C12.155 10.695 12.07 11.22 11.97 11.77C11.87 12.32 11.765 12.845 11.655 13.345C11.545 13.845 11.43 14.3 11.31 14.71C11.2 15.11 11.095 15.42 10.995 15.64C10.845 15.78 10.6 15.895 10.26 15.985C9.92 16.075 9.57 16.12 9.21 16.12C8.74 16.12 8.34 16.06 8.01 15.94C7.69 15.81 7.495 15.63 7.425 15.4C7.295 15 7.155 14.525 7.005 13.975C6.855 13.425 6.695 12.82 6.525 12.16C6.385 12.81 6.24 13.445 6.09 14.065C5.94 14.685 5.805 15.21 5.685 15.64C5.535 15.78 5.31 15.895 5.01 15.985C4.71 16.075 4.38 16.12 4.02 16.12C3.57 16.12 3.16 16.06 2.79 15.94C2.43 15.81 2.195 15.63 2.085 15.4C1.995 15.22 1.895 14.955 1.785 14.605C1.685 14.245 1.58 13.84 1.47 13.39C1.36 12.93 1.245 12.435 1.125 11.905C1.015 11.375 0.91 10.845 0.81 10.315C0.72 9.785 0.635 9.27 0.555 8.77C0.475 8.26 0.415 7.795 0.375 7.375C0.515 7.245 0.71 7.125 0.96 7.015C1.21 6.905 1.48 6.85 1.77 6.85C2.15 6.85 2.46 6.935 2.7 7.105C2.95 7.265 3.105 7.54 3.165 7.93C3.325 8.95 3.455 9.8 3.555 10.48C3.665 11.16 3.75 11.72 3.81 12.16C3.88 12.59 3.93 12.925 3.96 13.165C3.99 13.405 4.02 13.595 4.05 13.735H4.125C4.215 13.335 4.3 12.965 4.38 12.625C4.46 12.285 4.54 11.945 4.62 11.605C4.71 11.255 4.8 10.885 4.89 10.495C4.98 10.095 5.075 9.64 5.175 9.13Z" fill="#5157E0"/>
<ellipse cx="15" cy="13.5" rx="2" ry="2.5" fill="#5157E0"/>
</svg>
