<svg width="41" height="43" viewBox="0 0 41 43" fill="none" xmlns="http://www.w3.org/2000/svg">
<path d="M13.0344 23.68C13.3277 23.5467 13.781 23.4 14.3944 23.24C15.0344 23.0533 15.6744 22.96 16.3144 22.96C17.4344 22.96 18.3677 23.1333 19.1144 23.48C19.861 23.8 20.3144 24.28 20.4744 24.92C20.7677 26.0133 21.0344 27.04 21.2744 28C21.541 28.9333 21.7944 29.84 22.0344 30.72C22.2744 31.5733 22.501 32.4267 22.7144 33.28C22.9544 34.1333 23.181 35.0267 23.3944 35.96H23.5944C23.8344 34.3333 24.0477 32.7867 24.2344 31.32C24.421 29.8267 24.5944 28.3733 24.7544 26.96C24.9144 25.52 25.0744 24.1067 25.2344 22.72C25.3944 21.3067 25.5544 19.88 25.7144 18.44C26.701 17.88 27.7544 17.6 28.8744 17.6C29.861 17.6 30.7144 17.8133 31.4344 18.24C32.1544 18.6667 32.5144 19.3867 32.5144 20.4C32.5144 20.9867 32.4477 21.8267 32.3144 22.92C32.2077 23.9867 32.0477 25.1867 31.8344 26.52C31.6477 27.8533 31.421 29.2533 31.1544 30.72C30.8877 32.1867 30.6077 33.5867 30.3144 34.92C30.021 36.2533 29.7144 37.4667 29.3944 38.56C29.101 39.6267 28.821 40.4533 28.5544 41.04C28.1544 41.4133 27.501 41.72 26.5944 41.96C25.6877 42.2 24.7544 42.32 23.7944 42.32C22.541 42.32 21.4744 42.16 20.5944 41.84C19.741 41.4933 19.221 41.0133 19.0344 40.4C18.6877 39.3333 18.3144 38.0667 17.9144 36.6C17.5144 35.1333 17.0877 33.52 16.6344 31.76C16.261 33.4933 15.8744 35.1867 15.4744 36.84C15.0744 38.4933 14.7144 39.8933 14.3944 41.04C13.9944 41.4133 13.3944 41.72 12.5944 41.96C11.7944 42.2 10.9144 42.32 9.95438 42.32C8.75438 42.32 7.66104 42.16 6.67438 41.84C5.71438 41.4933 5.08771 41.0133 4.79438 40.4C4.55438 39.92 4.28771 39.2133 3.99438 38.28C3.72771 37.32 3.44771 36.24 3.15438 35.04C2.86104 33.8133 2.55438 32.4933 2.23438 31.08C1.94104 29.6667 1.66104 28.2533 1.39438 26.84C1.15438 25.4267 0.927708 24.0533 0.714375 22.72C0.501042 21.36 0.341042 20.12 0.234375 19C0.607708 18.6533 1.12771 18.3333 1.79438 18.04C2.46104 17.7467 3.18104 17.6 3.95438 17.6C4.96771 17.6 5.79438 17.8267 6.43438 18.28C7.10104 18.7067 7.51438 19.44 7.67438 20.48C8.10104 23.2 8.44771 25.4667 8.71438 27.28C9.00771 29.0933 9.23438 30.5867 9.39438 31.76C9.58104 32.9067 9.71438 33.8 9.79437 34.44C9.87438 35.08 9.95438 35.5867 10.0344 35.96H10.2344C10.4744 34.8933 10.701 33.9067 10.9144 33C11.1277 32.0933 11.341 31.1867 11.5544 30.28C11.7944 29.3467 12.0344 28.36 12.2744 27.32C12.5144 26.2533 12.7677 25.04 13.0344 23.68Z" fill="#5157E0"/>
<ellipse cx="36" cy="36.5" rx="5" ry="5.5" fill="#5157E0"/>
</svg>
