<svg width="531" height="646" viewBox="0 0 531 646" fill="none" xmlns="http://www.w3.org/2000/svg">
<path d="M320.25 33.2441C358.006 47.6925 393.188 65.6385 424.065 91.5153C456.608 118.789 486.835 148.873 504.183 187.393C523.059 229.304 538.302 276.16 527.296 320.726C516.264 365.396 477.934 396.866 444.541 428.895C411.902 460.203 378.333 491.895 334.901 505.267C290.91 518.812 243.054 517.91 199.025 504.488C156.084 491.397 118.762 464.364 89.686 430.512C62.0891 398.382 52.5221 356.835 38.1336 317.166C22.7122 274.649 -8.18965 232.868 2.03062 188.847C12.2642 144.769 58.737 120.615 91.1747 88.7061C123.119 57.2832 147.68 13.1058 191.463 2.50537C235.101 -8.05995 278.354 17.2117 320.25 33.2441Z" fill="white"/>
<g clip-path="url(#clip0_392_195)">
<path d="M450.616 361.795C447.142 382.355 431.486 398.274 414.819 412.186C412.492 414.129 410.159 416.034 407.821 417.901C407.804 417.91 407.789 417.928 407.772 417.937C407.66 418.026 407.547 418.116 407.443 418.205C406.96 418.59 406.477 418.975 405.998 419.355L406.299 419.445L407.234 419.722C406.913 419.637 406.596 419.556 406.275 419.471C406.18 419.445 406.08 419.423 405.984 419.397C394.934 416.526 383.658 413.376 374.624 406.652C365.252 399.667 358.797 387.761 362.03 376.79C362.455 375.353 363.046 373.965 363.792 372.654C364.096 372.105 364.432 371.575 364.785 371.051C366.921 367.825 369.912 365.204 373.451 363.458C376.989 361.711 380.948 360.903 384.919 361.115C388.89 361.328 392.731 362.554 396.046 364.666C399.361 366.779 402.031 369.703 403.782 373.138C403.624 361.05 392.142 352.235 381.372 345.996C370.599 339.762 358.401 333.027 355.014 321.379C353.125 314.898 354.714 308.224 358.422 302.584C358.537 302.413 358.652 302.241 358.772 302.073C363.32 295.479 370.287 290.777 378.283 288.906C393.202 285.652 408.837 291.646 421.074 300.48C440.769 314.691 454.566 338.42 450.616 361.795Z" fill="#F2F2F2"/>
<path d="M418.973 339.084C422.414 343.087 425.23 347.551 427.331 352.335C429.138 356.62 430.269 361.14 430.686 365.746C431.592 375.208 429.725 384.772 426.003 393.528C423.107 400.175 419.349 406.445 414.818 412.186C412.491 414.129 410.158 416.034 407.82 417.901C407.804 417.91 407.788 417.928 407.772 417.937C407.659 418.026 407.546 418.116 407.442 418.205C406.96 418.59 406.477 418.975 405.998 419.355L406.298 419.445L407.234 419.722C406.913 419.637 406.596 419.556 406.275 419.471C406.179 419.445 406.08 419.423 405.984 419.397C405.999 411.84 404.129 404.39 400.533 397.671C396.936 390.952 391.718 385.16 385.314 380.78C378.906 376.479 371.531 373.694 363.791 372.654C364.096 372.105 364.432 371.575 364.785 371.051C367.78 371.498 370.728 372.198 373.594 373.144C383.838 376.498 392.687 382.934 398.83 391.5C404.356 399.284 407.457 408.423 407.769 417.843C408.155 417.416 408.541 416.98 408.913 416.549C416.026 408.444 422.11 399.38 425.737 389.312C428.907 380.775 429.846 371.618 428.47 362.649C426.852 352.884 421.652 344.266 414.777 337.034C407.415 329.295 398.575 322.717 389.323 317.203C379.846 311.543 369.684 307.019 359.063 303.732C358.824 303.657 358.623 303.495 358.504 303.282C358.384 303.068 358.355 302.818 358.422 302.584C358.464 302.376 358.589 302.193 358.772 302.073C358.866 302.02 358.972 301.989 359.081 301.981C359.191 301.972 359.3 301.988 359.403 302.027C360.714 302.433 362.018 302.848 363.314 303.289C374.115 306.957 384.4 311.901 393.934 318.008C403.14 323.89 411.979 330.804 418.973 339.084Z" fill="white"/>
<path d="M231.131 292.135C230.069 292.133 229.047 291.743 228.272 291.045C227.498 290.346 227.028 289.39 226.959 288.371L226.337 279.247C226.264 278.181 226.635 277.131 227.367 276.328C228.1 275.525 229.134 275.035 230.242 274.965L304.58 270.284C305.752 270.209 306.928 270.358 308.041 270.721C309.153 271.083 310.18 271.653 311.064 272.398C311.947 273.143 312.669 274.047 313.189 275.06C313.708 276.073 314.015 277.175 314.092 278.302C314.169 279.429 314.014 280.56 313.636 281.629C313.258 282.699 312.665 283.687 311.89 284.536C311.116 285.385 310.174 286.078 309.121 286.578C308.067 287.077 306.921 287.371 305.749 287.445L231.411 292.126C231.317 292.131 231.224 292.134 231.131 292.135Z" fill="#6C63FF"/>
<path d="M245.789 293.311C244.706 293.309 243.666 292.905 242.886 292.182C242.106 291.459 241.648 290.475 241.606 289.434L241.076 275.806C241.056 275.278 241.144 274.751 241.335 274.255C241.526 273.759 241.817 273.304 242.191 272.917C242.565 272.529 243.015 272.216 243.515 271.996C244.015 271.775 244.555 271.652 245.105 271.632L306.235 269.435C307.345 269.395 308.426 269.781 309.24 270.507C310.054 271.234 310.535 272.241 310.576 273.309L311.106 286.937C311.126 287.465 311.038 287.992 310.847 288.488C310.656 288.984 310.365 289.438 309.991 289.826C309.617 290.214 309.167 290.527 308.667 290.747C308.167 290.968 307.627 291.091 307.077 291.111L245.947 293.308C245.894 293.31 245.841 293.311 245.789 293.311Z" fill="#2F2E41"/>
<path d="M317.424 418.935H307.915C306.805 418.934 305.74 418.51 304.955 417.755C304.17 417 303.729 415.976 303.728 414.909V338.7C303.729 337.633 304.17 336.609 304.955 335.854C305.74 335.099 306.805 334.675 307.915 334.673H317.424C318.534 334.675 319.599 335.099 320.384 335.854C321.169 336.609 321.61 337.633 321.612 338.7V414.909C321.61 415.976 321.169 417 320.384 417.755C319.599 418.51 318.534 418.934 317.424 418.935Z" fill="#2F2E41"/>
<path d="M275.218 378.652L267.086 373.913C266.138 373.358 265.456 372.465 265.192 371.428C264.928 370.391 265.102 369.295 265.676 368.382L306.756 303.211C307.333 302.298 308.262 301.643 309.34 301.389C310.419 301.135 311.558 301.302 312.508 301.854L320.64 306.594C321.588 307.149 322.27 308.042 322.534 309.079C322.798 310.116 322.624 311.211 322.05 312.125L280.97 377.296C280.393 378.208 279.464 378.864 278.386 379.118C277.307 379.372 276.168 379.205 275.218 378.652Z" fill="#2F2E41"/>
<path d="M302.982 255.142C321.128 255.142 335.838 240.996 335.838 223.547C335.838 206.097 321.128 191.952 302.982 191.952C284.835 191.952 270.125 206.097 270.125 223.547C270.125 240.996 284.835 255.142 302.982 255.142Z" fill="#6C63FF"/>
<path d="M285.197 234.334C284.14 234 283.169 233.453 282.351 232.728C281.809 232.211 281.391 231.586 281.126 230.897C280.862 230.207 280.757 229.471 280.819 228.739C280.854 228.217 281.013 227.711 281.285 227.258C281.557 226.805 281.934 226.419 282.386 226.13C283.561 225.405 285.133 225.403 286.733 226.081L286.672 213.747L287.961 213.741L288.032 228.241L287.039 227.641C285.888 226.946 284.244 226.456 283.082 227.173C282.795 227.363 282.557 227.613 282.387 227.905C282.217 228.197 282.12 228.523 282.102 228.858C282.059 229.403 282.138 229.951 282.334 230.464C282.531 230.977 282.84 231.444 283.241 231.832C284.664 233.139 286.739 233.547 289.107 233.913L288.902 235.136C287.645 234.976 286.404 234.707 285.197 234.334Z" fill="#2F2E41"/>
<path d="M273.39 213.124L273.222 214.353L280.102 215.226L280.27 213.998L273.39 213.124Z" fill="#2F2E41"/>
<path d="M295.106 215.881L294.938 217.109L301.817 217.983L301.986 216.755L295.106 215.881Z" fill="#2F2E41"/>
<path d="M330.418 359.147H275.012C273.56 359.145 272.168 358.59 271.142 357.603C270.115 356.616 269.538 355.277 269.536 353.881L281.135 268.349C281.145 266.959 281.725 265.63 282.751 264.65C283.777 263.671 285.163 263.122 286.609 263.123H306.271C314.125 263.132 321.654 266.135 327.208 271.476C332.761 276.816 335.885 284.056 335.894 291.608V353.881C335.892 355.277 335.315 356.616 334.288 357.603C333.261 358.59 331.87 359.145 330.418 359.147Z" fill="#2F2E41"/>
<path d="M316.466 354.588C316.129 355.294 315.587 355.892 314.905 356.31C314.223 356.727 313.43 356.946 312.622 356.94L303.113 356.861C302.563 356.856 302.02 356.747 301.513 356.541C301.007 356.334 300.548 356.034 300.163 355.656C299.777 355.279 299.473 354.833 299.267 354.343C299.061 353.852 298.957 353.328 298.962 352.799L299.608 281.165C299.618 280.036 299.86 278.92 300.318 277.88C300.777 276.841 301.444 275.899 302.282 275.107C303.119 274.316 304.111 273.69 305.199 273.267C306.288 272.844 307.453 272.632 308.627 272.641C309.801 272.651 310.962 272.883 312.043 273.324C313.124 273.766 314.104 274.407 314.927 275.212C315.75 276.018 316.4 276.971 316.84 278.018C317.28 279.065 317.501 280.185 317.491 281.314L316.845 352.948C316.841 353.514 316.712 354.073 316.466 354.588Z" fill="#6C63FF"/>
<path d="M320.667 335.464C320.33 336.171 319.788 336.769 319.105 337.186C318.423 337.603 317.63 337.822 316.822 337.816L300.581 337.681C299.471 337.67 298.41 337.237 297.632 336.475C296.854 335.714 296.421 334.687 296.43 333.619L296.96 274.798C296.965 274.269 297.078 273.746 297.293 273.259C297.508 272.772 297.82 272.331 298.212 271.96C298.605 271.59 299.069 271.297 299.579 271.099C300.089 270.901 300.634 270.801 301.184 270.806L317.425 270.941C317.975 270.946 318.518 271.054 319.025 271.261C319.531 271.468 319.99 271.768 320.375 272.145C320.761 272.522 321.065 272.969 321.271 273.459C321.477 273.949 321.581 274.474 321.576 275.003L321.046 333.825C321.041 334.391 320.912 334.95 320.667 335.464Z" fill="#2F2E41"/>
<path d="M303.596 204.808C299.204 201.313 293.333 204.618 288.366 204.149C283.613 203.7 279.789 199.679 278.746 195.351C277.53 190.303 280.166 185.174 284.137 181.94C288.485 178.398 294.324 177.297 299.888 177.836C306.265 178.454 312.14 181.199 317.429 184.553C322.533 187.688 327.242 191.38 331.463 195.555C335.245 199.422 338.477 204.054 339.583 209.329C340.589 214.124 339.999 219.468 337.122 223.598C335.595 225.716 333.526 227.419 331.115 228.544C328.602 229.788 325.914 230.693 323.483 232.092C319.809 234.208 316.282 238.519 317.533 242.915C317.801 243.875 318.311 244.758 319.018 245.484C319.867 246.356 321.343 245.156 320.492 244.282C318.997 242.746 319.014 240.66 319.757 238.78C320.643 236.661 322.252 234.894 324.319 233.768C326.863 232.307 329.685 231.383 332.296 230.046C334.796 228.824 336.952 227.038 338.58 224.842C341.652 220.568 342.487 215.064 341.671 210.001C340.788 204.522 337.755 199.584 333.993 195.468C329.899 190.989 324.904 187.226 319.811 183.856C314.346 180.24 308.328 177.208 301.714 176.193C295.981 175.313 289.8 176.032 284.863 179.117C280.254 181.997 276.773 186.87 276.524 192.249C276.444 194.695 277.044 197.118 278.262 199.268C279.479 201.417 281.271 203.216 283.451 204.479C285.688 205.711 288.27 206.236 290.833 205.982C293.575 205.763 296.307 204.904 299.074 205.078C300.325 205.128 301.526 205.569 302.493 206.334C303.453 207.098 304.548 205.565 303.596 204.808Z" fill="#2F2E41"/>
<path d="M264.961 369.483C264.973 369.413 264.987 369.343 265.002 369.274C265.117 368.756 265.337 368.266 265.65 367.831C265.963 367.396 266.363 367.025 266.826 366.739L274.817 361.783C275.75 361.206 276.884 361.008 277.969 361.233C279.055 361.458 280.003 362.088 280.606 362.984L305.255 399.734C305.857 400.631 306.064 401.722 305.829 402.766C305.595 403.81 304.939 404.721 304.006 405.3L296.015 410.256C295.081 410.834 293.948 411.032 292.862 410.807C291.777 410.581 290.829 409.952 290.226 409.055L265.576 372.306C265.013 371.471 264.794 370.465 264.961 369.483Z" fill="#2F2E41"/>
<path d="M235.035 127.287C234.421 125.886 233.393 124.688 232.078 123.842C230.764 122.996 229.22 122.54 227.638 122.529H80.003C77.8808 122.53 75.8459 123.341 74.3453 124.784C72.8447 126.227 72.0011 128.184 72 130.224V309.825C72.0011 311.866 72.8447 313.822 74.3453 315.265C75.8459 316.708 77.8808 317.52 80.003 317.521H227.644C229.765 317.518 231.799 316.706 233.3 315.264C234.8 313.821 235.644 311.865 235.647 309.825V130.224C235.65 129.216 235.444 128.218 235.04 127.287H235.035ZM233.864 309.825C233.862 311.412 233.206 312.934 232.039 314.056C230.872 315.178 229.289 315.81 227.639 315.812H80.003C78.3521 315.811 76.7689 315.181 75.6014 314.058C74.4339 312.936 73.7778 311.414 73.7772 309.826V130.226C73.7795 128.638 74.4361 127.117 75.6032 125.995C76.7703 124.872 78.3525 124.241 80.003 124.239H227.644C228.887 124.243 230.101 124.604 231.13 125.275C232.159 125.946 232.957 126.896 233.423 128.005C233.513 128.226 233.591 128.451 233.657 128.68C233.798 129.184 233.87 129.704 233.87 130.226L233.864 309.825Z" fill="#3F3D56"/>
<path d="M204.225 164.932H159.755C158.811 164.932 157.907 164.572 157.239 163.93C156.572 163.288 156.197 162.418 156.197 161.511C156.197 160.604 156.572 159.733 157.239 159.092C157.907 158.45 158.811 158.09 159.755 158.09H204.225C205.168 158.09 206.073 158.45 206.741 159.092C207.408 159.733 207.783 160.604 207.783 161.511C207.783 162.418 207.408 163.288 206.741 163.93C206.073 164.572 205.168 164.932 204.225 164.932Z" fill="#3F3D56"/>
<path d="M204.226 182.892H159.756C159.288 182.893 158.825 182.805 158.393 182.633C157.961 182.461 157.568 182.209 157.237 181.892C156.906 181.574 156.644 181.197 156.465 180.781C156.286 180.366 156.193 179.921 156.193 179.471C156.193 179.021 156.286 178.576 156.465 178.161C156.644 177.745 156.906 177.368 157.237 177.05C157.568 176.732 157.961 176.481 158.393 176.309C158.825 176.137 159.288 176.049 159.756 176.05H204.226C204.693 176.049 205.157 176.137 205.589 176.309C206.021 176.481 206.414 176.732 206.745 177.05C207.075 177.368 207.338 177.745 207.517 178.161C207.696 178.576 207.788 179.021 207.788 179.471C207.788 179.921 207.696 180.366 207.517 180.781C207.338 181.197 207.075 181.574 206.745 181.892C206.414 182.209 206.021 182.461 205.589 182.633C205.157 182.805 204.693 182.893 204.226 182.892Z" fill="#3F3D56"/>
<path d="M136.938 193.119H104.44C103.379 193.118 102.361 192.712 101.611 191.99C100.861 191.269 100.439 190.29 100.438 189.27V152.392C100.439 151.371 100.861 150.393 101.611 149.671C102.361 148.95 103.379 148.544 104.44 148.543H136.938C138 148.544 139.017 148.95 139.767 149.671C140.518 150.393 140.94 151.371 140.941 152.392V189.27C140.94 190.29 140.518 191.269 139.767 191.99C139.017 192.712 138 193.118 136.938 193.119Z" fill="#6C63FF"/>
<path d="M203.917 219.668H103.415C102.472 219.668 101.567 219.307 100.899 218.666C100.232 218.024 99.8574 217.154 99.8574 216.247C99.8574 215.339 100.232 214.469 100.899 213.828C101.567 213.186 102.472 212.826 103.415 212.826H203.917C204.86 212.826 205.765 213.186 206.433 213.828C207.1 214.469 207.475 215.339 207.475 216.247C207.475 217.154 207.1 218.024 206.433 218.666C205.765 219.307 204.86 219.668 203.917 219.668Z" fill="#CCCCCC"/>
<path d="M203.917 237.628H103.415C102.472 237.628 101.567 237.267 100.899 236.626C100.232 235.984 99.8574 235.114 99.8574 234.207C99.8574 233.299 100.232 232.429 100.899 231.788C101.567 231.146 102.472 230.786 103.415 230.786H203.917C204.86 230.786 205.765 231.146 206.433 231.788C207.1 232.429 207.475 233.299 207.475 234.207C207.475 235.114 207.1 235.984 206.433 236.626C205.765 237.267 204.86 237.628 203.917 237.628Z" fill="#CCCCCC"/>
<path d="M203.917 255.588H103.415C102.473 255.587 101.569 255.226 100.903 254.584C100.236 253.943 99.8623 253.073 99.8623 252.167C99.8623 251.26 100.236 250.391 100.903 249.749C101.569 249.108 102.473 248.747 103.415 248.746H203.917C204.385 248.745 204.848 248.833 205.28 249.005C205.712 249.176 206.105 249.428 206.436 249.746C206.767 250.064 207.029 250.441 207.208 250.856C207.387 251.272 207.48 251.717 207.48 252.167C207.48 252.616 207.387 253.062 207.208 253.477C207.029 253.892 206.767 254.27 206.436 254.587C206.105 254.905 205.712 255.157 205.28 255.329C204.848 255.5 204.385 255.588 203.917 255.588Z" fill="#CCCCCC"/>
<path d="M203.917 273.548H103.415C102.472 273.548 101.567 273.187 100.899 272.546C100.232 271.904 99.8574 271.034 99.8574 270.127C99.8574 269.219 100.232 268.349 100.899 267.708C101.567 267.066 102.472 266.706 103.415 266.706H203.917C204.86 266.706 205.765 267.066 206.433 267.708C207.1 268.349 207.475 269.219 207.475 270.127C207.475 271.034 207.1 271.904 206.433 272.546C205.765 273.187 204.86 273.548 203.917 273.548Z" fill="#CCCCCC"/>
<path d="M203.917 291.508H103.415C102.472 291.508 101.567 291.147 100.899 290.506C100.232 289.864 99.8574 288.994 99.8574 288.087C99.8574 287.179 100.232 286.309 100.899 285.668C101.567 285.026 102.472 284.666 103.415 284.666H203.917C204.86 284.666 205.765 285.026 206.433 285.668C207.1 286.309 207.475 287.179 207.475 288.087C207.475 288.994 207.1 289.864 206.433 290.506C205.765 291.147 204.86 291.508 203.917 291.508Z" fill="#CCCCCC"/>
<path d="M236.139 157.032C255.101 157.032 270.473 142.25 270.473 124.016C270.473 105.782 255.101 91 236.139 91C217.177 91 201.805 105.782 201.805 124.016C201.805 142.25 217.177 157.032 236.139 157.032Z" fill="#6C63FF"/>
<path d="M232.736 136.61C231.963 136.611 231.211 136.371 230.594 135.925L230.555 135.898L222.486 129.962C222.112 129.687 221.799 129.343 221.563 128.951C221.328 128.559 221.175 128.126 221.113 127.677C221.051 127.228 221.082 126.772 221.204 126.335C221.326 125.897 221.536 125.487 221.822 125.128C222.109 124.769 222.466 124.467 222.874 124.24C223.281 124.014 223.731 123.867 224.198 123.807C224.665 123.748 225.14 123.778 225.594 123.895C226.049 124.012 226.476 124.214 226.85 124.489L232.076 128.343L244.426 112.85C244.713 112.49 245.07 112.189 245.478 111.963C245.885 111.736 246.335 111.589 246.802 111.53C247.268 111.47 247.742 111.5 248.197 111.617C248.652 111.734 249.078 111.936 249.452 112.211L249.453 112.212L249.376 112.314L249.455 112.212C250.208 112.769 250.702 113.591 250.826 114.497C250.95 115.403 250.696 116.32 250.118 117.045L235.591 135.261C235.255 135.681 234.823 136.021 234.328 136.254C233.834 136.487 233.29 136.608 232.739 136.606L232.736 136.61Z" fill="white"/>
<path d="M453.365 420H219.771C219.603 420 219.442 419.936 219.323 419.821C219.204 419.707 219.137 419.552 219.137 419.39C219.137 419.228 219.204 419.073 219.323 418.958C219.442 418.844 219.603 418.779 219.771 418.779H453.365C453.533 418.779 453.695 418.844 453.814 418.958C453.933 419.073 454 419.228 454 419.39C454 419.552 453.933 419.707 453.814 419.821C453.695 419.936 453.533 420 453.365 420Z" fill="#3F3D56"/>
</g>
<path d="M124.916 583.856V606H122.004V589.488L114.644 606H112.596L105.204 589.456V606H102.292V583.856H105.428L113.62 602.16L121.812 583.856H124.916ZM128.767 597.168C128.767 595.376 129.129 593.808 129.855 592.464C130.58 591.099 131.572 590.043 132.831 589.296C134.111 588.549 135.529 588.176 137.087 588.176C138.623 588.176 139.956 588.507 141.087 589.168C142.217 589.829 143.06 590.661 143.615 591.664V588.464H146.559V606H143.615V602.736C143.039 603.76 142.175 604.613 141.023 605.296C139.892 605.957 138.569 606.288 137.055 606.288C135.497 606.288 134.089 605.904 132.831 605.136C131.572 604.368 130.58 603.291 129.855 601.904C129.129 600.517 128.767 598.939 128.767 597.168ZM143.615 597.2C143.615 595.877 143.348 594.725 142.815 593.744C142.281 592.763 141.556 592.016 140.639 591.504C139.743 590.971 138.751 590.704 137.663 590.704C136.575 590.704 135.583 590.96 134.687 591.472C133.791 591.984 133.076 592.731 132.543 593.712C132.009 594.693 131.743 595.845 131.743 597.168C131.743 598.512 132.009 599.685 132.543 600.688C133.076 601.669 133.791 602.427 134.687 602.96C135.583 603.472 136.575 603.728 137.663 603.728C138.751 603.728 139.743 603.472 140.639 602.96C141.556 602.427 142.281 601.669 142.815 600.688C143.348 599.685 143.615 598.523 143.615 597.2ZM161.272 606L154.392 598.256V606H151.48V582.32H154.392V596.24L161.144 588.464H165.208L156.952 597.2L165.24 606H161.272ZM183.948 596.56C183.948 597.115 183.916 597.701 183.852 598.32H169.836C169.943 600.048 170.53 601.403 171.596 602.384C172.684 603.344 173.996 603.824 175.532 603.824C176.791 603.824 177.836 603.536 178.668 602.96C179.522 602.363 180.119 601.573 180.46 600.592H183.596C183.127 602.277 182.188 603.653 180.78 604.72C179.372 605.765 177.623 606.288 175.532 606.288C173.868 606.288 172.375 605.915 171.052 605.168C169.751 604.421 168.727 603.365 167.98 602C167.234 600.613 166.86 599.013 166.86 597.2C166.86 595.387 167.223 593.797 167.948 592.432C168.674 591.067 169.687 590.021 170.988 589.296C172.311 588.549 173.826 588.176 175.532 588.176C177.196 588.176 178.668 588.539 179.948 589.264C181.228 589.989 182.21 590.992 182.892 592.272C183.596 593.531 183.948 594.96 183.948 596.56ZM180.94 595.952C180.94 594.843 180.695 593.893 180.204 593.104C179.714 592.293 179.042 591.685 178.188 591.28C177.356 590.853 176.428 590.64 175.404 590.64C173.932 590.64 172.674 591.109 171.628 592.048C170.604 592.987 170.018 594.288 169.868 595.952H180.94ZM199.875 590.864V601.2C199.875 602.053 200.057 602.661 200.419 603.024C200.782 603.365 201.411 603.536 202.307 603.536H204.451V606H201.827C200.206 606 198.99 605.627 198.179 604.88C197.369 604.133 196.963 602.907 196.963 601.2V590.864H194.691V588.464H196.963V584.048H199.875V588.464H204.451V590.864H199.875ZM216.684 588.144C218.006 588.144 219.201 588.432 220.268 589.008C221.334 589.563 222.166 590.405 222.764 591.536C223.382 592.667 223.692 594.043 223.692 595.664V606H220.812V596.08C220.812 594.331 220.374 592.997 219.5 592.08C218.625 591.141 217.43 590.672 215.916 590.672C214.38 590.672 213.153 591.152 212.236 592.112C211.34 593.072 210.892 594.469 210.892 596.304V606H207.98V582.32H210.892V590.96C211.468 590.064 212.257 589.371 213.26 588.88C214.284 588.389 215.425 588.144 216.684 588.144ZM244.448 596.56C244.448 597.115 244.416 597.701 244.352 598.32H230.336C230.443 600.048 231.03 601.403 232.096 602.384C233.184 603.344 234.496 603.824 236.032 603.824C237.291 603.824 238.336 603.536 239.168 602.96C240.022 602.363 240.619 601.573 240.96 600.592H244.096C243.627 602.277 242.688 603.653 241.28 604.72C239.872 605.765 238.123 606.288 236.032 606.288C234.368 606.288 232.875 605.915 231.552 605.168C230.251 604.421 229.227 603.365 228.48 602C227.734 600.613 227.36 599.013 227.36 597.2C227.36 595.387 227.723 593.797 228.448 592.432C229.174 591.067 230.187 590.021 231.488 589.296C232.811 588.549 234.326 588.176 236.032 588.176C237.696 588.176 239.168 588.539 240.448 589.264C241.728 589.989 242.71 590.992 243.392 592.272C244.096 593.531 244.448 594.96 244.448 596.56ZM241.44 595.952C241.44 594.843 241.195 593.893 240.704 593.104C240.214 592.293 239.542 591.685 238.688 591.28C237.856 590.853 236.928 590.64 235.904 590.64C234.432 590.64 233.174 591.109 232.128 592.048C231.104 592.987 230.518 594.288 230.368 595.952H241.44ZM272.375 588.464V606H269.463V603.408C268.909 604.304 268.13 605.008 267.127 605.52C266.146 606.011 265.058 606.256 263.863 606.256C262.498 606.256 261.271 605.979 260.183 605.424C259.095 604.848 258.231 603.995 257.591 602.864C256.973 601.733 256.663 600.357 256.663 598.736V588.464H259.543V598.352C259.543 600.08 259.981 601.413 260.855 602.352C261.73 603.269 262.925 603.728 264.439 603.728C265.997 603.728 267.223 603.248 268.119 602.288C269.015 601.328 269.463 599.931 269.463 598.096V588.464H272.375ZM283.5 606.288C282.156 606.288 280.951 606.064 279.884 605.616C278.817 605.147 277.975 604.507 277.356 603.696C276.737 602.864 276.396 601.915 276.332 600.848H279.34C279.425 601.723 279.831 602.437 280.556 602.992C281.303 603.547 282.273 603.824 283.468 603.824C284.577 603.824 285.452 603.579 286.092 603.088C286.732 602.597 287.052 601.979 287.052 601.232C287.052 600.464 286.711 599.899 286.028 599.536C285.345 599.152 284.289 598.779 282.86 598.416C281.559 598.075 280.492 597.733 279.66 597.392C278.849 597.029 278.145 596.507 277.548 595.824C276.972 595.12 276.684 594.203 276.684 593.072C276.684 592.176 276.951 591.355 277.484 590.608C278.017 589.861 278.775 589.275 279.756 588.848C280.737 588.4 281.857 588.176 283.116 588.176C285.057 588.176 286.625 588.667 287.82 589.648C289.015 590.629 289.655 591.973 289.74 593.68H286.828C286.764 592.763 286.391 592.027 285.708 591.472C285.047 590.917 284.151 590.64 283.02 590.64C281.975 590.64 281.143 590.864 280.524 591.312C279.905 591.76 279.596 592.347 279.596 593.072C279.596 593.648 279.777 594.128 280.14 594.512C280.524 594.875 280.993 595.173 281.548 595.408C282.124 595.621 282.913 595.867 283.916 596.144C285.175 596.485 286.199 596.827 286.988 597.168C287.777 597.488 288.449 597.979 289.004 598.64C289.58 599.301 289.879 600.165 289.9 601.232C289.9 602.192 289.633 603.056 289.1 603.824C288.567 604.592 287.809 605.2 286.828 605.648C285.868 606.075 284.759 606.288 283.5 606.288ZM310.011 596.56C310.011 597.115 309.979 597.701 309.915 598.32H295.899C296.006 600.048 296.592 601.403 297.659 602.384C298.747 603.344 300.059 603.824 301.595 603.824C302.854 603.824 303.899 603.536 304.731 602.96C305.584 602.363 306.182 601.573 306.523 600.592H309.659C309.19 602.277 308.251 603.653 306.843 604.72C305.435 605.765 303.686 606.288 301.595 606.288C299.931 606.288 298.438 605.915 297.115 605.168C295.814 604.421 294.79 603.365 294.043 602C293.296 600.613 292.923 599.013 292.923 597.2C292.923 595.387 293.286 593.797 294.011 592.432C294.736 591.067 295.75 590.021 297.051 589.296C298.374 588.549 299.888 588.176 301.595 588.176C303.259 588.176 304.731 588.539 306.011 589.264C307.291 589.989 308.272 590.992 308.955 592.272C309.659 593.531 310.011 594.96 310.011 596.56ZM307.003 595.952C307.003 594.843 306.758 593.893 306.267 593.104C305.776 592.293 305.104 591.685 304.251 591.28C303.419 590.853 302.491 590.64 301.467 590.64C299.995 590.64 298.736 591.109 297.691 592.048C296.667 592.987 296.08 594.288 295.931 595.952H307.003ZM316.767 591.312C317.279 590.309 318.004 589.531 318.943 588.976C319.903 588.421 321.065 588.144 322.431 588.144V591.152H321.663C318.399 591.152 316.767 592.923 316.767 596.464V606H313.855V588.464H316.767V591.312ZM333.235 597.168C333.235 595.376 333.598 593.808 334.323 592.464C335.049 591.099 336.041 590.043 337.299 589.296C338.579 588.549 339.998 588.176 341.555 588.176C343.091 588.176 344.425 588.507 345.555 589.168C346.686 589.829 347.529 590.661 348.083 591.664V588.464H351.027V606H348.083V602.736C347.507 603.76 346.643 604.613 345.491 605.296C344.361 605.957 343.038 606.288 341.523 606.288C339.966 606.288 338.558 605.904 337.299 605.136C336.041 604.368 335.049 603.291 334.323 601.904C333.598 600.517 333.235 598.939 333.235 597.168ZM348.083 597.2C348.083 595.877 347.817 594.725 347.283 593.744C346.75 592.763 346.025 592.016 345.107 591.504C344.211 590.971 343.219 590.704 342.131 590.704C341.043 590.704 340.051 590.96 339.155 591.472C338.259 591.984 337.545 592.731 337.011 593.712C336.478 594.693 336.211 595.845 336.211 597.168C336.211 598.512 336.478 599.685 337.011 600.688C337.545 601.669 338.259 602.427 339.155 602.96C340.051 603.472 341.043 603.728 342.131 603.728C343.219 603.728 344.211 603.472 345.107 602.96C346.025 602.427 346.75 601.669 347.283 600.688C347.817 599.685 348.083 598.523 348.083 597.2ZM371.424 583.696C373.856 583.696 375.957 584.155 377.728 585.072C379.52 585.968 380.885 587.259 381.824 588.944C382.784 590.629 383.264 592.613 383.264 594.896C383.264 597.179 382.784 599.163 381.824 600.848C380.885 602.512 379.52 603.792 377.728 604.688C375.957 605.563 373.856 606 371.424 606H364.48V583.696H371.424ZM371.424 603.6C374.304 603.6 376.501 602.843 378.016 601.328C379.53 599.792 380.288 597.648 380.288 594.896C380.288 592.123 379.52 589.957 377.984 588.4C376.469 586.843 374.282 586.064 371.424 586.064H367.392V603.6H371.424ZM390.017 591.312C390.529 590.309 391.254 589.531 392.193 588.976C393.153 588.421 394.315 588.144 395.681 588.144V591.152H394.913C391.649 591.152 390.017 592.923 390.017 596.464V606H387.105V588.464H390.017V591.312ZM400.546 585.616C399.991 585.616 399.522 585.424 399.138 585.04C398.754 584.656 398.562 584.187 398.562 583.632C398.562 583.077 398.754 582.608 399.138 582.224C399.522 581.84 399.991 581.648 400.546 581.648C401.079 581.648 401.527 581.84 401.89 582.224C402.274 582.608 402.466 583.077 402.466 583.632C402.466 584.187 402.274 584.656 401.89 585.04C401.527 585.424 401.079 585.616 400.546 585.616ZM401.954 588.464V606H399.042V588.464H401.954ZM413.445 603.312L418.885 588.464H421.989L415.109 606H411.717L404.837 588.464H407.973L413.445 603.312ZM440.855 596.56C440.855 597.115 440.823 597.701 440.759 598.32H426.743C426.849 600.048 427.436 601.403 428.503 602.384C429.591 603.344 430.903 603.824 432.439 603.824C433.697 603.824 434.743 603.536 435.575 602.96C436.428 602.363 437.025 601.573 437.367 600.592H440.503C440.033 602.277 439.095 603.653 437.687 604.72C436.279 605.765 434.529 606.288 432.439 606.288C430.775 606.288 429.281 605.915 427.959 605.168C426.657 604.421 425.633 603.365 424.887 602C424.14 600.613 423.767 599.013 423.767 597.2C423.767 595.387 424.129 593.797 424.855 592.432C425.58 591.067 426.593 590.021 427.895 589.296C429.217 588.549 430.732 588.176 432.439 588.176C434.103 588.176 435.575 588.539 436.855 589.264C438.135 589.989 439.116 590.992 439.799 592.272C440.503 593.531 440.855 594.96 440.855 596.56ZM437.847 595.952C437.847 594.843 437.601 593.893 437.111 593.104C436.62 592.293 435.948 591.685 435.095 591.28C434.263 590.853 433.335 590.64 432.311 590.64C430.839 590.64 429.58 591.109 428.535 592.048C427.511 592.987 426.924 594.288 426.775 595.952H437.847ZM447.61 591.312C448.122 590.309 448.848 589.531 449.786 588.976C450.746 588.421 451.909 588.144 453.274 588.144V591.152H452.506C449.242 591.152 447.61 592.923 447.61 596.464V606H444.698V588.464H447.61V591.312Z" fill="white"/>
<defs>
<clipPath id="clip0_392_195">
<rect width="382" height="329" fill="white" transform="translate(72 91)"/>
</clipPath>
</defs>
</svg>
