<svg width="531" height="646" viewBox="0 0 531 646" fill="none" xmlns="http://www.w3.org/2000/svg">
<path d="M320.25 33.2441C358.006 47.6925 393.188 65.6385 424.065 91.5153C456.608 118.789 486.835 148.873 504.183 187.393C523.059 229.304 538.302 276.16 527.296 320.726C516.264 365.396 477.934 396.866 444.541 428.895C411.902 460.203 378.333 491.895 334.901 505.267C290.91 518.812 243.054 517.91 199.025 504.488C156.084 491.397 118.762 464.364 89.686 430.512C62.0891 398.382 52.5221 356.835 38.1336 317.166C22.7122 274.649 -8.18965 232.868 2.03062 188.847C12.2642 144.769 58.737 120.615 91.1747 88.7061C123.119 57.2832 147.68 13.1058 191.463 2.50537C235.101 -8.05995 278.354 17.2117 320.25 33.2441Z" fill="white"/>
<g clip-path="url(#clip0_465_316)">
<path d="M450.616 361.795C447.142 382.355 431.486 398.274 414.819 412.186C412.492 414.129 410.159 416.034 407.821 417.901C407.804 417.91 407.789 417.928 407.772 417.937C407.66 418.026 407.547 418.116 407.443 418.205C406.96 418.59 406.477 418.975 405.998 419.355L406.299 419.445L407.234 419.722C406.913 419.637 406.596 419.556 406.275 419.471C406.18 419.445 406.08 419.423 405.984 419.397C394.934 416.526 383.658 413.376 374.624 406.652C365.252 399.667 358.797 387.761 362.03 376.79C362.455 375.353 363.046 373.965 363.792 372.654C364.096 372.105 364.432 371.575 364.785 371.051C366.921 367.825 369.912 365.204 373.451 363.458C376.989 361.711 380.948 360.903 384.919 361.115C388.89 361.328 392.731 362.554 396.046 364.666C399.361 366.779 402.031 369.703 403.782 373.138C403.624 361.05 392.142 352.235 381.372 345.996C370.599 339.762 358.401 333.027 355.014 321.379C353.125 314.898 354.714 308.224 358.422 302.584C358.537 302.413 358.652 302.241 358.772 302.073C363.32 295.479 370.287 290.777 378.283 288.906C393.202 285.652 408.837 291.646 421.074 300.48C440.769 314.691 454.566 338.42 450.616 361.795Z" fill="#F2F2F2"/>
<path d="M418.973 339.084C422.414 343.087 425.23 347.551 427.331 352.335C429.138 356.62 430.269 361.14 430.686 365.746C431.592 375.208 429.725 384.772 426.003 393.528C423.107 400.175 419.349 406.445 414.818 412.186C412.491 414.129 410.158 416.034 407.82 417.901C407.804 417.91 407.788 417.928 407.772 417.937C407.659 418.026 407.546 418.116 407.442 418.205C406.96 418.59 406.477 418.975 405.998 419.355L406.298 419.445L407.234 419.722C406.913 419.637 406.596 419.556 406.275 419.471C406.179 419.445 406.08 419.423 405.984 419.397C405.999 411.84 404.129 404.39 400.533 397.671C396.936 390.952 391.718 385.16 385.314 380.78C378.906 376.479 371.531 373.694 363.791 372.654C364.096 372.105 364.432 371.575 364.785 371.051C367.78 371.498 370.728 372.198 373.594 373.144C383.838 376.498 392.687 382.934 398.83 391.5C404.356 399.284 407.457 408.423 407.769 417.843C408.155 417.416 408.541 416.98 408.913 416.549C416.026 408.444 422.11 399.38 425.737 389.312C428.907 380.775 429.846 371.618 428.47 362.649C426.852 352.884 421.652 344.266 414.777 337.034C407.415 329.295 398.575 322.717 389.323 317.203C379.846 311.543 369.684 307.019 359.063 303.732C358.824 303.657 358.623 303.495 358.504 303.282C358.384 303.068 358.355 302.818 358.422 302.584C358.464 302.376 358.589 302.193 358.772 302.073C358.866 302.02 358.972 301.989 359.081 301.981C359.191 301.972 359.3 301.988 359.403 302.027C360.714 302.433 362.018 302.848 363.314 303.289C374.115 306.957 384.4 311.901 393.934 318.008C403.14 323.89 411.979 330.804 418.973 339.084Z" fill="white"/>
<path d="M231.131 292.135C230.069 292.133 229.047 291.744 228.272 291.045C227.498 290.346 227.028 289.391 226.959 288.371L226.337 279.247C226.264 278.181 226.635 277.132 227.367 276.329C228.1 275.526 229.134 275.036 230.242 274.966L304.58 270.284C305.752 270.21 306.928 270.358 308.041 270.721C309.153 271.084 310.18 271.654 311.064 272.398C311.947 273.143 312.669 274.048 313.189 275.061C313.708 276.074 314.015 277.175 314.092 278.303C314.169 279.43 314.014 280.56 313.636 281.63C313.258 282.699 312.665 283.687 311.89 284.536C311.116 285.385 310.174 286.079 309.121 286.578C308.067 287.077 306.921 287.372 305.749 287.445L231.411 292.126C231.317 292.132 231.224 292.135 231.131 292.135Z" fill="#6C63FF"/>
<path d="M245.789 293.311C244.706 293.31 243.666 292.905 242.887 292.182C242.107 291.46 241.648 290.475 241.606 289.435L241.077 275.807C241.056 275.278 241.144 274.751 241.335 274.255C241.527 273.759 241.818 273.305 242.192 272.917C242.566 272.53 243.016 272.217 243.516 271.996C244.015 271.776 244.556 271.652 245.105 271.632L306.235 269.435C307.345 269.396 308.426 269.781 309.24 270.508C310.054 271.234 310.535 272.242 310.577 273.309L311.106 286.937C311.127 287.466 311.039 287.993 310.848 288.489C310.656 288.984 310.365 289.439 309.991 289.827C309.617 290.214 309.167 290.527 308.667 290.748C308.168 290.968 307.627 291.092 307.078 291.111L245.948 293.308C245.895 293.31 245.842 293.311 245.789 293.311Z" fill="#2F2E41"/>
<path d="M317.424 418.936H307.915C306.805 418.935 305.74 418.51 304.955 417.755C304.17 417 303.729 415.977 303.728 414.909V338.701C303.729 337.633 304.17 336.61 304.955 335.855C305.74 335.1 306.805 334.675 307.915 334.674H317.424C318.534 334.675 319.599 335.1 320.384 335.855C321.169 336.61 321.61 337.633 321.612 338.701V414.909C321.61 415.977 321.169 417 320.384 417.755C319.599 418.51 318.534 418.935 317.424 418.936Z" fill="#2F2E41"/>
<path d="M275.218 378.653L267.086 373.913C266.137 373.359 265.456 372.465 265.191 371.428C264.927 370.391 265.101 369.296 265.676 368.382L306.756 303.211C307.332 302.299 308.262 301.644 309.34 301.389C310.418 301.135 311.557 301.303 312.507 301.855L320.639 306.595C321.588 307.149 322.269 308.043 322.534 309.08C322.798 310.116 322.624 311.212 322.049 312.125L280.969 377.297C280.393 378.209 279.463 378.864 278.385 379.118C277.307 379.373 276.168 379.205 275.218 378.653Z" fill="#2F2E41"/>
<path d="M302.982 255.142C321.128 255.142 335.839 240.997 335.839 223.547C335.839 206.098 321.128 191.952 302.982 191.952C284.836 191.952 270.125 206.098 270.125 223.547C270.125 240.997 284.836 255.142 302.982 255.142Z" fill="#6C63FF"/>
<path d="M285.197 234.334C284.14 234 283.17 233.453 282.352 232.728C281.809 232.211 281.391 231.586 281.127 230.897C280.862 230.207 280.757 229.471 280.82 228.739C280.854 228.217 281.014 227.711 281.285 227.258C281.557 226.805 281.934 226.419 282.387 226.13C283.562 225.405 285.133 225.403 286.733 226.081L286.673 213.747L287.961 213.741L288.033 228.241L287.04 227.641C285.889 226.946 284.245 226.456 283.083 227.173C282.796 227.363 282.558 227.613 282.388 227.905C282.218 228.197 282.12 228.523 282.103 228.858C282.059 229.403 282.138 229.951 282.335 230.464C282.531 230.977 282.841 231.444 283.241 231.832C284.664 233.139 286.74 233.547 289.107 233.913L288.903 235.136C287.645 234.976 286.405 234.707 285.197 234.334Z" fill="#2F2E41"/>
<path d="M273.39 213.124L273.222 214.353L280.102 215.226L280.27 213.998L273.39 213.124Z" fill="#2F2E41"/>
<path d="M295.107 215.881L294.938 217.109L301.818 217.983L301.987 216.755L295.107 215.881Z" fill="#2F2E41"/>
<path d="M330.418 359.147H275.012C273.56 359.145 272.168 358.59 271.142 357.603C270.115 356.616 269.538 355.277 269.536 353.881L281.135 268.349C281.145 266.959 281.725 265.63 282.751 264.65C283.777 263.671 285.163 263.122 286.609 263.123H306.271C314.125 263.132 321.654 266.135 327.208 271.476C332.761 276.816 335.885 284.056 335.894 291.608V353.881C335.892 355.277 335.315 356.616 334.288 357.603C333.261 358.59 331.87 359.145 330.418 359.147Z" fill="#2F2E41"/>
<path d="M316.466 354.587C316.129 355.294 315.587 355.892 314.905 356.309C314.223 356.726 313.43 356.945 312.621 356.939L303.113 356.86C302.563 356.855 302.019 356.747 301.513 356.54C301.007 356.334 300.548 356.033 300.162 355.656C299.777 355.279 299.472 354.832 299.266 354.342C299.06 353.852 298.957 353.327 298.962 352.798L299.608 281.165C299.618 280.035 299.859 278.919 300.318 277.88C300.777 276.84 301.444 275.898 302.281 275.107C303.119 274.315 304.11 273.69 305.199 273.267C306.288 272.844 307.452 272.631 308.627 272.641C309.801 272.651 310.961 272.883 312.042 273.324C313.123 273.765 314.103 274.407 314.926 275.212C315.749 276.017 316.4 276.971 316.839 278.018C317.279 279.065 317.501 280.184 317.49 281.314L316.845 352.948C316.84 353.514 316.711 354.072 316.466 354.587Z" fill="#6C63FF"/>
<path d="M320.667 335.464C320.33 336.171 319.788 336.769 319.105 337.186C318.423 337.603 317.63 337.822 316.822 337.816L300.581 337.681C299.471 337.67 298.41 337.237 297.632 336.475C296.854 335.714 296.421 334.687 296.43 333.619L296.96 274.798C296.965 274.269 297.078 273.746 297.293 273.259C297.508 272.772 297.82 272.331 298.212 271.96C298.605 271.59 299.069 271.297 299.579 271.099C300.089 270.901 300.634 270.801 301.184 270.806L317.425 270.941C317.975 270.946 318.518 271.054 319.025 271.261C319.531 271.468 319.99 271.768 320.375 272.145C320.761 272.522 321.065 272.969 321.271 273.459C321.477 273.949 321.581 274.474 321.576 275.003L321.046 333.825C321.041 334.391 320.912 334.95 320.667 335.464Z" fill="#2F2E41"/>
<path d="M303.596 204.807C299.204 201.312 293.333 204.618 288.366 204.149C283.613 203.7 279.789 199.678 278.746 195.351C277.53 190.302 280.166 185.174 284.137 181.939C288.485 178.397 294.324 177.296 299.888 177.835C306.265 178.453 312.14 181.199 317.429 184.553C322.533 187.687 327.242 191.379 331.463 195.555C335.245 199.421 338.477 204.053 339.583 209.329C340.589 214.124 339.999 219.468 337.122 223.597C335.595 225.715 333.526 227.419 331.115 228.544C328.602 229.787 325.914 230.693 323.483 232.092C319.809 234.207 316.282 238.518 317.533 242.914C317.801 243.875 318.311 244.757 319.018 245.484C319.867 246.356 321.343 245.156 320.492 244.281C318.997 242.745 319.014 240.66 319.757 238.78C320.643 236.66 322.252 234.893 324.319 233.768C326.863 232.307 329.685 231.382 332.296 230.046C334.796 228.823 336.952 227.038 338.58 224.842C341.652 220.568 342.487 215.063 341.671 210C340.788 204.521 337.755 199.583 333.993 195.468C329.899 190.989 324.904 187.225 319.811 183.855C314.346 180.239 308.328 177.208 301.714 176.192C295.981 175.312 289.8 176.032 284.863 179.117C280.254 181.997 276.773 186.87 276.524 192.248C276.444 194.695 277.044 197.118 278.262 199.267C279.479 201.417 281.271 203.215 283.451 204.478C285.688 205.71 288.27 206.236 290.833 205.981C293.575 205.762 296.307 204.904 299.074 205.078C300.325 205.128 301.526 205.569 302.493 206.334C303.453 207.098 304.548 205.565 303.596 204.807Z" fill="#2F2E41"/>
<path d="M264.961 369.483C264.973 369.413 264.987 369.343 265.003 369.273C265.117 368.756 265.337 368.265 265.65 367.83C265.964 367.395 266.363 367.024 266.826 366.739L274.817 361.783C275.751 361.205 276.885 361.007 277.97 361.232C279.055 361.458 280.003 362.087 280.606 362.984L305.256 399.733C305.858 400.631 306.064 401.721 305.83 402.765C305.596 403.809 304.94 404.721 304.006 405.3L296.016 410.256C295.082 410.833 293.948 411.031 292.863 410.806C291.778 410.581 290.829 409.951 290.227 409.055L265.577 372.305C265.014 371.471 264.794 370.464 264.961 369.483Z" fill="#2F2E41"/>
<path d="M235.035 127.288C234.421 125.886 233.393 124.688 232.078 123.842C230.764 122.997 229.22 122.54 227.638 122.529H80.003C77.8808 122.53 75.8459 123.342 74.3453 124.785C72.8447 126.227 72.0011 128.184 72 130.225V309.826C72.0011 311.866 72.8447 313.823 74.3453 315.266C75.8459 316.709 77.8808 317.52 80.003 317.521H227.644C229.765 317.519 231.799 316.707 233.3 315.264C234.8 313.822 235.644 311.866 235.647 309.826V130.225C235.65 129.217 235.444 128.218 235.04 127.288H235.035ZM233.864 309.826C233.862 311.413 233.206 312.934 232.039 314.057C230.872 315.179 229.289 315.81 227.639 315.812H80.003C78.3521 315.812 76.7689 315.181 75.6014 314.059C74.4339 312.936 73.7778 311.414 73.7772 309.827V130.226C73.7795 128.639 74.4361 127.117 75.6032 125.995C76.7703 124.873 78.3525 124.241 80.003 124.239H227.644C228.887 124.244 230.101 124.605 231.13 125.275C232.159 125.946 232.957 126.896 233.423 128.005C233.513 128.226 233.591 128.452 233.657 128.681C233.798 129.185 233.87 129.704 233.87 130.226L233.864 309.826Z" fill="#3F3D56"/>
<path d="M204.225 164.932H159.756C158.812 164.932 157.907 164.572 157.24 163.93C156.573 163.288 156.198 162.418 156.198 161.511C156.198 160.604 156.573 159.733 157.24 159.092C157.907 158.45 158.812 158.09 159.756 158.09H204.225C205.169 158.09 206.074 158.45 206.741 159.092C207.408 159.733 207.783 160.604 207.783 161.511C207.783 162.418 207.408 163.288 206.741 163.93C206.074 164.572 205.169 164.932 204.225 164.932Z" fill="#3F3D56"/>
<path d="M204.225 182.892H159.755C159.288 182.893 158.825 182.805 158.392 182.633C157.96 182.461 157.567 182.209 157.237 181.892C156.906 181.574 156.643 181.197 156.464 180.781C156.285 180.366 156.193 179.921 156.193 179.471C156.193 179.021 156.285 178.576 156.464 178.161C156.643 177.745 156.906 177.368 157.237 177.05C157.567 176.732 157.96 176.481 158.392 176.309C158.825 176.137 159.288 176.049 159.755 176.05H204.225C204.693 176.049 205.156 176.137 205.588 176.309C206.02 176.481 206.413 176.732 206.744 177.05C207.075 177.368 207.337 177.745 207.516 178.161C207.696 178.576 207.788 179.021 207.788 179.471C207.788 179.921 207.696 180.366 207.516 180.781C207.337 181.197 207.075 181.574 206.744 181.892C206.413 182.209 206.02 182.461 205.588 182.633C205.156 182.805 204.693 182.893 204.225 182.892Z" fill="#3F3D56"/>
<path d="M136.938 193.119H104.44C103.379 193.118 102.361 192.712 101.611 191.99C100.861 191.269 100.439 190.29 100.438 189.27V152.392C100.439 151.371 100.861 150.393 101.611 149.671C102.361 148.95 103.379 148.544 104.44 148.543H136.938C138 148.544 139.017 148.95 139.767 149.671C140.518 150.393 140.94 151.371 140.941 152.392V189.27C140.94 190.29 140.518 191.269 139.767 191.99C139.017 192.712 138 193.118 136.938 193.119Z" fill="#09B294"/>
<path d="M203.917 219.667H103.415C102.472 219.667 101.567 219.307 100.899 218.665C100.232 218.024 99.8574 217.154 99.8574 216.246C99.8574 215.339 100.232 214.469 100.899 213.827C101.567 213.186 102.472 212.825 103.415 212.825H203.917C204.86 212.825 205.765 213.186 206.433 213.827C207.1 214.469 207.475 215.339 207.475 216.246C207.475 217.154 207.1 218.024 206.433 218.665C205.765 219.307 204.86 219.667 203.917 219.667Z" fill="#CCCCCC"/>
<path d="M203.917 237.627H103.415C102.472 237.627 101.567 237.267 100.899 236.625C100.232 235.984 99.8574 235.114 99.8574 234.206C99.8574 233.299 100.232 232.429 100.899 231.787C101.567 231.146 102.472 230.785 103.415 230.785H203.917C204.86 230.785 205.765 231.146 206.433 231.787C207.1 232.429 207.475 233.299 207.475 234.206C207.475 235.114 207.1 235.984 206.433 236.625C205.765 237.267 204.86 237.627 203.917 237.627Z" fill="#CCCCCC"/>
<path d="M203.917 255.587H103.415C102.473 255.586 101.569 255.225 100.903 254.584C100.236 253.942 99.8623 253.073 99.8623 252.166C99.8623 251.26 100.236 250.39 100.903 249.749C101.569 249.107 102.473 248.746 103.415 248.745H203.917C204.385 248.745 204.848 248.833 205.28 249.004C205.712 249.176 206.105 249.428 206.436 249.746C206.767 250.063 207.029 250.441 207.208 250.856C207.387 251.271 207.48 251.717 207.48 252.166C207.48 252.616 207.387 253.061 207.208 253.476C207.029 253.892 206.767 254.269 206.436 254.587C206.105 254.905 205.712 255.157 205.28 255.328C204.848 255.5 204.385 255.588 203.917 255.587Z" fill="#CCCCCC"/>
<path d="M203.917 273.548H103.415C102.472 273.548 101.567 273.188 100.899 272.546C100.232 271.905 99.8574 271.034 99.8574 270.127C99.8574 269.22 100.232 268.35 100.899 267.708C101.567 267.066 102.472 266.706 103.415 266.706H203.917C204.86 266.706 205.765 267.066 206.433 267.708C207.1 268.35 207.475 269.22 207.475 270.127C207.475 271.034 207.1 271.905 206.433 272.546C205.765 273.188 204.86 273.548 203.917 273.548Z" fill="#CCCCCC"/>
<path d="M203.917 291.508H103.415C102.472 291.508 101.567 291.148 100.899 290.506C100.232 289.865 99.8574 288.994 99.8574 288.087C99.8574 287.18 100.232 286.31 100.899 285.668C101.567 285.026 102.472 284.666 103.415 284.666H203.917C204.86 284.666 205.765 285.026 206.433 285.668C207.1 286.31 207.475 287.18 207.475 288.087C207.475 288.994 207.1 289.865 206.433 290.506C205.765 291.148 204.86 291.508 203.917 291.508Z" fill="#CCCCCC"/>
<path d="M236.138 157.032C255.101 157.032 270.473 142.25 270.473 124.016C270.473 105.782 255.101 91 236.138 91C217.176 91 201.804 105.782 201.804 124.016C201.804 142.25 217.176 157.032 236.138 157.032Z" fill="#09B294"/>
<path d="M232.736 136.61C231.964 136.611 231.212 136.371 230.594 135.925L230.556 135.898L222.487 129.962C222.113 129.687 221.799 129.343 221.564 128.951C221.328 128.559 221.175 128.126 221.113 127.677C221.052 127.228 221.083 126.772 221.204 126.335C221.326 125.897 221.536 125.487 221.823 125.128C222.109 124.769 222.466 124.467 222.874 124.24C223.282 124.014 223.732 123.867 224.199 123.807C224.666 123.748 225.14 123.778 225.595 123.895C226.05 124.012 226.476 124.214 226.85 124.489L232.076 128.343L244.427 112.85C244.713 112.49 245.07 112.189 245.478 111.963C245.886 111.736 246.335 111.589 246.802 111.53C247.269 111.47 247.743 111.5 248.198 111.617C248.652 111.734 249.079 111.936 249.452 112.211L249.453 112.212L249.377 112.314L249.455 112.212C250.209 112.769 250.702 113.591 250.826 114.497C250.951 115.403 250.696 116.32 250.118 117.045L235.592 135.261C235.256 135.681 234.823 136.021 234.329 136.254C233.834 136.487 233.29 136.608 232.739 136.606L232.736 136.61Z" fill="white"/>
<path d="M453.365 420H219.772C219.604 420 219.442 419.936 219.323 419.821C219.204 419.707 219.137 419.552 219.137 419.39C219.137 419.228 219.204 419.073 219.323 418.958C219.442 418.844 219.604 418.779 219.772 418.779H453.365C453.534 418.779 453.695 418.844 453.814 418.958C453.933 419.073 454 419.228 454 419.39C454 419.552 453.933 419.707 453.814 419.821C453.695 419.936 453.534 420 453.365 420Z" fill="#3F3D56"/>
</g>
<path d="M106.804 577.04H97.0763L95.2843 582H92.2122L100.276 559.824H103.636L111.668 582H108.596L106.804 577.04ZM105.972 574.672L101.94 563.408L97.9083 574.672H105.972ZM118.095 567.696C118.671 566.693 119.524 565.861 120.655 565.2C121.807 564.517 123.14 564.176 124.655 564.176C126.212 564.176 127.62 564.549 128.879 565.296C130.159 566.043 131.161 567.099 131.887 568.464C132.612 569.808 132.975 571.376 132.975 573.168C132.975 574.939 132.612 576.517 131.887 577.904C131.161 579.291 130.159 580.368 128.879 581.136C127.62 581.904 126.212 582.288 124.655 582.288C123.161 582.288 121.839 581.957 120.687 581.296C119.556 580.613 118.692 579.771 118.095 578.768V590.32H115.183V564.464H118.095V567.696ZM129.999 573.168C129.999 571.845 129.732 570.693 129.199 569.712C128.665 568.731 127.94 567.984 127.023 567.472C126.127 566.96 125.135 566.704 124.047 566.704C122.98 566.704 121.988 566.971 121.071 567.504C120.175 568.016 119.449 568.773 118.895 569.776C118.361 570.757 118.095 571.899 118.095 573.2C118.095 574.523 118.361 575.685 118.895 576.688C119.449 577.669 120.175 578.427 121.071 578.96C121.988 579.472 122.98 579.728 124.047 579.728C125.135 579.728 126.127 579.472 127.023 578.96C127.94 578.427 128.665 577.669 129.199 576.688C129.732 575.685 129.999 574.512 129.999 573.168ZM139.72 567.696C140.296 566.693 141.149 565.861 142.28 565.2C143.432 564.517 144.765 564.176 146.28 564.176C147.837 564.176 149.245 564.549 150.504 565.296C151.784 566.043 152.786 567.099 153.512 568.464C154.237 569.808 154.6 571.376 154.6 573.168C154.6 574.939 154.237 576.517 153.512 577.904C152.786 579.291 151.784 580.368 150.504 581.136C149.245 581.904 147.837 582.288 146.28 582.288C144.786 582.288 143.464 581.957 142.312 581.296C141.181 580.613 140.317 579.771 139.72 578.768V590.32H136.808V564.464H139.72V567.696ZM151.624 573.168C151.624 571.845 151.357 570.693 150.824 569.712C150.29 568.731 149.565 567.984 148.648 567.472C147.752 566.96 146.76 566.704 145.672 566.704C144.605 566.704 143.613 566.971 142.696 567.504C141.8 568.016 141.074 568.773 140.52 569.776C139.986 570.757 139.72 571.899 139.72 573.2C139.72 574.523 139.986 575.685 140.52 576.688C141.074 577.669 141.8 578.427 142.696 578.96C143.613 579.472 144.605 579.728 145.672 579.728C146.76 579.728 147.752 579.472 148.648 578.96C149.565 578.427 150.29 577.669 150.824 576.688C151.357 575.685 151.624 574.512 151.624 573.168ZM161.345 567.312C161.857 566.309 162.582 565.531 163.521 564.976C164.481 564.421 165.643 564.144 167.009 564.144V567.152H166.241C162.977 567.152 161.345 568.923 161.345 572.464V582H158.433V564.464H161.345V567.312ZM178.018 582.288C176.376 582.288 174.882 581.915 173.538 581.168C172.216 580.421 171.17 579.365 170.402 578C169.656 576.613 169.282 575.013 169.282 573.2C169.282 571.408 169.666 569.829 170.434 568.464C171.224 567.077 172.29 566.021 173.634 565.296C174.978 564.549 176.482 564.176 178.146 564.176C179.81 564.176 181.314 564.549 182.658 565.296C184.002 566.021 185.058 567.067 185.826 568.432C186.616 569.797 187.01 571.387 187.01 573.2C187.01 575.013 186.605 576.613 185.794 578C185.005 579.365 183.928 580.421 182.562 581.168C181.197 581.915 179.682 582.288 178.018 582.288ZM178.018 579.728C179.064 579.728 180.045 579.483 180.962 578.992C181.88 578.501 182.616 577.765 183.17 576.784C183.746 575.803 184.034 574.608 184.034 573.2C184.034 571.792 183.757 570.597 183.202 569.616C182.648 568.635 181.922 567.909 181.026 567.44C180.13 566.949 179.16 566.704 178.114 566.704C177.048 566.704 176.066 566.949 175.17 567.44C174.296 567.909 173.592 568.635 173.058 569.616C172.525 570.597 172.258 571.792 172.258 573.2C172.258 574.629 172.514 575.835 173.026 576.816C173.56 577.797 174.264 578.533 175.138 579.024C176.013 579.493 176.973 579.728 178.018 579.728ZM197.367 579.312L202.807 564.464H205.911L199.031 582H195.639L188.759 564.464H191.895L197.367 579.312ZM224.777 572.56C224.777 573.115 224.745 573.701 224.681 574.32H210.665C210.771 576.048 211.358 577.403 212.425 578.384C213.513 579.344 214.825 579.824 216.361 579.824C217.619 579.824 218.665 579.536 219.497 578.96C220.35 578.363 220.947 577.573 221.289 576.592H224.425C223.955 578.277 223.017 579.653 221.609 580.72C220.201 581.765 218.451 582.288 216.361 582.288C214.697 582.288 213.203 581.915 211.881 581.168C210.579 580.421 209.555 579.365 208.809 578C208.062 576.613 207.689 575.013 207.689 573.2C207.689 571.387 208.051 569.797 208.777 568.432C209.502 567.067 210.515 566.021 211.817 565.296C213.139 564.549 214.654 564.176 216.361 564.176C218.025 564.176 219.497 564.539 220.777 565.264C222.057 565.989 223.038 566.992 223.721 568.272C224.425 569.531 224.777 570.96 224.777 572.56ZM221.769 571.952C221.769 570.843 221.523 569.893 221.033 569.104C220.542 568.293 219.87 567.685 219.017 567.28C218.185 566.853 217.257 566.64 216.233 566.64C214.761 566.64 213.502 567.109 212.457 568.048C211.433 568.987 210.846 570.288 210.697 571.952H221.769ZM240.704 566.864V577.2C240.704 578.053 240.885 578.661 241.248 579.024C241.61 579.365 242.24 579.536 243.135 579.536H245.28V582H242.656C241.034 582 239.818 581.627 239.008 580.88C238.197 580.133 237.792 578.907 237.792 577.2V566.864H235.52V564.464H237.792V560.048H240.704V564.464H245.28V566.864H240.704ZM257.512 564.144C258.834 564.144 260.029 564.432 261.096 565.008C262.162 565.563 262.994 566.405 263.592 567.536C264.21 568.667 264.52 570.043 264.52 571.664V582H261.64V572.08C261.64 570.331 261.202 568.997 260.328 568.08C259.453 567.141 258.258 566.672 256.744 566.672C255.208 566.672 253.981 567.152 253.064 568.112C252.168 569.072 251.72 570.469 251.72 572.304V582H248.808V558.32H251.72V566.96C252.296 566.064 253.085 565.371 254.088 564.88C255.112 564.389 256.253 564.144 257.512 564.144ZM285.277 572.56C285.277 573.115 285.245 573.701 285.181 574.32H271.165C271.271 576.048 271.858 577.403 272.925 578.384C274.013 579.344 275.325 579.824 276.861 579.824C278.119 579.824 279.165 579.536 279.997 578.96C280.85 578.363 281.447 577.573 281.789 576.592H284.925C284.455 578.277 283.517 579.653 282.109 580.72C280.701 581.765 278.951 582.288 276.861 582.288C275.197 582.288 273.703 581.915 272.381 581.168C271.079 580.421 270.055 579.365 269.309 578C268.562 576.613 268.189 575.013 268.189 573.2C268.189 571.387 268.551 569.797 269.277 568.432C270.002 567.067 271.015 566.021 272.317 565.296C273.639 564.549 275.154 564.176 276.861 564.176C278.525 564.176 279.997 564.539 281.277 565.264C282.557 565.989 283.538 566.992 284.221 568.272C284.925 569.531 285.277 570.96 285.277 572.56ZM282.269 571.952C282.269 570.843 282.023 569.893 281.533 569.104C281.042 568.293 280.37 567.685 279.517 567.28C278.685 566.853 277.757 566.64 276.733 566.64C275.261 566.64 274.002 567.109 272.957 568.048C271.933 568.987 271.346 570.288 271.197 571.952H282.269ZM308.82 570.512C309.63 570.64 310.366 570.971 311.028 571.504C311.71 572.037 312.244 572.699 312.628 573.488C313.033 574.277 313.236 575.12 313.236 576.016C313.236 577.147 312.948 578.171 312.372 579.088C311.796 579.984 310.953 580.699 309.844 581.232C308.756 581.744 307.465 582 305.972 582H297.652V559.696H305.652C307.166 559.696 308.457 559.952 309.524 560.464C310.59 560.955 311.39 561.627 311.924 562.48C312.457 563.333 312.724 564.293 312.724 565.36C312.724 566.683 312.361 567.781 311.635 568.656C310.932 569.509 309.993 570.128 308.82 570.512ZM300.564 569.328H305.46C306.825 569.328 307.881 569.008 308.628 568.368C309.374 567.728 309.748 566.843 309.748 565.712C309.748 564.581 309.374 563.696 308.628 563.056C307.881 562.416 306.804 562.096 305.396 562.096H300.564V569.328ZM305.716 579.6C307.166 579.6 308.297 579.259 309.108 578.576C309.918 577.893 310.324 576.944 310.324 575.728C310.324 574.491 309.897 573.52 309.044 572.816C308.19 572.091 307.049 571.728 305.62 571.728H300.564V579.6H305.716ZM324.925 582.288C323.282 582.288 321.789 581.915 320.445 581.168C319.122 580.421 318.077 579.365 317.309 578C316.562 576.613 316.189 575.013 316.189 573.2C316.189 571.408 316.573 569.829 317.341 568.464C318.13 567.077 319.197 566.021 320.541 565.296C321.885 564.549 323.389 564.176 325.053 564.176C326.717 564.176 328.221 564.549 329.565 565.296C330.909 566.021 331.965 567.067 332.733 568.432C333.522 569.797 333.917 571.387 333.917 573.2C333.917 575.013 333.511 576.613 332.701 578C331.911 579.365 330.834 580.421 329.469 581.168C328.103 581.915 326.589 582.288 324.925 582.288ZM324.925 579.728C325.97 579.728 326.951 579.483 327.869 578.992C328.786 578.501 329.522 577.765 330.077 576.784C330.653 575.803 330.941 574.608 330.941 573.2C330.941 571.792 330.663 570.597 330.109 569.616C329.554 568.635 328.829 567.909 327.933 567.44C327.037 566.949 326.066 566.704 325.021 566.704C323.954 566.704 322.973 566.949 322.077 567.44C321.202 567.909 320.498 568.635 319.965 569.616C319.431 570.597 319.165 571.792 319.165 573.2C319.165 574.629 319.421 575.835 319.933 576.816C320.466 577.797 321.17 578.533 322.045 579.024C322.919 579.493 323.879 579.728 324.925 579.728ZM345.393 582.288C343.751 582.288 342.257 581.915 340.913 581.168C339.591 580.421 338.545 579.365 337.777 578C337.031 576.613 336.657 575.013 336.657 573.2C336.657 571.408 337.041 569.829 337.809 568.464C338.599 567.077 339.665 566.021 341.009 565.296C342.353 564.549 343.857 564.176 345.521 564.176C347.185 564.176 348.689 564.549 350.033 565.296C351.377 566.021 352.433 567.067 353.201 568.432C353.991 569.797 354.385 571.387 354.385 573.2C354.385 575.013 353.98 576.613 353.169 578C352.38 579.365 351.303 580.421 349.937 581.168C348.572 581.915 347.057 582.288 345.393 582.288ZM345.393 579.728C346.439 579.728 347.42 579.483 348.337 578.992C349.255 578.501 349.991 577.765 350.545 576.784C351.121 575.803 351.409 574.608 351.409 573.2C351.409 571.792 351.132 570.597 350.577 569.616C350.023 568.635 349.297 567.909 348.401 567.44C347.505 566.949 346.535 566.704 345.489 566.704C344.423 566.704 343.441 566.949 342.545 567.44C341.671 567.909 340.967 568.635 340.433 569.616C339.9 570.597 339.633 571.792 339.633 573.2C339.633 574.629 339.889 575.835 340.401 576.816C340.935 577.797 341.639 578.533 342.513 579.024C343.388 579.493 344.348 579.728 345.393 579.728ZM368.006 582L361.126 574.256V582H358.214V558.32H361.126V572.24L367.878 564.464H371.942L363.686 573.2L371.974 582H368.006ZM376.187 561.616C375.632 561.616 375.163 561.424 374.779 561.04C374.395 560.656 374.203 560.187 374.203 559.632C374.203 559.077 374.395 558.608 374.779 558.224C375.163 557.84 375.632 557.648 376.187 557.648C376.72 557.648 377.168 557.84 377.531 558.224C377.915 558.608 378.107 559.077 378.107 559.632C378.107 560.187 377.915 560.656 377.531 561.04C377.168 561.424 376.72 561.616 376.187 561.616ZM377.595 564.464V582H374.683V564.464H377.595ZM391.102 564.144C393.235 564.144 394.963 564.795 396.286 566.096C397.608 567.376 398.27 569.232 398.27 571.664V582H395.39V572.08C395.39 570.331 394.952 568.997 394.078 568.08C393.203 567.141 392.008 566.672 390.494 566.672C388.958 566.672 387.731 567.152 386.814 568.112C385.918 569.072 385.47 570.469 385.47 572.304V582H382.558V564.464H385.47V566.96C386.046 566.064 386.824 565.371 387.806 564.88C388.808 564.389 389.907 564.144 391.102 564.144ZM410.259 564.176C411.773 564.176 413.096 564.507 414.227 565.168C415.379 565.829 416.232 566.661 416.787 567.664V564.464H419.731V582.384C419.731 583.984 419.389 585.403 418.707 586.64C418.024 587.899 417.043 588.88 415.763 589.584C414.504 590.288 413.032 590.64 411.347 590.64C409.043 590.64 407.123 590.096 405.587 589.008C404.051 587.92 403.144 586.437 402.867 584.56H405.747C406.067 585.627 406.728 586.48 407.731 587.12C408.733 587.781 409.939 588.112 411.347 588.112C412.947 588.112 414.248 587.611 415.251 586.608C416.275 585.605 416.787 584.197 416.787 582.384V578.704C416.211 579.728 415.357 580.581 414.227 581.264C413.096 581.947 411.773 582.288 410.259 582.288C408.701 582.288 407.283 581.904 406.003 581.136C404.744 580.368 403.752 579.291 403.027 577.904C402.301 576.517 401.939 574.939 401.939 573.168C401.939 571.376 402.301 569.808 403.027 568.464C403.752 567.099 404.744 566.043 406.003 565.296C407.283 564.549 408.701 564.176 410.259 564.176ZM416.787 573.2C416.787 571.877 416.52 570.725 415.987 569.744C415.453 568.763 414.728 568.016 413.811 567.504C412.915 566.971 411.923 566.704 410.835 566.704C409.747 566.704 408.755 566.96 407.859 567.472C406.963 567.984 406.248 568.731 405.715 569.712C405.181 570.693 404.915 571.845 404.915 573.168C404.915 574.512 405.181 575.685 405.715 576.688C406.248 577.669 406.963 578.427 407.859 578.96C408.755 579.472 409.747 579.728 410.835 579.728C411.923 579.728 412.915 579.472 413.811 578.96C414.728 578.427 415.453 577.669 415.987 576.688C416.52 575.685 416.787 574.523 416.787 573.2ZM436.735 566.864V577.2C436.735 578.053 436.916 578.661 437.279 579.024C437.641 579.365 438.271 579.536 439.167 579.536H441.311V582H438.687C437.065 582 435.849 581.627 435.039 580.88C434.228 580.133 433.823 578.907 433.823 577.2V566.864H431.551V564.464H433.823V560.048H436.735V564.464H441.311V566.864H436.735ZM452.487 582.288C450.844 582.288 449.351 581.915 448.007 581.168C446.684 580.421 445.639 579.365 444.871 578C444.124 576.613 443.751 575.013 443.751 573.2C443.751 571.408 444.135 569.829 444.903 568.464C445.692 567.077 446.759 566.021 448.103 565.296C449.447 564.549 450.951 564.176 452.615 564.176C454.279 564.176 455.783 564.549 457.127 565.296C458.471 566.021 459.527 567.067 460.295 568.432C461.084 569.797 461.479 571.387 461.479 573.2C461.479 575.013 461.074 576.613 460.263 578C459.474 579.365 458.396 580.421 457.031 581.168C455.666 581.915 454.151 582.288 452.487 582.288ZM452.487 579.728C453.532 579.728 454.514 579.483 455.431 578.992C456.348 578.501 457.084 577.765 457.639 576.784C458.215 575.803 458.503 574.608 458.503 573.2C458.503 571.792 458.226 570.597 457.671 569.616C457.116 568.635 456.391 567.909 455.495 567.44C454.599 566.949 453.628 566.704 452.583 566.704C451.516 566.704 450.535 566.949 449.639 567.44C448.764 567.909 448.06 568.635 447.527 569.616C446.994 570.597 446.727 571.792 446.727 573.2C446.727 574.629 446.983 575.835 447.495 576.816C448.028 577.797 448.732 578.533 449.607 579.024C450.482 579.493 451.442 579.728 452.487 579.728ZM214.985 615.696C215.561 614.693 216.415 613.861 217.545 613.2C218.697 612.517 220.031 612.176 221.545 612.176C223.103 612.176 224.511 612.549 225.769 613.296C227.049 614.043 228.052 615.099 228.777 616.464C229.503 617.808 229.865 619.376 229.865 621.168C229.865 622.939 229.503 624.517 228.777 625.904C228.052 627.291 227.049 628.368 225.769 629.136C224.511 629.904 223.103 630.288 221.545 630.288C220.052 630.288 218.729 629.957 217.577 629.296C216.447 628.613 215.583 627.771 214.985 626.768V638.32H212.073V612.464H214.985V615.696ZM226.889 621.168C226.889 619.845 226.623 618.693 226.089 617.712C225.556 616.731 224.831 615.984 223.913 615.472C223.017 614.96 222.025 614.704 220.937 614.704C219.871 614.704 218.879 614.971 217.961 615.504C217.065 616.016 216.34 616.773 215.785 617.776C215.252 618.757 214.985 619.899 214.985 621.2C214.985 622.523 215.252 623.685 215.785 624.688C216.34 625.669 217.065 626.427 217.961 626.96C218.879 627.472 219.871 627.728 220.937 627.728C222.025 627.728 223.017 627.472 223.913 626.96C224.831 626.427 225.556 625.669 226.089 624.688C226.623 623.685 226.889 622.512 226.889 621.168ZM236.61 615.312C237.122 614.309 237.848 613.531 238.786 612.976C239.746 612.421 240.909 612.144 242.274 612.144V615.152H241.506C238.242 615.152 236.61 616.923 236.61 620.464V630H233.698V612.464H236.61V615.312ZM253.284 630.288C251.641 630.288 250.148 629.915 248.804 629.168C247.481 628.421 246.436 627.365 245.668 626C244.921 624.613 244.548 623.013 244.548 621.2C244.548 619.408 244.932 617.829 245.7 616.464C246.489 615.077 247.556 614.021 248.9 613.296C250.244 612.549 251.748 612.176 253.412 612.176C255.076 612.176 256.58 612.549 257.924 613.296C259.268 614.021 260.324 615.067 261.092 616.432C261.881 617.797 262.276 619.387 262.276 621.2C262.276 623.013 261.871 624.613 261.06 626C260.271 627.365 259.193 628.421 257.828 629.168C256.463 629.915 254.948 630.288 253.284 630.288ZM253.284 627.728C254.329 627.728 255.311 627.483 256.228 626.992C257.145 626.501 257.881 625.765 258.436 624.784C259.012 623.803 259.3 622.608 259.3 621.2C259.3 619.792 259.023 618.597 258.468 617.616C257.913 616.635 257.188 615.909 256.292 615.44C255.396 614.949 254.425 614.704 253.38 614.704C252.313 614.704 251.332 614.949 250.436 615.44C249.561 615.909 248.857 616.635 248.324 617.616C247.791 618.597 247.524 619.792 247.524 621.2C247.524 622.629 247.78 623.835 248.292 624.816C248.825 625.797 249.529 626.533 250.404 627.024C251.279 627.493 252.239 627.728 253.284 627.728ZM265.017 621.2C265.017 619.387 265.379 617.808 266.105 616.464C266.83 615.099 267.833 614.043 269.113 613.296C270.414 612.549 271.897 612.176 273.561 612.176C275.715 612.176 277.486 612.699 278.873 613.744C280.281 614.789 281.209 616.24 281.657 618.096H278.521C278.222 617.029 277.635 616.187 276.761 615.568C275.907 614.949 274.841 614.64 273.561 614.64C271.897 614.64 270.553 615.216 269.529 616.368C268.505 617.499 267.993 619.109 267.993 621.2C267.993 623.312 268.505 624.944 269.529 626.096C270.553 627.248 271.897 627.824 273.561 627.824C274.841 627.824 275.907 627.525 276.761 626.928C277.614 626.331 278.201 625.477 278.521 624.368H281.657C281.187 626.16 280.249 627.6 278.841 628.688C277.433 629.755 275.673 630.288 273.561 630.288C271.897 630.288 270.414 629.915 269.113 629.168C267.833 628.421 266.83 627.365 266.105 626C265.379 624.635 265.017 623.035 265.017 621.2ZM301.542 620.56C301.542 621.115 301.51 621.701 301.446 622.32H287.43C287.537 624.048 288.123 625.403 289.19 626.384C290.278 627.344 291.59 627.824 293.126 627.824C294.385 627.824 295.43 627.536 296.262 626.96C297.115 626.363 297.713 625.573 298.054 624.592H301.19C300.721 626.277 299.782 627.653 298.374 628.72C296.966 629.765 295.217 630.288 293.126 630.288C291.462 630.288 289.969 629.915 288.646 629.168C287.345 628.421 286.321 627.365 285.574 626C284.827 624.613 284.454 623.013 284.454 621.2C284.454 619.387 284.817 617.797 285.542 616.432C286.267 615.067 287.281 614.021 288.582 613.296C289.905 612.549 291.419 612.176 293.126 612.176C294.79 612.176 296.262 612.539 297.542 613.264C298.822 613.989 299.803 614.992 300.486 616.272C301.19 617.531 301.542 618.96 301.542 620.56ZM298.534 619.952C298.534 618.843 298.289 617.893 297.798 617.104C297.307 616.293 296.635 615.685 295.782 615.28C294.95 614.853 294.022 614.64 292.998 614.64C291.526 614.64 290.267 615.109 289.222 616.048C288.198 616.987 287.611 618.288 287.462 619.952H298.534ZM321.386 620.56C321.386 621.115 321.354 621.701 321.29 622.32H307.274C307.381 624.048 307.967 625.403 309.034 626.384C310.122 627.344 311.434 627.824 312.97 627.824C314.229 627.824 315.274 627.536 316.106 626.96C316.959 626.363 317.557 625.573 317.898 624.592H321.034C320.565 626.277 319.626 627.653 318.218 628.72C316.81 629.765 315.061 630.288 312.97 630.288C311.306 630.288 309.813 629.915 308.49 629.168C307.189 628.421 306.165 627.365 305.418 626C304.671 624.613 304.298 623.013 304.298 621.2C304.298 619.387 304.661 617.797 305.386 616.432C306.111 615.067 307.125 614.021 308.426 613.296C309.749 612.549 311.263 612.176 312.97 612.176C314.634 612.176 316.106 612.539 317.386 613.264C318.666 613.989 319.647 614.992 320.33 616.272C321.034 617.531 321.386 618.96 321.386 620.56ZM318.378 619.952C318.378 618.843 318.133 617.893 317.642 617.104C317.151 616.293 316.479 615.685 315.626 615.28C314.794 614.853 313.866 614.64 312.842 614.64C311.37 614.64 310.111 615.109 309.066 616.048C308.042 616.987 307.455 618.288 307.306 619.952H318.378ZM324.142 621.168C324.142 619.376 324.504 617.808 325.23 616.464C325.955 615.099 326.947 614.043 328.206 613.296C329.486 612.549 330.915 612.176 332.494 612.176C333.859 612.176 335.128 612.496 336.302 613.136C337.475 613.755 338.371 614.576 338.99 615.6V606.32H341.934V630H338.99V626.704C338.414 627.749 337.56 628.613 336.43 629.296C335.299 629.957 333.976 630.288 332.462 630.288C330.904 630.288 329.486 629.904 328.206 629.136C326.947 628.368 325.955 627.291 325.23 625.904C324.504 624.517 324.142 622.939 324.142 621.168ZM338.99 621.2C338.99 619.877 338.723 618.725 338.19 617.744C337.656 616.763 336.931 616.016 336.014 615.504C335.118 614.971 334.126 614.704 333.038 614.704C331.95 614.704 330.958 614.96 330.062 615.472C329.166 615.984 328.451 616.731 327.918 617.712C327.384 618.693 327.118 619.845 327.118 621.168C327.118 622.512 327.384 623.685 327.918 624.688C328.451 625.669 329.166 626.427 330.062 626.96C330.958 627.472 331.95 627.728 333.038 627.728C334.126 627.728 335.118 627.472 336.014 626.96C336.931 626.427 337.656 625.669 338.19 624.688C338.723 623.685 338.99 622.523 338.99 621.2Z" fill="white"/>
<defs>
<clipPath id="clip0_465_316">
<rect width="382" height="329" fill="white" transform="translate(72 91)"/>
</clipPath>
</defs>
</svg>
