<svg width="456" height="571" viewBox="0 0 456 571" fill="none" xmlns="http://www.w3.org/2000/svg">
<path d="M38.2155 490.2V505H36.3955V490.2H38.2155ZM51.3173 499.1C51.3173 499.447 51.2973 499.813 51.2573 500.2H42.4973C42.564 501.28 42.9307 502.127 43.5973 502.74C44.2773 503.34 45.0973 503.64 46.0573 503.64C46.844 503.64 47.4973 503.46 48.0173 503.1C48.5507 502.727 48.924 502.233 49.1373 501.62H51.0973C50.804 502.673 50.2173 503.533 49.3373 504.2C48.4573 504.853 47.364 505.18 46.0573 505.18C45.0173 505.18 44.084 504.947 43.2573 504.48C42.444 504.013 41.804 503.353 41.3373 502.5C40.8707 501.633 40.6373 500.633 40.6373 499.5C40.6373 498.367 40.864 497.373 41.3173 496.52C41.7707 495.667 42.404 495.013 43.2173 494.56C44.044 494.093 44.9907 493.86 46.0573 493.86C47.0973 493.86 48.0173 494.087 48.8173 494.54C49.6173 494.993 50.2307 495.62 50.6573 496.42C51.0973 497.207 51.3173 498.1 51.3173 499.1ZM49.4373 498.72C49.4373 498.027 49.284 497.433 48.9773 496.94C48.6707 496.433 48.2507 496.053 47.7173 495.8C47.1973 495.533 46.6173 495.4 45.9773 495.4C45.0573 495.4 44.2707 495.693 43.6173 496.28C42.9773 496.867 42.6107 497.68 42.5173 498.72H49.4373ZM55.9397 495.54V502C55.9397 502.533 56.053 502.913 56.2797 503.14C56.5064 503.353 56.8997 503.46 57.4597 503.46H58.7997V505H57.1597C56.1464 505 55.3864 504.767 54.8797 504.3C54.373 503.833 54.1197 503.067 54.1197 502V495.54H52.6997V494.04H54.1197V491.28H55.9397V494.04H58.7997V495.54H55.9397ZM61.2848 491.06H63.3048L61.3848 495.6H60.1048L61.2848 491.06ZM69.2598 505.18C68.4198 505.18 67.6665 505.04 66.9998 504.76C66.3332 504.467 65.8065 504.067 65.4198 503.56C65.0332 503.04 64.8198 502.447 64.7798 501.78H66.6598C66.7132 502.327 66.9665 502.773 67.4198 503.12C67.8865 503.467 68.4932 503.64 69.2398 503.64C69.9332 503.64 70.4798 503.487 70.8798 503.18C71.2798 502.873 71.4798 502.487 71.4798 502.02C71.4798 501.54 71.2665 501.187 70.8398 500.96C70.4132 500.72 69.7532 500.487 68.8598 500.26C68.0465 500.047 67.3798 499.833 66.8598 499.62C66.3532 499.393 65.9132 499.067 65.5398 498.64C65.1798 498.2 64.9998 497.627 64.9998 496.92C64.9998 496.36 65.1665 495.847 65.4998 495.38C65.8332 494.913 66.3065 494.547 66.9198 494.28C67.5332 494 68.2332 493.86 69.0198 493.86C70.2332 493.86 71.2132 494.167 71.9598 494.78C72.7065 495.393 73.1065 496.233 73.1598 497.3H71.3398C71.2998 496.727 71.0665 496.267 70.6398 495.92C70.2265 495.573 69.6665 495.4 68.9598 495.4C68.3065 495.4 67.7865 495.54 67.3998 495.82C67.0132 496.1 66.8198 496.467 66.8198 496.92C66.8198 497.28 66.9332 497.58 67.1598 497.82C67.3998 498.047 67.6932 498.233 68.0398 498.38C68.3998 498.513 68.8932 498.667 69.5198 498.84C70.3065 499.053 70.9465 499.267 71.4398 499.48C71.9332 499.68 72.3532 499.987 72.6998 500.4C73.0598 500.813 73.2465 501.353 73.2598 502.02C73.2598 502.62 73.0932 503.16 72.7598 503.64C72.4265 504.12 71.9532 504.5 71.3398 504.78C70.7398 505.047 70.0465 505.18 69.2598 505.18ZM80.4811 499.48C80.4811 498.36 80.7078 497.38 81.1611 496.54C81.6144 495.687 82.2344 495.027 83.0211 494.56C83.8211 494.093 84.7078 493.86 85.6811 493.86C86.6411 493.86 87.4744 494.067 88.1811 494.48C88.8878 494.893 89.4144 495.413 89.7611 496.04V494.04H91.6011V505H89.7611V502.96C89.4011 503.6 88.8611 504.133 88.1411 504.56C87.4344 504.973 86.6078 505.18 85.6611 505.18C84.6878 505.18 83.8078 504.94 83.0211 504.46C82.2344 503.98 81.6144 503.307 81.1611 502.44C80.7078 501.573 80.4811 500.587 80.4811 499.48ZM89.7611 499.5C89.7611 498.673 89.5944 497.953 89.2611 497.34C88.9278 496.727 88.4744 496.26 87.9011 495.94C87.3411 495.607 86.7211 495.44 86.0411 495.44C85.3611 495.44 84.7411 495.6 84.1811 495.92C83.6211 496.24 83.1744 496.707 82.8411 497.32C82.5078 497.933 82.3411 498.653 82.3411 499.48C82.3411 500.32 82.5078 501.053 82.8411 501.68C83.1744 502.293 83.6211 502.767 84.1811 503.1C84.7411 503.42 85.3611 503.58 86.0411 503.58C86.7211 503.58 87.3411 503.42 87.9011 503.1C88.4744 502.767 88.9278 502.293 89.2611 501.68C89.5944 501.053 89.7611 500.327 89.7611 499.5ZM93.9967 499.48C93.9967 498.36 94.2234 497.38 94.6767 496.54C95.1301 495.687 95.7501 495.027 96.5367 494.56C97.3367 494.093 98.2301 493.86 99.2167 493.86C100.07 493.86 100.863 494.06 101.597 494.46C102.33 494.847 102.89 495.36 103.277 496V490.2H105.117V505H103.277V502.94C102.917 503.593 102.383 504.133 101.677 504.56C100.97 504.973 100.143 505.18 99.1967 505.18C98.2234 505.18 97.3367 504.94 96.5367 504.46C95.7501 503.98 95.1301 503.307 94.6767 502.44C94.2234 501.573 93.9967 500.587 93.9967 499.48ZM103.277 499.5C103.277 498.673 103.11 497.953 102.777 497.34C102.443 496.727 101.99 496.26 101.417 495.94C100.857 495.607 100.237 495.44 99.5567 495.44C98.8767 495.44 98.2567 495.6 97.6967 495.92C97.1367 496.24 96.6901 496.707 96.3567 497.32C96.0234 497.933 95.8567 498.653 95.8567 499.48C95.8567 500.32 96.0234 501.053 96.3567 501.68C96.6901 502.293 97.1367 502.767 97.6967 503.1C98.2567 503.42 98.8767 503.58 99.5567 503.58C100.237 503.58 100.857 503.42 101.417 503.1C101.99 502.767 102.443 502.293 102.777 501.68C103.11 501.053 103.277 500.327 103.277 499.5ZM107.512 499.48C107.512 498.36 107.739 497.38 108.192 496.54C108.646 495.687 109.266 495.027 110.052 494.56C110.852 494.093 111.746 493.86 112.732 493.86C113.586 493.86 114.379 494.06 115.112 494.46C115.846 494.847 116.406 495.36 116.792 496V490.2H118.632V505H116.792V502.94C116.432 503.593 115.899 504.133 115.192 504.56C114.486 504.973 113.659 505.18 112.712 505.18C111.739 505.18 110.852 504.94 110.052 504.46C109.266 503.98 108.646 503.307 108.192 502.44C107.739 501.573 107.512 500.587 107.512 499.48ZM116.792 499.5C116.792 498.673 116.626 497.953 116.292 497.34C115.959 496.727 115.506 496.26 114.932 495.94C114.372 495.607 113.752 495.44 113.072 495.44C112.392 495.44 111.772 495.6 111.212 495.92C110.652 496.24 110.206 496.707 109.872 497.32C109.539 497.933 109.372 498.653 109.372 499.48C109.372 500.32 109.539 501.053 109.872 501.68C110.206 502.293 110.652 502.767 111.212 503.1C111.772 503.42 112.392 503.58 113.072 503.58C113.752 503.58 114.372 503.42 114.932 503.1C115.506 502.767 115.959 502.293 116.292 501.68C116.626 501.053 116.792 500.327 116.792 499.5ZM130.92 505.18C130.08 505.18 129.327 505.04 128.66 504.76C127.993 504.467 127.467 504.067 127.08 503.56C126.693 503.04 126.48 502.447 126.44 501.78H128.32C128.373 502.327 128.627 502.773 129.08 503.12C129.547 503.467 130.153 503.64 130.9 503.64C131.593 503.64 132.14 503.487 132.54 503.18C132.94 502.873 133.14 502.487 133.14 502.02C133.14 501.54 132.927 501.187 132.5 500.96C132.073 500.72 131.413 500.487 130.52 500.26C129.707 500.047 129.04 499.833 128.52 499.62C128.013 499.393 127.573 499.067 127.2 498.64C126.84 498.2 126.66 497.627 126.66 496.92C126.66 496.36 126.827 495.847 127.16 495.38C127.493 494.913 127.967 494.547 128.58 494.28C129.193 494 129.893 493.86 130.68 493.86C131.893 493.86 132.873 494.167 133.62 494.78C134.367 495.393 134.767 496.233 134.82 497.3H133C132.96 496.727 132.727 496.267 132.3 495.92C131.887 495.573 131.327 495.4 130.62 495.4C129.967 495.4 129.447 495.54 129.06 495.82C128.673 496.1 128.48 496.467 128.48 496.92C128.48 497.28 128.593 497.58 128.82 497.82C129.06 498.047 129.353 498.233 129.7 498.38C130.06 498.513 130.553 498.667 131.18 498.84C131.967 499.053 132.607 499.267 133.1 499.48C133.593 499.68 134.013 499.987 134.36 500.4C134.72 500.813 134.907 501.353 134.92 502.02C134.92 502.62 134.753 503.16 134.42 503.64C134.087 504.12 133.613 504.5 133 504.78C132.4 505.047 131.707 505.18 130.92 505.18ZM142.269 505.18C141.243 505.18 140.309 504.947 139.469 504.48C138.643 504.013 137.989 503.353 137.509 502.5C137.043 501.633 136.809 500.633 136.809 499.5C136.809 498.38 137.049 497.393 137.529 496.54C138.023 495.673 138.689 495.013 139.529 494.56C140.369 494.093 141.309 493.86 142.349 493.86C143.389 493.86 144.329 494.093 145.169 494.56C146.009 495.013 146.669 495.667 147.149 496.52C147.643 497.373 147.889 498.367 147.889 499.5C147.889 500.633 147.636 501.633 147.129 502.5C146.636 503.353 145.963 504.013 145.109 504.48C144.256 504.947 143.309 505.18 142.269 505.18ZM142.269 503.58C142.923 503.58 143.536 503.427 144.109 503.12C144.683 502.813 145.143 502.353 145.489 501.74C145.849 501.127 146.029 500.38 146.029 499.5C146.029 498.62 145.856 497.873 145.509 497.26C145.163 496.647 144.709 496.193 144.149 495.9C143.589 495.593 142.983 495.44 142.329 495.44C141.663 495.44 141.049 495.593 140.489 495.9C139.943 496.193 139.503 496.647 139.169 497.26C138.836 497.873 138.669 498.62 138.669 499.5C138.669 500.393 138.829 501.147 139.149 501.76C139.483 502.373 139.923 502.833 140.469 503.14C141.016 503.433 141.616 503.58 142.269 503.58ZM163.462 493.84C164.316 493.84 165.076 494.02 165.742 494.38C166.409 494.727 166.936 495.253 167.322 495.96C167.709 496.667 167.902 497.527 167.902 498.54V505H166.102V498.8C166.102 497.707 165.829 496.873 165.282 496.3C164.749 495.713 164.022 495.42 163.102 495.42C162.156 495.42 161.402 495.727 160.842 496.34C160.282 496.94 160.002 497.813 160.002 498.96V505H158.202V498.8C158.202 497.707 157.929 496.873 157.382 496.3C156.849 495.713 156.122 495.42 155.202 495.42C154.256 495.42 153.502 495.727 152.942 496.34C152.382 496.94 152.102 497.813 152.102 498.96V505H150.282V494.04H152.102V495.62C152.462 495.047 152.942 494.607 153.542 494.3C154.156 493.993 154.829 493.84 155.562 493.84C156.482 493.84 157.296 494.047 158.002 494.46C158.709 494.873 159.236 495.48 159.582 496.28C159.889 495.507 160.396 494.907 161.102 494.48C161.809 494.053 162.596 493.84 163.462 493.84ZM180.888 499.1C180.888 499.447 180.868 499.813 180.828 500.2H172.068C172.134 501.28 172.501 502.127 173.168 502.74C173.848 503.34 174.668 503.64 175.628 503.64C176.414 503.64 177.068 503.46 177.588 503.1C178.121 502.727 178.494 502.233 178.708 501.62H180.668C180.374 502.673 179.788 503.533 178.908 504.2C178.028 504.853 176.934 505.18 175.628 505.18C174.588 505.18 173.654 504.947 172.828 504.48C172.014 504.013 171.374 503.353 170.908 502.5C170.441 501.633 170.208 500.633 170.208 499.5C170.208 498.367 170.434 497.373 170.888 496.52C171.341 495.667 171.974 495.013 172.788 494.56C173.614 494.093 174.561 493.86 175.628 493.86C176.668 493.86 177.588 494.087 178.388 494.54C179.188 494.993 179.801 495.62 180.228 496.42C180.668 497.207 180.888 498.1 180.888 499.1ZM179.008 498.72C179.008 498.027 178.854 497.433 178.548 496.94C178.241 496.433 177.821 496.053 177.288 495.8C176.768 495.533 176.188 495.4 175.548 495.4C174.628 495.4 173.841 495.693 173.188 496.28C172.548 496.867 172.181 497.68 172.088 498.72H179.008ZM198.622 499.1C198.622 499.447 198.602 499.813 198.562 500.2H189.802C189.869 501.28 190.235 502.127 190.902 502.74C191.582 503.34 192.402 503.64 193.362 503.64C194.149 503.64 194.802 503.46 195.322 503.1C195.855 502.727 196.229 502.233 196.442 501.62H198.402C198.109 502.673 197.522 503.533 196.642 504.2C195.762 504.853 194.669 505.18 193.362 505.18C192.322 505.18 191.389 504.947 190.562 504.48C189.749 504.013 189.109 503.353 188.642 502.5C188.175 501.633 187.942 500.633 187.942 499.5C187.942 498.367 188.169 497.373 188.622 496.52C189.075 495.667 189.709 495.013 190.522 494.56C191.349 494.093 192.295 493.86 193.362 493.86C194.402 493.86 195.322 494.087 196.122 494.54C196.922 494.993 197.535 495.62 197.962 496.42C198.402 497.207 198.622 498.1 198.622 499.1ZM196.742 498.72C196.742 498.027 196.589 497.433 196.282 496.94C195.975 496.433 195.555 496.053 195.022 495.8C194.502 495.533 193.922 495.4 193.282 495.4C192.362 495.4 191.575 495.693 190.922 496.28C190.282 496.867 189.915 497.68 189.822 498.72H196.742ZM206.744 505L204.144 500.92L201.644 505H199.744L203.284 499.56L199.744 494.04H201.804L204.404 498.1L206.884 494.04H208.784L205.264 499.46L208.804 505H206.744ZM212.815 495.54V502C212.815 502.533 212.928 502.913 213.155 503.14C213.381 503.353 213.775 503.46 214.335 503.46H215.675V505H214.035C213.021 505 212.261 504.767 211.755 504.3C211.248 503.833 210.995 503.067 210.995 502V495.54H209.575V494.04H210.995V491.28H212.815V494.04H215.675V495.54H212.815ZM219.7 495.82C220.02 495.193 220.473 494.707 221.06 494.36C221.66 494.013 222.387 493.84 223.24 493.84V495.72H222.76C220.72 495.72 219.7 496.827 219.7 499.04V505H217.88V494.04H219.7V495.82ZM224.661 499.48C224.661 498.36 224.887 497.38 225.341 496.54C225.794 495.687 226.414 495.027 227.201 494.56C228.001 494.093 228.887 493.86 229.861 493.86C230.821 493.86 231.654 494.067 232.361 494.48C233.067 494.893 233.594 495.413 233.941 496.04V494.04H235.781V505H233.941V502.96C233.581 503.6 233.041 504.133 232.321 504.56C231.614 504.973 230.787 505.18 229.841 505.18C228.867 505.18 227.987 504.94 227.201 504.46C226.414 503.98 225.794 503.307 225.341 502.44C224.887 501.573 224.661 500.587 224.661 499.48ZM233.941 499.5C233.941 498.673 233.774 497.953 233.441 497.34C233.107 496.727 232.654 496.26 232.081 495.94C231.521 495.607 230.901 495.44 230.221 495.44C229.541 495.44 228.921 495.6 228.361 495.92C227.801 496.24 227.354 496.707 227.021 497.32C226.687 497.933 226.521 498.653 226.521 499.48C226.521 500.32 226.687 501.053 227.021 501.68C227.354 502.293 227.801 502.767 228.361 503.1C228.921 503.42 229.541 503.58 230.221 503.58C230.901 503.58 231.521 503.42 232.081 503.1C232.654 502.767 233.107 502.293 233.441 501.68C233.774 501.053 233.941 500.327 233.941 499.5ZM248.068 505.18C247.228 505.18 246.475 505.04 245.808 504.76C245.142 504.467 244.615 504.067 244.228 503.56C243.842 503.04 243.628 502.447 243.588 501.78H245.468C245.522 502.327 245.775 502.773 246.228 503.12C246.695 503.467 247.302 503.64 248.048 503.64C248.742 503.64 249.288 503.487 249.688 503.18C250.088 502.873 250.288 502.487 250.288 502.02C250.288 501.54 250.075 501.187 249.648 500.96C249.222 500.72 248.562 500.487 247.668 500.26C246.855 500.047 246.188 499.833 245.668 499.62C245.162 499.393 244.722 499.067 244.348 498.64C243.988 498.2 243.808 497.627 243.808 496.92C243.808 496.36 243.975 495.847 244.308 495.38C244.642 494.913 245.115 494.547 245.728 494.28C246.342 494 247.042 493.86 247.828 493.86C249.042 493.86 250.022 494.167 250.768 494.78C251.515 495.393 251.915 496.233 251.968 497.3H250.148C250.108 496.727 249.875 496.267 249.448 495.92C249.035 495.573 248.475 495.4 247.768 495.4C247.115 495.4 246.595 495.54 246.208 495.82C245.822 496.1 245.628 496.467 245.628 496.92C245.628 497.28 245.742 497.58 245.968 497.82C246.208 498.047 246.502 498.233 246.848 498.38C247.208 498.513 247.702 498.667 248.328 498.84C249.115 499.053 249.755 499.267 250.248 499.48C250.742 499.68 251.162 499.987 251.508 500.4C251.868 500.813 252.055 501.353 252.068 502.02C252.068 502.62 251.902 503.16 251.568 503.64C251.235 504.12 250.762 504.5 250.148 504.78C249.548 505.047 248.855 505.18 248.068 505.18ZM264.638 499.1C264.638 499.447 264.618 499.813 264.578 500.2H255.818C255.884 501.28 256.251 502.127 256.918 502.74C257.598 503.34 258.418 503.64 259.378 503.64C260.164 503.64 260.818 503.46 261.338 503.1C261.871 502.727 262.244 502.233 262.458 501.62H264.418C264.124 502.673 263.538 503.533 262.658 504.2C261.778 504.853 260.684 505.18 259.378 505.18C258.338 505.18 257.404 504.947 256.578 504.48C255.764 504.013 255.124 503.353 254.658 502.5C254.191 501.633 253.958 500.633 253.958 499.5C253.958 498.367 254.184 497.373 254.638 496.52C255.091 495.667 255.724 495.013 256.538 494.56C257.364 494.093 258.311 493.86 259.378 493.86C260.418 493.86 261.338 494.087 262.138 494.54C262.938 494.993 263.551 495.62 263.978 496.42C264.418 497.207 264.638 498.1 264.638 499.1ZM262.758 498.72C262.758 498.027 262.604 497.433 262.298 496.94C261.991 496.433 261.571 496.053 261.038 495.8C260.518 495.533 259.938 495.4 259.298 495.4C258.378 495.4 257.591 495.693 256.938 496.28C256.298 496.867 255.931 497.68 255.838 498.72H262.758ZM266.36 499.5C266.36 498.367 266.587 497.38 267.04 496.54C267.493 495.687 268.12 495.027 268.92 494.56C269.733 494.093 270.66 493.86 271.7 493.86C273.047 493.86 274.153 494.187 275.02 494.84C275.9 495.493 276.48 496.4 276.76 497.56H274.8C274.613 496.893 274.247 496.367 273.7 495.98C273.167 495.593 272.5 495.4 271.7 495.4C270.66 495.4 269.82 495.76 269.18 496.48C268.54 497.187 268.22 498.193 268.22 499.5C268.22 500.82 268.54 501.84 269.18 502.56C269.82 503.28 270.66 503.64 271.7 503.64C272.5 503.64 273.167 503.453 273.7 503.08C274.233 502.707 274.6 502.173 274.8 501.48H276.76C276.467 502.6 275.88 503.5 275 504.18C274.12 504.847 273.02 505.18 271.7 505.18C270.66 505.18 269.733 504.947 268.92 504.48C268.12 504.013 267.493 503.353 267.04 502.5C266.587 501.647 266.36 500.647 266.36 499.5ZM288.908 494.04V505H287.088V503.38C286.742 503.94 286.255 504.38 285.628 504.7C285.015 505.007 284.335 505.16 283.588 505.16C282.735 505.16 281.968 504.987 281.288 504.64C280.608 504.28 280.068 503.747 279.668 503.04C279.282 502.333 279.088 501.473 279.088 500.46V494.04H280.888V500.22C280.888 501.3 281.162 502.133 281.708 502.72C282.255 503.293 283.002 503.58 283.948 503.58C284.922 503.58 285.688 503.28 286.248 502.68C286.808 502.08 287.088 501.207 287.088 500.06V494.04H288.908ZM293.801 495.82C294.121 495.193 294.575 494.707 295.161 494.36C295.761 494.013 296.488 493.84 297.341 493.84V495.72H296.861C294.821 495.72 293.801 496.827 293.801 499.04V505H291.981V494.04H293.801V495.82ZM300.382 492.26C300.036 492.26 299.742 492.14 299.502 491.9C299.262 491.66 299.142 491.367 299.142 491.02C299.142 490.673 299.262 490.38 299.502 490.14C299.742 489.9 300.036 489.78 300.382 489.78C300.716 489.78 300.996 489.9 301.222 490.14C301.462 490.38 301.582 490.673 301.582 491.02C301.582 491.367 301.462 491.66 301.222 491.9C300.996 492.14 300.716 492.26 300.382 492.26ZM301.262 494.04V505H299.442V494.04H301.262ZM306.584 495.54V502C306.584 502.533 306.698 502.913 306.924 503.14C307.151 503.353 307.544 503.46 308.104 503.46H309.444V505H307.804C306.791 505 306.031 504.767 305.524 504.3C305.018 503.833 304.764 503.067 304.764 502V495.54H303.344V494.04H304.764V491.28H306.584V494.04H309.444V495.54H306.584ZM321.089 494.04L314.489 510.16H312.609L314.769 504.88L310.349 494.04H312.369L315.809 502.92L319.209 494.04H321.089ZM332.711 495.54H330.411V505H328.591V495.54H327.171V494.04H328.591V493.26C328.591 492.033 328.904 491.14 329.531 490.58C330.171 490.007 331.191 489.72 332.591 489.72V491.24C331.791 491.24 331.224 491.4 330.891 491.72C330.571 492.027 330.411 492.54 330.411 493.26V494.04H332.711V495.54ZM339.613 505.18C338.586 505.18 337.653 504.947 336.813 504.48C335.986 504.013 335.333 503.353 334.853 502.5C334.386 501.633 334.153 500.633 334.153 499.5C334.153 498.38 334.393 497.393 334.873 496.54C335.366 495.673 336.033 495.013 336.873 494.56C337.713 494.093 338.653 493.86 339.693 493.86C340.733 493.86 341.673 494.093 342.513 494.56C343.353 495.013 344.013 495.667 344.493 496.52C344.986 497.373 345.233 498.367 345.233 499.5C345.233 500.633 344.98 501.633 344.473 502.5C343.98 503.353 343.306 504.013 342.453 504.48C341.6 504.947 340.653 505.18 339.613 505.18ZM339.613 503.58C340.266 503.58 340.88 503.427 341.453 503.12C342.026 502.813 342.486 502.353 342.833 501.74C343.193 501.127 343.373 500.38 343.373 499.5C343.373 498.62 343.2 497.873 342.853 497.26C342.506 496.647 342.053 496.193 341.493 495.9C340.933 495.593 340.326 495.44 339.673 495.44C339.006 495.44 338.393 495.593 337.833 495.9C337.286 496.193 336.846 496.647 336.513 497.26C336.18 497.873 336.013 498.62 336.013 499.5C336.013 500.393 336.173 501.147 336.493 501.76C336.826 502.373 337.266 502.833 337.813 503.14C338.36 503.433 338.96 503.58 339.613 503.58ZM349.446 495.82C349.766 495.193 350.219 494.707 350.806 494.36C351.406 494.013 352.133 493.84 352.986 493.84V495.72H352.506C350.466 495.72 349.446 496.827 349.446 499.04V505H347.626V494.04H349.446V495.82ZM369.859 494.04L363.259 510.16H361.379L363.539 504.88L359.119 494.04H361.139L364.579 502.92L367.979 494.04H369.859ZM376.468 505.18C375.442 505.18 374.508 504.947 373.668 504.48C372.842 504.013 372.188 503.353 371.708 502.5C371.242 501.633 371.008 500.633 371.008 499.5C371.008 498.38 371.248 497.393 371.728 496.54C372.222 495.673 372.888 495.013 373.728 494.56C374.568 494.093 375.508 493.86 376.548 493.86C377.588 493.86 378.528 494.093 379.368 494.56C380.208 495.013 380.868 495.667 381.348 496.52C381.842 497.373 382.088 498.367 382.088 499.5C382.088 500.633 381.835 501.633 381.328 502.5C380.835 503.353 380.162 504.013 379.308 504.48C378.455 504.947 377.508 505.18 376.468 505.18ZM376.468 503.58C377.122 503.58 377.735 503.427 378.308 503.12C378.882 502.813 379.342 502.353 379.688 501.74C380.048 501.127 380.228 500.38 380.228 499.5C380.228 498.62 380.055 497.873 379.708 497.26C379.362 496.647 378.908 496.193 378.348 495.9C377.788 495.593 377.182 495.44 376.528 495.44C375.862 495.44 375.248 495.593 374.688 495.9C374.142 496.193 373.702 496.647 373.368 497.26C373.035 497.873 372.868 498.62 372.868 499.5C372.868 500.393 373.028 501.147 373.348 501.76C373.682 502.373 374.122 502.833 374.668 503.14C375.215 503.433 375.815 503.58 376.468 503.58ZM394.201 494.04V505H392.381V503.38C392.035 503.94 391.548 504.38 390.921 504.7C390.308 505.007 389.628 505.16 388.881 505.16C388.028 505.16 387.261 504.987 386.581 504.64C385.901 504.28 385.361 503.747 384.961 503.04C384.575 502.333 384.381 501.473 384.381 500.46V494.04H386.181V500.22C386.181 501.3 386.455 502.133 387.001 502.72C387.548 503.293 388.295 503.58 389.241 503.58C390.215 503.58 390.981 503.28 391.541 502.68C392.101 502.08 392.381 501.207 392.381 500.06V494.04H394.201ZM404.826 495.54V502C404.826 502.533 404.94 502.913 405.166 503.14C405.393 503.353 405.786 503.46 406.346 503.46H407.686V505H406.046C405.033 505 404.273 504.767 403.766 504.3C403.26 503.833 403.006 503.067 403.006 502V495.54H401.586V494.04H403.006V491.28H404.826V494.04H407.686V495.54H404.826ZM414.672 505.18C413.645 505.18 412.712 504.947 411.872 504.48C411.045 504.013 410.392 503.353 409.912 502.5C409.445 501.633 409.212 500.633 409.212 499.5C409.212 498.38 409.452 497.393 409.932 496.54C410.425 495.673 411.092 495.013 411.932 494.56C412.772 494.093 413.712 493.86 414.752 493.86C415.792 493.86 416.732 494.093 417.572 494.56C418.412 495.013 419.072 495.667 419.552 496.52C420.045 497.373 420.292 498.367 420.292 499.5C420.292 500.633 420.038 501.633 419.532 502.5C419.038 503.353 418.365 504.013 417.512 504.48C416.658 504.947 415.712 505.18 414.672 505.18ZM414.672 503.58C415.325 503.58 415.938 503.427 416.512 503.12C417.085 502.813 417.545 502.353 417.892 501.74C418.252 501.127 418.432 500.38 418.432 499.5C418.432 498.62 418.258 497.873 417.912 497.26C417.565 496.647 417.112 496.193 416.552 495.9C415.992 495.593 415.385 495.44 414.732 495.44C414.065 495.44 413.452 495.593 412.892 495.9C412.345 496.193 411.905 496.647 411.572 497.26C411.238 497.873 411.072 498.62 411.072 499.5C411.072 500.393 411.232 501.147 411.552 501.76C411.885 502.373 412.325 502.833 412.872 503.14C413.418 503.433 414.018 503.58 414.672 503.58ZM139.616 523.84C140.95 523.84 142.03 524.247 142.856 525.06C143.683 525.86 144.096 527.02 144.096 528.54V535H142.296V528.8C142.296 527.707 142.023 526.873 141.476 526.3C140.93 525.713 140.183 525.42 139.236 525.42C138.276 525.42 137.51 525.72 136.936 526.32C136.376 526.92 136.096 527.793 136.096 528.94V535H134.276V524.04H136.096V525.6C136.456 525.04 136.943 524.607 137.556 524.3C138.183 523.993 138.87 523.84 139.616 523.84ZM146.389 529.48C146.389 528.36 146.616 527.38 147.069 526.54C147.523 525.687 148.143 525.027 148.929 524.56C149.729 524.093 150.616 523.86 151.589 523.86C152.549 523.86 153.383 524.067 154.089 524.48C154.796 524.893 155.323 525.413 155.669 526.04V524.04H157.509V535H155.669V532.96C155.309 533.6 154.769 534.133 154.049 534.56C153.343 534.973 152.516 535.18 151.569 535.18C150.596 535.18 149.716 534.94 148.929 534.46C148.143 533.98 147.523 533.307 147.069 532.44C146.616 531.573 146.389 530.587 146.389 529.48ZM155.669 529.5C155.669 528.673 155.503 527.953 155.169 527.34C154.836 526.727 154.383 526.26 153.809 525.94C153.249 525.607 152.629 525.44 151.949 525.44C151.269 525.44 150.649 525.6 150.089 525.92C149.529 526.24 149.083 526.707 148.749 527.32C148.416 527.933 148.249 528.653 148.249 529.48C148.249 530.32 148.416 531.053 148.749 531.68C149.083 532.293 149.529 532.767 150.089 533.1C150.649 533.42 151.269 533.58 151.949 533.58C152.629 533.58 153.249 533.42 153.809 533.1C154.383 532.767 154.836 532.293 155.169 531.68C155.503 531.053 155.669 530.327 155.669 529.5ZM164.665 533.32L168.065 524.04H170.005L165.705 535H163.585L159.285 524.04H161.245L164.665 533.32ZM172.736 522.26C172.389 522.26 172.096 522.14 171.856 521.9C171.616 521.66 171.496 521.367 171.496 521.02C171.496 520.673 171.616 520.38 171.856 520.14C172.096 519.9 172.389 519.78 172.736 519.78C173.069 519.78 173.349 519.9 173.576 520.14C173.816 520.38 173.936 520.673 173.936 521.02C173.936 521.367 173.816 521.66 173.576 521.9C173.349 522.14 173.069 522.26 172.736 522.26ZM173.616 524.04V535H171.796V524.04H173.616ZM181.238 523.86C182.184 523.86 183.011 524.067 183.718 524.48C184.438 524.893 184.971 525.413 185.318 526.04V524.04H187.158V535.24C187.158 536.24 186.944 537.127 186.518 537.9C186.091 538.687 185.478 539.3 184.678 539.74C183.891 540.18 182.971 540.4 181.918 540.4C180.478 540.4 179.278 540.06 178.318 539.38C177.358 538.7 176.791 537.773 176.618 536.6H178.418C178.618 537.267 179.031 537.8 179.658 538.2C180.284 538.613 181.038 538.82 181.918 538.82C182.918 538.82 183.731 538.507 184.358 537.88C184.998 537.253 185.318 536.373 185.318 535.24V532.94C184.958 533.58 184.424 534.113 183.718 534.54C183.011 534.967 182.184 535.18 181.238 535.18C180.264 535.18 179.378 534.94 178.578 534.46C177.791 533.98 177.171 533.307 176.718 532.44C176.264 531.573 176.038 530.587 176.038 529.48C176.038 528.36 176.264 527.38 176.718 526.54C177.171 525.687 177.791 525.027 178.578 524.56C179.378 524.093 180.264 523.86 181.238 523.86ZM185.318 529.5C185.318 528.673 185.151 527.953 184.818 527.34C184.484 526.727 184.031 526.26 183.458 525.94C182.898 525.607 182.278 525.44 181.598 525.44C180.918 525.44 180.298 525.6 179.738 525.92C179.178 526.24 178.731 526.707 178.398 527.32C178.064 527.933 177.898 528.653 177.898 529.48C177.898 530.32 178.064 531.053 178.398 531.68C178.731 532.293 179.178 532.767 179.738 533.1C180.298 533.42 180.918 533.58 181.598 533.58C182.278 533.58 182.898 533.42 183.458 533.1C184.031 532.767 184.484 532.293 184.818 531.68C185.151 531.053 185.318 530.327 185.318 529.5ZM189.553 529.48C189.553 528.36 189.78 527.38 190.233 526.54C190.687 525.687 191.307 525.027 192.093 524.56C192.893 524.093 193.78 523.86 194.753 523.86C195.713 523.86 196.547 524.067 197.253 524.48C197.96 524.893 198.487 525.413 198.833 526.04V524.04H200.673V535H198.833V532.96C198.473 533.6 197.933 534.133 197.213 534.56C196.507 534.973 195.68 535.18 194.733 535.18C193.76 535.18 192.88 534.94 192.093 534.46C191.307 533.98 190.687 533.307 190.233 532.44C189.78 531.573 189.553 530.587 189.553 529.48ZM198.833 529.5C198.833 528.673 198.667 527.953 198.333 527.34C198 526.727 197.547 526.26 196.973 525.94C196.413 525.607 195.793 525.44 195.113 525.44C194.433 525.44 193.813 525.6 193.253 525.92C192.693 526.24 192.247 526.707 191.913 527.32C191.58 527.933 191.413 528.653 191.413 529.48C191.413 530.32 191.58 531.053 191.913 531.68C192.247 532.293 192.693 532.767 193.253 533.1C193.813 533.42 194.433 533.58 195.113 533.58C195.793 533.58 196.413 533.42 196.973 533.1C197.547 532.767 198 532.293 198.333 531.68C198.667 531.053 198.833 530.327 198.833 529.5ZM205.969 525.54V532C205.969 532.533 206.082 532.913 206.309 533.14C206.536 533.353 206.929 533.46 207.489 533.46H208.829V535H207.189C206.176 535 205.416 534.767 204.909 534.3C204.402 533.833 204.149 533.067 204.149 532V525.54H202.729V524.04H204.149V521.28H205.969V524.04H208.829V525.54H205.969ZM221.034 529.1C221.034 529.447 221.014 529.813 220.974 530.2H212.214C212.281 531.28 212.647 532.127 213.314 532.74C213.994 533.34 214.814 533.64 215.774 533.64C216.561 533.64 217.214 533.46 217.734 533.1C218.267 532.727 218.641 532.233 218.854 531.62H220.814C220.521 532.673 219.934 533.533 219.054 534.2C218.174 534.853 217.081 535.18 215.774 535.18C214.734 535.18 213.801 534.947 212.974 534.48C212.161 534.013 211.521 533.353 211.054 532.5C210.587 531.633 210.354 530.633 210.354 529.5C210.354 528.367 210.581 527.373 211.034 526.52C211.487 525.667 212.121 525.013 212.934 524.56C213.761 524.093 214.707 523.86 215.774 523.86C216.814 523.86 217.734 524.087 218.534 524.54C219.334 524.993 219.947 525.62 220.374 526.42C220.814 527.207 221.034 528.1 221.034 529.1ZM219.154 528.72C219.154 528.027 219.001 527.433 218.694 526.94C218.387 526.433 217.967 526.053 217.434 525.8C216.914 525.533 216.334 525.4 215.694 525.4C214.774 525.4 213.987 525.693 213.334 526.28C212.694 526.867 212.327 527.68 212.234 528.72H219.154ZM229.709 522.26C229.362 522.26 229.069 522.14 228.829 521.9C228.589 521.66 228.469 521.367 228.469 521.02C228.469 520.673 228.589 520.38 228.829 520.14C229.069 519.9 229.362 519.78 229.709 519.78C230.042 519.78 230.322 519.9 230.549 520.14C230.789 520.38 230.909 520.673 230.909 521.02C230.909 521.367 230.789 521.66 230.549 521.9C230.322 522.14 230.042 522.26 229.709 522.26ZM230.589 524.04V535H228.769V524.04H230.589ZM239.03 523.84C240.364 523.84 241.444 524.247 242.27 525.06C243.097 525.86 243.51 527.02 243.51 528.54V535H241.71V528.8C241.71 527.707 241.437 526.873 240.89 526.3C240.344 525.713 239.597 525.42 238.65 525.42C237.69 525.42 236.924 525.72 236.35 526.32C235.79 526.92 235.51 527.793 235.51 528.94V535H233.69V524.04H235.51V525.6C235.87 525.04 236.357 524.607 236.97 524.3C237.597 523.993 238.284 523.84 239.03 523.84ZM255.695 535.18C254.855 535.18 254.102 535.04 253.435 534.76C252.769 534.467 252.242 534.067 251.855 533.56C251.469 533.04 251.255 532.447 251.215 531.78H253.095C253.149 532.327 253.402 532.773 253.855 533.12C254.322 533.467 254.929 533.64 255.675 533.64C256.369 533.64 256.915 533.487 257.315 533.18C257.715 532.873 257.915 532.487 257.915 532.02C257.915 531.54 257.702 531.187 257.275 530.96C256.849 530.72 256.189 530.487 255.295 530.26C254.482 530.047 253.815 529.833 253.295 529.62C252.789 529.393 252.349 529.067 251.975 528.64C251.615 528.2 251.435 527.627 251.435 526.92C251.435 526.36 251.602 525.847 251.935 525.38C252.269 524.913 252.742 524.547 253.355 524.28C253.969 524 254.669 523.86 255.455 523.86C256.669 523.86 257.649 524.167 258.395 524.78C259.142 525.393 259.542 526.233 259.595 527.3H257.775C257.735 526.727 257.502 526.267 257.075 525.92C256.662 525.573 256.102 525.4 255.395 525.4C254.742 525.4 254.222 525.54 253.835 525.82C253.449 526.1 253.255 526.467 253.255 526.92C253.255 527.28 253.369 527.58 253.595 527.82C253.835 528.047 254.129 528.233 254.475 528.38C254.835 528.513 255.329 528.667 255.955 528.84C256.742 529.053 257.382 529.267 257.875 529.48C258.369 529.68 258.789 529.987 259.135 530.4C259.495 530.813 259.682 531.353 259.695 532.02C259.695 532.62 259.529 533.16 259.195 533.64C258.862 534.12 258.389 534.5 257.775 534.78C257.175 535.047 256.482 535.18 255.695 535.18ZM272.265 529.1C272.265 529.447 272.245 529.813 272.205 530.2H263.445C263.511 531.28 263.878 532.127 264.545 532.74C265.225 533.34 266.045 533.64 267.005 533.64C267.791 533.64 268.445 533.46 268.965 533.1C269.498 532.727 269.871 532.233 270.085 531.62H272.045C271.751 532.673 271.165 533.533 270.285 534.2C269.405 534.853 268.311 535.18 267.005 535.18C265.965 535.18 265.031 534.947 264.205 534.48C263.391 534.013 262.751 533.353 262.285 532.5C261.818 531.633 261.585 530.633 261.585 529.5C261.585 528.367 261.811 527.373 262.265 526.52C262.718 525.667 263.351 525.013 264.165 524.56C264.991 524.093 265.938 523.86 267.005 523.86C268.045 523.86 268.965 524.087 269.765 524.54C270.565 524.993 271.178 525.62 271.605 526.42C272.045 527.207 272.265 528.1 272.265 529.1ZM270.385 528.72C270.385 528.027 270.231 527.433 269.925 526.94C269.618 526.433 269.198 526.053 268.665 525.8C268.145 525.533 267.565 525.4 266.925 525.4C266.005 525.4 265.218 525.693 264.565 526.28C263.925 526.867 263.558 527.68 263.465 528.72H270.385ZM273.987 529.5C273.987 528.367 274.214 527.38 274.667 526.54C275.12 525.687 275.747 525.027 276.547 524.56C277.36 524.093 278.287 523.86 279.327 523.86C280.674 523.86 281.78 524.187 282.647 524.84C283.527 525.493 284.107 526.4 284.387 527.56H282.427C282.24 526.893 281.874 526.367 281.327 525.98C280.794 525.593 280.127 525.4 279.327 525.4C278.287 525.4 277.447 525.76 276.807 526.48C276.167 527.187 275.847 528.193 275.847 529.5C275.847 530.82 276.167 531.84 276.807 532.56C277.447 533.28 278.287 533.64 279.327 533.64C280.127 533.64 280.794 533.453 281.327 533.08C281.86 532.707 282.227 532.173 282.427 531.48H284.387C284.094 532.6 283.507 533.5 282.627 534.18C281.747 534.847 280.647 535.18 279.327 535.18C278.287 535.18 277.36 534.947 276.547 534.48C275.747 534.013 275.12 533.353 274.667 532.5C274.214 531.647 273.987 530.647 273.987 529.5ZM296.535 524.04V535H294.715V533.38C294.369 533.94 293.882 534.38 293.255 534.7C292.642 535.007 291.962 535.16 291.215 535.16C290.362 535.16 289.595 534.987 288.915 534.64C288.235 534.28 287.695 533.747 287.295 533.04C286.909 532.333 286.715 531.473 286.715 530.46V524.04H288.515V530.22C288.515 531.3 288.789 532.133 289.335 532.72C289.882 533.293 290.629 533.58 291.575 533.58C292.549 533.58 293.315 533.28 293.875 532.68C294.435 532.08 294.715 531.207 294.715 530.06V524.04H296.535ZM301.428 525.82C301.748 525.193 302.202 524.707 302.788 524.36C303.388 524.013 304.115 523.84 304.968 523.84V525.72H304.488C302.448 525.72 301.428 526.827 301.428 529.04V535H299.608V524.04H301.428V525.82ZM317.069 529.1C317.069 529.447 317.049 529.813 317.009 530.2H308.249C308.316 531.28 308.683 532.127 309.349 532.74C310.029 533.34 310.849 533.64 311.809 533.64C312.596 533.64 313.249 533.46 313.769 533.1C314.303 532.727 314.676 532.233 314.889 531.62H316.849C316.556 532.673 315.969 533.533 315.089 534.2C314.209 534.853 313.116 535.18 311.809 535.18C310.769 535.18 309.836 534.947 309.009 534.48C308.196 534.013 307.556 533.353 307.089 532.5C306.623 531.633 306.389 530.633 306.389 529.5C306.389 528.367 306.616 527.373 307.069 526.52C307.523 525.667 308.156 525.013 308.969 524.56C309.796 524.093 310.743 523.86 311.809 523.86C312.849 523.86 313.769 524.087 314.569 524.54C315.369 524.993 315.983 525.62 316.409 526.42C316.849 527.207 317.069 528.1 317.069 529.1ZM315.189 528.72C315.189 528.027 315.036 527.433 314.729 526.94C314.423 526.433 314.003 526.053 313.469 525.8C312.949 525.533 312.369 525.4 311.729 525.4C310.809 525.4 310.023 525.693 309.369 526.28C308.729 526.867 308.363 527.68 308.269 528.72H315.189ZM223.544 554.04L220.124 565H218.244L215.604 556.3L212.964 565H211.084L207.644 554.04H209.504L212.024 563.24L214.744 554.04H216.604L219.264 563.26L221.744 554.04H223.544ZM224.671 559.48C224.671 558.36 224.897 557.38 225.351 556.54C225.804 555.687 226.424 555.027 227.211 554.56C228.011 554.093 228.897 553.86 229.871 553.86C230.831 553.86 231.664 554.067 232.371 554.48C233.077 554.893 233.604 555.413 233.951 556.04V554.04H235.791V565H233.951V562.96C233.591 563.6 233.051 564.133 232.331 564.56C231.624 564.973 230.797 565.18 229.851 565.18C228.877 565.18 227.997 564.94 227.211 564.46C226.424 563.98 225.804 563.307 225.351 562.44C224.897 561.573 224.671 560.587 224.671 559.48ZM233.951 559.5C233.951 558.673 233.784 557.953 233.451 557.34C233.117 556.727 232.664 556.26 232.091 555.94C231.531 555.607 230.911 555.44 230.231 555.44C229.551 555.44 228.931 555.6 228.371 555.92C227.811 556.24 227.364 556.707 227.031 557.32C226.697 557.933 226.531 558.653 226.531 559.48C226.531 560.32 226.697 561.053 227.031 561.68C227.364 562.293 227.811 562.767 228.371 563.1C228.931 563.42 229.551 563.58 230.231 563.58C230.911 563.58 231.531 563.42 232.091 563.1C232.664 562.767 233.117 562.293 233.451 561.68C233.784 561.053 233.951 560.327 233.951 559.5ZM248.306 554.04L241.706 570.16H239.826L241.986 564.88L237.566 554.04H239.586L243.026 562.92L246.426 554.04H248.306Z" fill="white"/>
<path d="M275.017 28.8974C307.44 41.4567 337.653 57.0562 364.169 79.5496C392.116 103.257 418.073 129.408 432.971 162.891C449.181 199.323 462.27 240.052 452.819 278.791C443.345 317.62 410.429 344.976 381.753 372.817C353.724 400.031 324.896 427.579 287.598 439.203C249.821 450.977 208.724 450.193 170.914 438.526C134.038 427.147 101.988 403.649 77.0185 374.222C53.3194 346.293 45.1037 310.179 32.7475 275.696C19.5043 238.739 -7.03292 202.42 1.74381 164.155C10.532 125.84 50.4408 104.844 78.2969 77.1077C105.729 49.7934 126.821 11.3922 164.421 2.17779C201.895 -7.0061 239.038 14.9612 275.017 28.8974Z" fill="white"/>
<g clip-path="url(#clip0_249_473)">
<path d="M389 216.213H388.493V194.13C388.493 192.452 388.285 190.79 387.882 189.239C387.478 187.689 386.886 186.28 386.14 185.093C385.394 183.906 384.509 182.965 383.534 182.322C382.56 181.68 381.515 181.35 380.46 181.35H351.054C349.999 181.35 348.954 181.68 347.98 182.322C347.005 182.965 346.12 183.906 345.374 185.093C344.628 186.28 344.036 187.689 343.632 189.239C343.229 190.79 343.021 192.452 343.021 194.13V315.277C343.021 316.955 343.229 318.617 343.632 320.168C344.036 321.719 344.628 323.128 345.374 324.314C346.12 325.501 347.005 326.443 347.98 327.085C348.954 327.727 349.999 328.058 351.054 328.058H380.46C381.515 328.058 382.56 327.727 383.534 327.085C384.509 326.443 385.394 325.501 386.14 324.314C386.886 323.128 387.478 321.719 387.882 320.168C388.285 318.617 388.493 316.955 388.493 315.277V231.932H389V216.213Z" fill="#3F3D56"/>
<path d="M386.784 194.881V315.852C386.784 318.383 386.152 320.811 385.027 322.602C383.901 324.392 382.375 325.398 380.784 325.398H351.237C350.449 325.398 349.669 325.15 348.941 324.671C348.213 324.191 347.552 323.488 346.995 322.601C346.438 321.715 345.996 320.662 345.695 319.504C345.394 318.346 345.239 317.105 345.239 315.852V194.881C345.239 192.351 345.871 189.924 346.996 188.135C348.121 186.345 349.646 185.34 351.237 185.34H354.821C354.645 186.028 354.578 186.775 354.626 187.514C354.674 188.253 354.836 188.963 355.096 189.579C355.357 190.196 355.709 190.702 356.121 191.051C356.533 191.401 356.993 191.584 357.46 191.585H374.307C374.775 191.587 375.235 191.405 375.648 191.056C376.061 190.706 376.413 190.201 376.674 189.583C376.935 188.966 377.096 188.256 377.144 187.516C377.191 186.775 377.123 186.028 376.946 185.34H380.784C382.375 185.34 383.901 186.345 385.026 188.134C386.151 189.923 386.783 192.35 386.784 194.881Z" fill="#D0CDE1"/>
<path d="M381.19 247.273H346.842V262.02H381.19V247.273Z" fill="#5157E0"/>
<path d="M382.553 259.417H349.296C349.079 259.417 348.871 259.28 348.718 259.036C348.564 258.792 348.478 258.461 348.478 258.116V245.105C348.478 244.76 348.564 244.429 348.718 244.185C348.871 243.941 349.079 243.804 349.296 243.804H382.553C382.77 243.804 382.978 243.941 383.131 244.185C383.285 244.429 383.371 244.76 383.371 245.105V258.116C383.371 258.461 383.285 258.792 383.131 259.036C382.978 259.28 382.77 259.417 382.553 259.417ZM349.296 244.671C349.223 244.671 349.154 244.717 349.103 244.798C349.052 244.88 349.023 244.99 349.023 245.105V258.116C349.023 258.231 349.052 258.342 349.103 258.423C349.154 258.504 349.223 258.55 349.296 258.55H382.553C382.625 258.55 382.695 258.504 382.746 258.423C382.797 258.342 382.826 258.231 382.826 258.116V245.105C382.826 244.99 382.797 244.88 382.746 244.798C382.695 244.717 382.625 244.671 382.553 244.671H349.296Z" fill="#3F3D56"/>
<path d="M355.02 255.514H350.658V256.381H355.02V255.514Z" fill="#3F3D56"/>
<path d="M361.017 255.514H356.656V256.381H361.017V255.514Z" fill="#3F3D56"/>
<path d="M367.015 255.514H362.653V256.381H367.015V255.514Z" fill="#3F3D56"/>
<path d="M373.012 255.514H368.65V256.381H373.012V255.514Z" fill="#3F3D56"/>
<path d="M379.009 255.514H374.648V256.381H379.009V255.514Z" fill="#3F3D56"/>
<path opacity="0.1" d="M386.784 303.552V315.852C386.784 318.383 386.152 320.811 385.027 322.602C383.901 324.392 382.375 325.398 380.784 325.398H351.237C350.449 325.398 349.669 325.15 348.941 324.671C348.213 324.191 347.552 323.488 346.995 322.601C346.438 321.715 345.996 320.662 345.695 319.504C345.394 318.346 345.239 317.105 345.239 315.852V259.27L386.784 303.552Z" fill="black"/>
<path d="M245.161 292.379H116.22V393H245.161V292.379Z" fill="#D0CDE1"/>
<path opacity="0.1" d="M212.381 393H116.765C116.62 392.999 116.482 392.908 116.38 392.745C116.278 392.583 116.22 392.362 116.22 392.133V293.247C116.22 293.017 116.278 292.797 116.38 292.634C116.482 292.472 116.62 292.38 116.765 292.379H117.975L212.381 393Z" fill="black"/>
<path d="M375.738 305.824H175.92V306.692H375.738V305.824Z" fill="#3F3D56"/>
<path d="M239.093 94.8727H181.986V93H156.091V94.8727H98.7482C98.2409 94.8727 97.7386 95.0316 97.2699 95.3405C96.8012 95.6493 96.3754 96.102 96.0167 96.6727C95.658 97.2434 95.3734 97.9209 95.1793 98.6666C94.9852 99.4122 94.8853 100.211 94.8853 101.018V225.431C94.8853 227.061 95.2922 228.624 96.0167 229.776C96.7411 230.929 97.7236 231.577 98.7482 231.577H239.093C240.118 231.577 241.101 230.929 241.825 229.776C242.549 228.624 242.956 227.061 242.956 225.431V101.018C242.956 100.211 242.856 99.4122 242.662 98.6666C242.468 97.9209 242.184 97.2434 241.825 96.6727C241.466 96.102 241.04 95.6493 240.572 95.3405C240.103 95.0316 239.601 94.8727 239.093 94.8727Z" fill="#3F3D56"/>
<path d="M237.776 105.732H100.065V229.331H237.776V105.732Z" fill="#D0CDE1"/>
<path d="M168.803 102.363C169.583 102.363 170.216 101.357 170.216 100.116C170.216 98.875 169.583 97.8689 168.803 97.8689C168.023 97.8689 167.391 98.875 167.391 100.116C167.391 101.357 168.023 102.363 168.803 102.363Z" fill="#5157E0"/>
<path d="M141.027 151.857H137.756C137.539 151.857 137.331 151.72 137.178 151.476C137.024 151.232 136.938 150.901 136.938 150.556V145.352C136.938 145.007 137.024 144.676 137.178 144.432C137.331 144.188 137.539 144.051 137.756 144.051H141.027C141.244 144.051 141.451 144.188 141.605 144.432C141.758 144.676 141.844 145.007 141.845 145.352V150.556C141.844 150.901 141.758 151.232 141.605 151.476C141.451 151.72 141.244 151.857 141.027 151.857ZM137.756 144.918C137.683 144.918 137.614 144.964 137.563 145.045C137.512 145.127 137.483 145.237 137.483 145.352V150.556C137.483 150.671 137.512 150.781 137.563 150.863C137.614 150.944 137.683 150.99 137.756 150.99H141.027C141.099 150.99 141.168 150.944 141.219 150.863C141.271 150.781 141.299 150.671 141.299 150.556V145.352C141.299 145.237 141.271 145.127 141.219 145.045C141.168 144.964 141.099 144.918 141.027 144.918H137.756Z" fill="#3F3D56"/>
<path d="M199.364 150.99H137.21V151.857H199.364V150.99Z" fill="#3F3D56"/>
<path d="M197.728 174.844H183.28V181.783H197.728V174.844Z" fill="#5157E0"/>
<path d="M198.819 180.049H185.461C185.244 180.048 185.036 179.911 184.883 179.667C184.73 179.423 184.644 179.092 184.643 178.747V173.543C184.644 173.198 184.73 172.867 184.883 172.623C185.036 172.379 185.244 172.242 185.461 172.242H198.819C199.036 172.242 199.243 172.379 199.397 172.623C199.55 172.867 199.636 173.198 199.636 173.543V178.747C199.636 179.092 199.55 179.423 199.397 179.667C199.243 179.911 199.036 180.048 198.819 180.049ZM185.461 173.109C185.389 173.109 185.32 173.155 185.268 173.236C185.217 173.318 185.189 173.428 185.189 173.543V178.747C185.189 178.862 185.217 178.973 185.268 179.054C185.32 179.135 185.389 179.181 185.461 179.181H198.819C198.891 179.181 198.96 179.135 199.011 179.054C199.062 178.973 199.091 178.862 199.091 178.747V173.543C199.091 173.428 199.062 173.318 199.011 173.236C198.96 173.155 198.891 173.109 198.819 173.109H185.461Z" fill="#3F3D56"/>
<path d="M308.132 182.651H280.872V213.01H308.132V182.651Z" fill="#5157E0"/>
<path d="M310.858 210.625H284.689C284.399 210.625 284.122 210.442 283.918 210.116C283.713 209.791 283.598 209.35 283.598 208.89V180.265C283.598 179.805 283.713 179.364 283.918 179.039C284.122 178.714 284.399 178.531 284.689 178.531H310.858C311.148 178.531 311.425 178.714 311.629 179.039C311.834 179.364 311.949 179.805 311.949 180.265V208.89C311.949 209.35 311.834 209.791 311.629 210.116C311.425 210.442 311.148 210.625 310.858 210.625ZM284.689 180.265V208.89H310.859L310.858 180.265H284.689Z" fill="#3F3D56"/>
<path d="M307.86 179.181H306.769C306.769 175.385 305.822 171.745 304.135 169.061C302.448 166.377 300.159 164.869 297.774 164.869C295.388 164.869 293.1 166.377 291.413 169.061C289.725 171.745 288.778 175.385 288.778 179.181H287.687C287.687 174.925 288.75 170.843 290.641 167.834C292.533 164.825 295.099 163.134 297.774 163.134C300.449 163.134 303.014 164.825 304.906 167.834C306.797 170.843 307.86 174.925 307.86 179.181Z" fill="#3F3D56"/>
<path d="M300.5 191.108C300.5 190.353 300.377 189.61 300.141 188.954C299.906 188.298 299.568 187.751 299.159 187.368C298.75 186.984 298.285 186.777 297.81 186.766C297.336 186.756 296.868 186.943 296.452 187.309C296.037 187.675 295.689 188.207 295.443 188.853C295.197 189.499 295.061 190.235 295.048 190.99C295.036 191.745 295.148 192.492 295.373 193.158C295.597 193.823 295.928 194.383 296.33 194.783V199.438C296.33 199.739 296.368 200.038 296.44 200.317C296.513 200.595 296.619 200.848 296.753 201.061C296.887 201.275 297.046 201.444 297.221 201.559C297.396 201.675 297.584 201.734 297.774 201.734C298.156 201.734 298.523 201.492 298.794 201.061C299.065 200.631 299.217 200.047 299.217 199.438V194.783C299.609 194.394 299.933 193.853 300.157 193.21C300.382 192.567 300.499 191.844 300.5 191.108Z" fill="#3F3D56"/>
<path d="M170.877 337.051H166.515V337.919H170.877V337.051Z" fill="#3F3D56"/>
<path d="M176.874 337.051H172.512V337.919H176.874V337.051Z" fill="#3F3D56"/>
<path d="M182.871 337.051H178.51V337.919H182.871V337.051Z" fill="#3F3D56"/>
<path d="M188.868 337.051H184.507V337.919H188.868V337.051Z" fill="#3F3D56"/>
<path d="M194.866 337.051H190.504V337.919H194.866V337.051Z" fill="#3F3D56"/>
<path d="M250.886 385.627H123.035C122.746 385.626 122.469 385.444 122.264 385.118C122.06 384.793 121.945 384.352 121.945 383.892V285.006C121.945 284.546 122.06 284.105 122.264 283.78C122.469 283.455 122.746 283.272 123.035 283.271H250.886C251.175 283.272 251.452 283.455 251.656 283.78C251.861 284.105 251.976 284.546 251.976 285.006V383.892C251.976 384.352 251.861 384.793 251.656 385.118C251.452 385.444 251.175 385.627 250.886 385.627ZM123.035 285.006V383.892H250.887L250.886 285.006H123.035Z" fill="#3F3D56"/>
<path d="M128.76 299.752C129.663 299.752 130.395 298.587 130.395 297.15C130.395 295.713 129.663 294.548 128.76 294.548C127.856 294.548 127.124 295.713 127.124 297.15C127.124 298.587 127.856 299.752 128.76 299.752Z" fill="#3F3D56"/>
<path d="M134.484 299.752C135.388 299.752 136.12 298.587 136.12 297.15C136.12 295.713 135.388 294.548 134.484 294.548C133.581 294.548 132.849 295.713 132.849 297.15C132.849 298.587 133.581 299.752 134.484 299.752Z" fill="#3F3D56"/>
<path d="M140.209 299.752C141.112 299.752 141.844 298.587 141.844 297.15C141.844 295.713 141.112 294.548 140.209 294.548C139.306 294.548 138.573 295.713 138.573 297.15C138.573 298.587 139.306 299.752 140.209 299.752Z" fill="#3F3D56"/>
<path d="M199.091 343.123H162.29C162.073 343.123 161.865 342.986 161.712 342.742C161.558 342.498 161.472 342.167 161.472 341.822V327.076C161.472 326.731 161.558 326.4 161.712 326.156C161.865 325.913 162.073 325.775 162.29 325.775H199.091C199.308 325.775 199.516 325.913 199.669 326.156C199.823 326.4 199.909 326.731 199.909 327.076V341.822C199.909 342.167 199.823 342.498 199.669 342.742C199.516 342.986 199.308 343.123 199.091 343.123ZM162.29 326.642C162.217 326.642 162.148 326.688 162.097 326.77C162.046 326.851 162.017 326.961 162.017 327.076V341.822C162.017 341.937 162.046 342.047 162.097 342.129C162.148 342.21 162.217 342.256 162.29 342.256H199.091C199.163 342.256 199.233 342.21 199.284 342.129C199.335 342.047 199.364 341.937 199.364 341.822V327.076C199.364 326.961 199.335 326.851 199.284 326.77C199.233 326.688 199.163 326.642 199.091 326.642H162.29Z" fill="#3F3D56"/>
<path d="M208.36 343.557C211.07 343.557 213.267 340.062 213.267 335.75C213.267 331.439 211.07 327.944 208.36 327.944C205.65 327.944 203.453 331.439 203.453 335.75C203.453 340.062 205.65 343.557 208.36 343.557Z" fill="#5157E0"/>
<path d="M209.995 342.69C208.971 342.69 207.97 342.206 207.118 341.301C206.266 340.395 205.602 339.108 205.21 337.603C204.818 336.097 204.716 334.44 204.915 332.842C205.115 331.243 205.609 329.775 206.333 328.622C207.057 327.47 207.98 326.685 208.985 326.367C209.99 326.049 211.031 326.212 211.977 326.836C212.924 327.46 213.733 328.516 214.302 329.871C214.871 331.226 215.175 332.819 215.175 334.449C215.173 336.634 214.627 338.728 213.656 340.273C212.685 341.818 211.369 342.687 209.995 342.69ZM209.995 327.076C209.079 327.076 208.183 327.509 207.421 328.319C206.659 329.129 206.065 330.28 205.714 331.628C205.363 332.975 205.271 334.457 205.45 335.888C205.629 337.318 206.07 338.632 206.718 339.663C207.367 340.694 208.192 341.396 209.091 341.681C209.99 341.965 210.922 341.819 211.769 341.261C212.616 340.703 213.339 339.758 213.849 338.545C214.358 337.333 214.63 335.907 214.63 334.449C214.628 332.494 214.14 330.62 213.271 329.238C212.402 327.856 211.224 327.078 209.995 327.076Z" fill="#3F3D56"/>
<path d="M210.068 337.527L207.429 333.328L208.2 332.101L209.922 334.841L214.729 323.974L215.621 324.973L210.068 337.527Z" fill="#3F3D56"/>
<path opacity="0.1" d="M207.245 229.331H100.065V115.096L207.245 229.331Z" fill="black"/>
<path d="M246.823 227.082H233.383V225.542C233.383 225.501 233.378 225.462 233.368 225.425C233.359 225.388 233.345 225.354 233.327 225.326C233.309 225.297 233.288 225.275 233.265 225.259C233.241 225.244 233.216 225.236 233.191 225.236H228.583C228.558 225.236 228.533 225.244 228.51 225.259C228.486 225.275 228.465 225.297 228.447 225.326C228.43 225.354 228.415 225.388 228.406 225.425C228.396 225.462 228.391 225.501 228.391 225.542V227.082H225.511V225.542C225.511 225.501 225.506 225.462 225.497 225.425C225.487 225.388 225.473 225.354 225.455 225.326C225.437 225.297 225.416 225.275 225.393 225.259C225.369 225.244 225.344 225.236 225.319 225.236H220.711C220.686 225.236 220.661 225.244 220.638 225.259C220.614 225.275 220.593 225.297 220.575 225.326C220.558 225.354 220.543 225.388 220.534 225.425C220.524 225.462 220.519 225.501 220.519 225.542V227.082H217.639V225.542C217.639 225.501 217.634 225.462 217.625 225.425C217.615 225.388 217.601 225.354 217.583 225.326C217.565 225.297 217.544 225.275 217.521 225.259C217.497 225.244 217.472 225.236 217.447 225.236H212.839C212.814 225.236 212.789 225.244 212.766 225.259C212.742 225.275 212.721 225.297 212.703 225.326C212.686 225.354 212.671 225.388 212.662 225.425C212.652 225.462 212.647 225.501 212.647 225.542V227.082H209.767V225.542C209.767 225.501 209.762 225.462 209.753 225.425C209.743 225.388 209.729 225.354 209.711 225.326C209.693 225.297 209.672 225.275 209.649 225.259C209.625 225.244 209.6 225.236 209.575 225.236H204.967C204.942 225.236 204.917 225.244 204.894 225.259C204.87 225.275 204.849 225.297 204.832 225.326C204.814 225.354 204.8 225.388 204.79 225.425C204.78 225.462 204.775 225.501 204.775 225.542V227.082H201.895V225.542C201.895 225.501 201.89 225.462 201.881 225.425C201.871 225.388 201.857 225.354 201.839 225.326C201.821 225.297 201.8 225.275 201.777 225.259C201.753 225.244 201.729 225.236 201.703 225.236H197.095C197.07 225.236 197.045 225.244 197.022 225.259C196.999 225.275 196.977 225.297 196.96 225.326C196.942 225.354 196.928 225.388 196.918 225.425C196.908 225.462 196.903 225.501 196.903 225.542V227.082H194.023V225.542C194.023 225.501 194.018 225.462 194.009 225.425C193.999 225.388 193.985 225.354 193.967 225.326C193.949 225.297 193.928 225.275 193.905 225.259C193.882 225.244 193.857 225.236 193.831 225.236H189.223C189.198 225.236 189.173 225.244 189.15 225.259C189.127 225.275 189.105 225.297 189.088 225.326C189.07 225.354 189.056 225.388 189.046 225.425C189.036 225.462 189.031 225.501 189.031 225.542V227.082H186.151V225.542C186.151 225.501 186.146 225.462 186.137 225.425C186.127 225.388 186.113 225.354 186.095 225.326C186.077 225.297 186.056 225.275 186.033 225.259C186.01 225.244 185.985 225.236 185.959 225.236H149.864C149.838 225.236 149.813 225.244 149.79 225.259C149.767 225.275 149.746 225.297 149.728 225.326C149.71 225.354 149.696 225.388 149.686 225.425C149.677 225.462 149.672 225.501 149.672 225.542V227.082H146.792V225.542C146.792 225.501 146.787 225.462 146.777 225.425C146.767 225.388 146.753 225.354 146.735 225.326C146.718 225.297 146.696 225.275 146.673 225.259C146.65 225.244 146.625 225.236 146.6 225.236H141.992C141.966 225.236 141.941 225.244 141.918 225.259C141.895 225.275 141.874 225.297 141.856 225.326C141.838 225.354 141.824 225.388 141.814 225.425C141.805 225.462 141.8 225.501 141.8 225.542V227.082H138.92V225.542C138.92 225.501 138.915 225.462 138.905 225.425C138.895 225.388 138.881 225.354 138.863 225.326C138.846 225.297 138.824 225.275 138.801 225.259C138.778 225.244 138.753 225.236 138.728 225.236H134.12C134.095 225.236 134.07 225.244 134.046 225.259C134.023 225.275 134.002 225.297 133.984 225.326C133.966 225.354 133.952 225.388 133.942 225.425C133.933 225.462 133.928 225.501 133.928 225.542V227.082H131.048V225.542C131.048 225.501 131.043 225.462 131.033 225.425C131.023 225.388 131.009 225.354 130.992 225.326C130.974 225.297 130.953 225.275 130.929 225.259C130.906 225.244 130.881 225.236 130.856 225.236H126.248C126.223 225.236 126.198 225.244 126.174 225.259C126.151 225.275 126.13 225.297 126.112 225.326C126.094 225.354 126.08 225.388 126.07 225.425C126.061 225.462 126.056 225.501 126.056 225.542V227.082H123.176V225.542C123.176 225.501 123.171 225.462 123.161 225.425C123.152 225.388 123.137 225.354 123.12 225.326C123.102 225.297 123.081 225.275 123.057 225.259C123.034 225.244 123.009 225.236 122.984 225.236H118.376C118.351 225.236 118.326 225.244 118.302 225.259C118.279 225.275 118.258 225.297 118.24 225.326C118.222 225.354 118.208 225.388 118.198 225.425C118.189 225.462 118.184 225.501 118.184 225.542V227.082H115.304V225.542C115.304 225.501 115.299 225.462 115.289 225.425C115.28 225.388 115.265 225.354 115.248 225.326C115.23 225.297 115.209 225.275 115.185 225.259C115.162 225.244 115.137 225.236 115.112 225.236H110.504C110.479 225.236 110.454 225.244 110.43 225.259C110.407 225.275 110.386 225.297 110.368 225.326C110.35 225.354 110.336 225.388 110.326 225.425C110.317 225.462 110.312 225.501 110.312 225.542V227.082H107.432V225.542C107.432 225.501 107.427 225.462 107.417 225.425C107.408 225.388 107.393 225.354 107.376 225.326C107.358 225.297 107.337 225.275 107.313 225.259C107.29 225.244 107.265 225.236 107.24 225.236H102.632C102.607 225.236 102.582 225.244 102.558 225.259C102.535 225.275 102.514 225.297 102.496 225.326C102.478 225.354 102.464 225.388 102.455 225.425C102.445 225.462 102.44 225.501 102.44 225.542V227.082H93.608C93.0028 227.082 92.4036 227.272 91.8446 227.64C91.2855 228.009 90.7775 228.549 90.3496 229.229C89.9218 229.91 89.5823 230.718 89.3508 231.608C89.1192 232.497 89 233.451 89 234.413V237.728C89 239.673 89.4855 241.538 90.3496 242.912C91.2138 244.287 92.3859 245.06 93.608 245.06H246.823C247.428 245.06 248.027 244.87 248.586 244.502C249.145 244.133 249.653 243.593 250.081 242.912C250.509 242.232 250.849 241.423 251.08 240.534C251.312 239.645 251.431 238.691 251.431 237.728V234.413C251.431 233.451 251.312 232.497 251.08 231.608C250.849 230.718 250.509 229.91 250.081 229.229C249.653 228.549 249.145 228.009 248.586 227.64C248.027 227.272 247.428 227.082 246.823 227.082Z" fill="#3F3D56"/>
<path d="M204.816 187.422H132.849C132.632 187.421 132.424 187.284 132.271 187.04C132.117 186.796 132.031 186.465 132.031 186.12V138.412C132.031 138.067 132.117 137.737 132.271 137.493C132.424 137.249 132.632 137.112 132.849 137.111H204.816C205.033 137.112 205.241 137.249 205.394 137.493C205.547 137.737 205.633 138.067 205.634 138.412V186.12C205.633 186.465 205.547 186.796 205.394 187.04C205.241 187.284 205.033 187.421 204.816 187.422ZM132.849 137.979C132.776 137.979 132.707 138.025 132.656 138.106C132.605 138.187 132.576 138.297 132.576 138.412V186.12C132.576 186.235 132.605 186.346 132.656 186.427C132.707 186.508 132.776 186.554 132.849 186.554H204.816C204.888 186.554 204.957 186.508 205.008 186.427C205.06 186.346 205.088 186.235 205.088 186.12V138.412C205.088 138.297 205.06 138.187 205.008 138.106C204.957 138.025 204.888 137.979 204.816 137.979H132.849Z" fill="#3F3D56"/>
<path d="M141.027 164.869H137.756C137.539 164.868 137.331 164.731 137.178 164.487C137.024 164.243 136.938 163.913 136.938 163.568V158.363C136.938 158.018 137.024 157.687 137.178 157.443C137.331 157.199 137.539 157.062 137.756 157.062H141.027C141.244 157.062 141.451 157.199 141.605 157.443C141.758 157.687 141.844 158.018 141.845 158.363V163.568C141.844 163.913 141.758 164.243 141.605 164.487C141.451 164.731 141.244 164.868 141.027 164.869ZM137.756 157.929C137.683 157.929 137.614 157.975 137.563 158.057C137.512 158.138 137.483 158.248 137.483 158.363V163.568C137.483 163.683 137.512 163.793 137.563 163.874C137.614 163.955 137.683 164.001 137.756 164.001H141.027C141.099 164.001 141.168 163.955 141.219 163.874C141.271 163.793 141.299 163.683 141.299 163.568V158.363C141.299 158.248 141.271 158.138 141.219 158.057C141.168 157.975 141.099 157.929 141.027 157.929H137.756Z" fill="#3F3D56"/>
<path d="M199.364 164.001H137.21V164.869H199.364V164.001Z" fill="#3F3D56"/>
<path d="M361.017 209.974H161.199V210.842H361.017V209.974Z" fill="#3F3D56"/>
<path d="M161.199 216.046C163.307 216.046 165.016 213.328 165.016 209.974C165.016 206.621 163.307 203.903 161.199 203.903C159.091 203.903 157.383 206.621 157.383 209.974C157.383 213.328 159.091 216.046 161.199 216.046Z" fill="#3F3D56"/>
<path d="M361.017 215.613C362.674 215.613 364.016 213.477 364.016 210.842C364.016 208.207 362.674 206.071 361.017 206.071C359.361 206.071 358.019 208.207 358.019 210.842C358.019 213.477 359.361 215.613 361.017 215.613Z" fill="#3F3D56"/>
<path d="M375.738 311.463C377.394 311.463 378.737 309.327 378.737 306.692C378.737 304.057 377.394 301.921 375.738 301.921C374.082 301.921 372.74 304.057 372.74 306.692C372.74 309.327 374.082 311.463 375.738 311.463Z" fill="#3F3D56"/>
<path d="M176.738 311.463C178.394 311.463 179.736 309.327 179.736 306.692C179.736 304.057 178.394 301.921 176.738 301.921C175.082 301.921 173.739 304.057 173.739 306.692C173.739 309.327 175.082 311.463 176.738 311.463Z" fill="#3F3D56"/>
</g>
<defs>
<clipPath id="clip0_249_473">
<rect width="300" height="300" fill="white" transform="translate(89 93)"/>
</clipPath>
</defs>
</svg>
