<svg width="30" height="72" viewBox="0 0 30 72" fill="none" xmlns="http://www.w3.org/2000/svg">
<path fill-rule="evenodd" clip-rule="evenodd" d="M15 72C23.2843 72 30 65.2843 30 57C30 48.7157 23.2843 42 15 42C6.71573 42 0 48.7157 0 57C0 65.2843 6.71573 72 15 72ZM20.1693 54.2923C20.1693 57.1688 17.252 64.084 14.8773 64.084C12.5026 64.084 9.58594 57.1688 9.58594 54.2923C9.58594 51.4158 12.0008 49.084 14.8773 49.084C17.7538 49.084 20.1693 51.4158 20.1693 54.2923ZM17.5 54.5C17.5 55.8807 16.3807 57 15 57C13.6193 57 12.5 55.8807 12.5 54.5C12.5 53.1193 13.6193 52 15 52C16.3807 52 17.5 53.1193 17.5 54.5Z" fill="#40B59F"/>
<circle cx="14" cy="5" r="5" fill="#2DBB54"/>
<line x1="14.25" y1="38.0117" x2="14.25" y2="13.0117" stroke="#CCCCCC" stroke-width="2"/>
</svg>
