<svg width="28" height="28" viewBox="0 0 28 28" fill="none" xmlns="http://www.w3.org/2000/svg">
<path d="M14.8295 15.4001L11.6087 18.606C11.4775 18.7362 11.3733 18.891 11.3022 19.0616C11.2311 19.2322 11.1945 19.4152 11.1945 19.6C11.1945 19.7849 11.2311 19.9678 11.3022 20.1384C11.3733 20.309 11.4775 20.4639 11.6087 20.594C11.7389 20.7253 11.8938 20.8294 12.0644 20.9005C12.2351 20.9716 12.4181 21.0082 12.603 21.0082C12.7878 21.0082 12.9708 20.9716 13.1415 20.9005C13.3121 20.8294 13.467 20.7253 13.5972 20.594L19.1985 14.9941C19.326 14.8609 19.4259 14.7039 19.4926 14.5321C19.6326 14.1912 19.6326 13.8089 19.4926 13.4681C19.4259 13.2962 19.326 13.1392 19.1985 13.0061L13.5972 7.4061C13.4666 7.27557 13.3116 7.17202 13.141 7.10138C12.9704 7.03074 12.7876 6.99438 12.603 6.99438C12.4183 6.99438 12.2355 7.03074 12.0649 7.10138C11.8943 7.17202 11.7393 7.27557 11.6087 7.4061C11.4782 7.53664 11.3746 7.6916 11.3039 7.86215C11.2333 8.0327 11.1969 8.21549 11.1969 8.4001C11.1969 8.5847 11.2333 8.76749 11.3039 8.93804C11.3746 9.10859 11.4782 9.26356 11.6087 9.39409L14.8295 12.6001H1.40033C1.02894 12.6001 0.672759 12.7476 0.410147 13.0101C0.147534 13.2727 0 13.6288 0 14.0001C0 14.3714 0.147534 14.7275 0.410147 14.99C0.672759 15.2526 1.02894 15.4001 1.40033 15.4001H14.8295ZM14.0033 0.00013957C11.3862 -0.0115417 8.81821 0.710234 6.5906 2.0836C4.36299 3.45696 2.56492 5.42695 1.40033 7.7701C1.2332 8.10427 1.2057 8.49113 1.32388 8.84557C1.44205 9.20001 1.69623 9.493 2.03048 9.66009C2.36473 9.82718 2.75168 9.85467 3.10621 9.73652C3.46073 9.61838 3.75379 9.36426 3.92092 9.03009C4.8062 7.24275 6.15281 5.72418 7.8216 4.6313C9.4904 3.53842 11.4208 2.91089 13.4134 2.81355C15.406 2.71622 17.3884 3.15261 19.1558 4.07763C20.9232 5.00266 22.4115 6.38275 23.4669 8.07529C24.5222 9.76784 25.1063 11.7114 25.1589 13.7052C25.2114 15.699 24.7304 17.6706 23.7657 19.4164C22.801 21.1621 21.3874 22.6186 19.6712 23.6354C17.9549 24.6522 15.9982 25.1923 14.0033 25.2C11.9152 25.2091 9.86693 24.6293 8.09347 23.5274C6.32 22.4254 4.89325 20.8459 3.97693 18.97C3.80981 18.6359 3.51675 18.3818 3.16222 18.2636C2.80769 18.1455 2.42074 18.173 2.08649 18.34C1.75224 18.5071 1.49807 18.8001 1.37989 19.1546C1.26172 19.509 1.28922 19.8959 1.45634 20.23C2.56656 22.4637 4.25353 24.3603 6.34275 25.7237C8.43197 27.087 10.8476 27.8676 13.3397 27.9846C15.8318 28.1016 18.31 27.5509 20.5178 26.3893C22.7257 25.2278 24.583 23.4976 25.8978 21.3778C27.2125 19.258 27.9369 16.8254 27.9961 14.3319C28.0552 11.8383 27.4469 9.3742 26.2341 7.19447C25.0213 5.01473 23.248 3.19852 21.0977 1.93368C18.9474 0.668839 16.4982 0.0013106 14.0033 0.00013957Z" fill="#656565"/>
</svg>
