<svg width="118" height="16" viewBox="0 0 118 16" fill="none" xmlns="http://www.w3.org/2000/svg">
<path d="M10.8158 7.60793C10.738 7.2902 10.6537 6.89142 10.5629 6.41158C10.4786 5.92526 10.4105 5.55566 10.3586 5.30277L10.1155 3.97998L9.88203 5.30277C9.83015 5.55566 9.75883 5.92526 9.66805 6.41158C9.58375 6.89142 9.5027 7.2902 9.42489 7.60793L7.71304 15H3.68631L0.262613 0.877258H3.28753L4.80484 7.51067C5.01883 8.48331 5.20363 9.26142 5.35925 9.845L5.8942 12.1891L6.97383 7.51067L8.50088 0.877258H11.73L13.2668 7.51067L14.3464 12.1891C14.5604 11.2359 14.7452 10.4545 14.9009 9.845L15.4358 7.51067L16.9531 0.877258H19.978L16.5543 15H12.5276L10.8158 7.60793ZM27.4479 0.673004C29.6396 0.673004 31.3158 1.29549 32.4765 2.54047C33.6372 3.77897 34.2175 5.55566 34.2175 7.87054C34.2175 10.2373 33.6404 12.0464 32.4862 13.2979C31.332 14.5493 29.6526 15.1751 27.4479 15.1751C25.2303 15.1751 23.5476 14.5526 22.3999 13.3076C21.2522 12.0561 20.6783 10.2438 20.6783 7.87054C20.6783 5.56214 21.2587 3.78545 22.4194 2.54047C23.5801 1.29549 25.2562 0.673004 27.4479 0.673004ZM27.4479 3.0657C26.2418 3.0657 25.334 3.47097 24.7245 4.2815C24.1215 5.09203 23.82 6.28838 23.82 7.87054C23.82 9.47864 24.1247 10.7009 24.7343 11.5374C25.3503 12.3739 26.2548 12.7921 27.4479 12.7921C28.641 12.7921 29.5423 12.3739 30.1519 11.5374C30.7679 10.7009 31.0759 9.47864 31.0759 7.87054C31.0759 6.30135 30.7679 5.10825 30.1519 4.29123C29.5423 3.47421 28.641 3.0657 27.4479 3.0657ZM40.8898 4.32041C42.6081 4.32041 43.9245 4.79052 44.8387 5.73074C45.753 6.66447 46.2102 8.00671 46.2102 9.75747C46.2102 11.5082 45.753 12.8569 44.8387 13.8037C43.9245 14.7504 42.6081 15.2237 40.8898 15.2237C39.1909 15.2237 37.8811 14.7536 36.9603 13.8134C36.0396 12.8667 35.5792 11.5147 35.5792 9.75747C35.5792 8.00671 36.0363 6.66447 36.9506 5.73074C37.8649 4.79052 39.178 4.32041 40.8898 4.32041ZM40.8898 6.55748C39.353 6.551 38.5847 7.61766 38.5847 9.75747C38.5847 11.8973 39.353 12.9672 40.8898 12.9672C42.4331 12.9672 43.2047 11.8973 43.2047 9.75747C43.2047 7.61766 42.4331 6.551 40.8898 6.55748ZM57.3372 0.877258H60.3913V15H57.3372V8.9599H51.5013V15H48.457V0.877258H51.5013V6.65474H57.3372V0.877258ZM67.9487 4.32041C69.667 4.32041 70.9833 4.79052 71.8976 5.73074C72.8119 6.66447 73.269 8.00671 73.269 9.75747C73.269 11.5082 72.8119 12.8569 71.8976 13.8037C70.9833 14.7504 69.667 15.2237 67.9487 15.2237C66.2498 15.2237 64.94 14.7536 64.0192 13.8134C63.0984 12.8667 62.6381 11.5147 62.6381 9.75747C62.6381 8.00671 63.0952 6.66447 64.0095 5.73074C64.9238 4.79052 66.2368 4.32041 67.9487 4.32041ZM67.9487 6.55748C66.4119 6.551 65.6435 7.61766 65.6435 9.75747C65.6435 11.8973 66.4119 12.9672 67.9487 12.9672C69.4919 12.9672 70.2636 11.8973 70.2636 9.75747C70.2636 7.61766 69.4919 6.551 67.9487 6.55748ZM79.8538 4.32041C81.5721 4.32041 82.8884 4.79052 83.8027 5.73074C84.717 6.66447 85.1741 8.00671 85.1741 9.75747C85.1741 11.5082 84.717 12.8569 83.8027 13.8037C82.8884 14.7504 81.5721 15.2237 79.8538 15.2237C78.1549 15.2237 76.8451 14.7536 75.9243 13.8134C75.0036 12.8667 74.5432 11.5147 74.5432 9.75747C74.5432 8.00671 75.0003 6.66447 75.9146 5.73074C76.8289 4.79052 78.1419 4.32041 79.8538 4.32041ZM79.8538 6.55748C78.317 6.551 77.5486 7.61766 77.5486 9.75747C77.5486 11.8973 78.317 12.9672 79.8538 12.9672C81.397 12.9672 82.1687 11.8973 82.1687 9.75747C82.1687 7.61766 81.397 6.551 79.8538 6.55748ZM93.4124 0.702183C94.1581 0.702183 94.9005 0.799447 95.6397 0.993975C96.3854 1.18202 97.0533 1.44787 97.6434 1.79154L96.7388 3.90217C96.1812 3.63632 95.6657 3.44503 95.1923 3.32831C94.7255 3.20511 94.2521 3.14351 93.7723 3.14351C92.43 3.14351 91.4088 3.54878 90.7085 4.35931C90.0146 5.16985 89.6677 6.34674 89.6677 7.89C89.6677 9.45919 90.0146 10.6491 90.7085 11.4596C91.4088 12.2636 92.43 12.6657 93.7723 12.6657C94.8098 12.6657 95.8926 12.429 97.0209 11.9556L97.7601 14.183C96.3011 14.8314 94.8389 15.1556 93.3735 15.1556C91.1688 15.1556 89.4797 14.5364 88.306 13.2979C87.1324 12.0529 86.5456 10.2697 86.5456 7.94836C86.5456 6.45049 86.8179 5.15688 87.3626 4.06752C87.9073 2.97816 88.6919 2.14493 89.7164 1.56783C90.7474 0.990733 91.9794 0.702183 93.4124 0.702183ZM103.44 4.35931C104.912 4.35931 106.041 4.72243 106.825 5.44867C107.61 6.17491 108.002 7.2286 108.002 8.60975V15H105.532L105.191 13.7647C104.763 14.2186 104.28 14.5656 103.742 14.8055C103.21 15.0389 102.64 15.1556 102.03 15.1556C100.954 15.1556 100.098 14.8768 99.4622 14.3192C98.8333 13.7615 98.5188 13.0126 98.5188 12.0724C98.5188 10.983 98.9759 10.1336 99.8902 9.52403C100.811 8.91451 102.095 8.60975 103.742 8.60975H105.016V8.34714C104.977 7.14106 104.293 6.53803 102.964 6.53803C102.51 6.53803 101.985 6.60611 101.388 6.74228C100.792 6.87197 100.253 7.04056 99.7735 7.24805L99.1413 5.23469C99.8286 4.95586 100.552 4.74188 101.31 4.59275C102.069 4.43712 102.779 4.35931 103.44 4.35931ZM103.995 10.2438C103.145 10.2438 102.484 10.3897 102.011 10.6815C101.544 10.9733 101.31 11.3785 101.31 11.8973C101.31 12.3252 101.44 12.6527 101.699 12.8796C101.959 13.1001 102.325 13.2103 102.798 13.2103C103.226 13.2103 103.635 13.1163 104.024 12.9283C104.419 12.7402 104.75 12.4873 105.016 12.1696V10.2438H103.995ZM113.274 6.0128C113.929 4.93641 114.846 4.39822 116.026 4.39822C116.279 4.39822 116.493 4.41443 116.668 4.44685C116.85 4.47279 117.08 4.52466 117.359 4.60247L117.018 7.20915C116.461 7.00814 115.968 6.91087 115.54 6.91736C115.073 6.91736 114.678 7.00165 114.353 7.17024C114.029 7.33235 113.757 7.59172 113.536 7.94836V15H110.541V4.56357H112.914L113.274 6.0128Z" fill="#5157E0"/>
</svg>
