<svg width="27" height="22" viewBox="0 0 27 22" fill="none" xmlns="http://www.w3.org/2000/svg">
<path d="M18.4067 16.6362V18.3337C18.4067 20.2059 16.5769 21.7289 14.3277 21.7289H4.07905C1.8298 21.7289 0 20.2059 0 18.3337V3.39514C0 1.523 1.8298 0 4.07905 0H14.3277C16.5769 0 18.4067 1.523 18.4067 3.39514V5.0927C18.4067 5.56152 17.9502 5.94149 17.3869 5.94149C16.8237 5.94149 16.3672 5.56152 16.3672 5.0927V3.39514C16.3672 2.45915 15.4522 1.69757 14.3277 1.69757H4.07905C2.95452 1.69757 2.03952 2.45915 2.03952 3.39514V18.3337C2.03952 19.2697 2.95452 20.0313 4.07905 20.0313H14.3277C15.4522 20.0313 16.3672 19.2697 16.3672 18.3337V16.6362C16.3672 16.1673 16.8237 15.7874 17.3869 15.7874C17.9502 15.7874 18.4067 16.1673 18.4067 16.6362ZM25.3592 9.40642L23.0757 7.50577C22.6774 7.17421 22.0316 7.17421 21.6335 7.50577C21.2351 7.83716 21.2351 8.37461 21.6335 8.706L23.2577 10.0581H11.0134C10.4502 10.0581 9.99367 10.4381 9.99367 10.9069C9.99367 11.3757 10.4502 11.7557 11.0134 11.7557H23.2577L21.6335 13.1077C21.2351 13.4391 21.2351 13.9766 21.6335 14.308C21.8327 14.4738 22.0936 14.5566 22.3545 14.5566C22.6156 14.5566 22.8765 14.4738 23.0757 14.308L25.3592 12.4073C26.3533 11.5799 26.3533 10.2338 25.3592 9.40642Z" fill="white"/>
</svg>
