<svg width="118" height="16" viewBox="0 0 118 16" fill="none" xmlns="http://www.w3.org/2000/svg">
<path d="M10.8158 7.66213C10.738 7.3444 10.6537 6.94562 10.5629 6.46578C10.4786 5.97946 10.4105 5.60986 10.3586 5.35697L10.1155 4.03418L9.88203 5.35697C9.83015 5.60986 9.75883 5.97946 9.66805 6.46578C9.58375 6.94562 9.5027 7.3444 9.42489 7.66213L7.71304 15.0542H3.68631L0.262613 0.931458H3.28753L4.80484 7.56487C5.01883 8.53751 5.20363 9.31562 5.35925 9.8992L5.8942 12.2433L6.97383 7.56487L8.50088 0.931458H11.73L13.2668 7.56487L14.3464 12.2433C14.5604 11.2901 14.7452 10.5087 14.9009 9.8992L15.4358 7.56487L16.9531 0.931458H19.978L16.5543 15.0542H12.5276L10.8158 7.66213ZM27.4479 0.727203C29.6396 0.727203 31.3158 1.34969 32.4765 2.59467C33.6372 3.83317 34.2175 5.60986 34.2175 7.92474C34.2175 10.2915 33.6404 12.1006 32.4862 13.3521C31.332 14.6035 29.6526 15.2293 27.4479 15.2293C25.2303 15.2293 23.5476 14.6068 22.3999 13.3618C21.2522 12.1103 20.6783 10.298 20.6783 7.92474C20.6783 5.61634 21.2587 3.83965 22.4194 2.59467C23.5801 1.34969 25.2562 0.727203 27.4479 0.727203ZM27.4479 3.1199C26.2418 3.1199 25.334 3.52517 24.7245 4.3357C24.1215 5.14623 23.82 6.34258 23.82 7.92474C23.82 9.53284 24.1247 10.7551 24.7343 11.5916C25.3503 12.4281 26.2548 12.8463 27.4479 12.8463C28.641 12.8463 29.5423 12.4281 30.1519 11.5916C30.7679 10.7551 31.0759 9.53284 31.0759 7.92474C31.0759 6.35555 30.7679 5.16244 30.1519 4.34543C29.5423 3.52841 28.641 3.1199 27.4479 3.1199ZM40.8898 4.37461C42.6081 4.37461 43.9245 4.84471 44.8387 5.78493C45.753 6.71867 46.2102 8.06091 46.2102 9.81167C46.2102 11.5624 45.753 12.9111 44.8387 13.8579C43.9245 14.8046 42.6081 15.2779 40.8898 15.2779C39.1909 15.2779 37.8811 14.8078 36.9603 13.8676C36.0396 12.9209 35.5792 11.5689 35.5792 9.81167C35.5792 8.06091 36.0363 6.71867 36.9506 5.78493C37.8649 4.84471 39.178 4.37461 40.8898 4.37461ZM40.8898 6.61168C39.353 6.60519 38.5847 7.67186 38.5847 9.81167C38.5847 11.9515 39.353 13.0214 40.8898 13.0214C42.4331 13.0214 43.2047 11.9515 43.2047 9.81167C43.2047 7.67186 42.4331 6.60519 40.8898 6.61168ZM57.3372 0.931458H60.3913V15.0542H57.3372V9.0141H51.5013V15.0542H48.457V0.931458H51.5013V6.70894H57.3372V0.931458ZM67.9487 4.37461C69.667 4.37461 70.9833 4.84471 71.8976 5.78493C72.8119 6.71867 73.269 8.06091 73.269 9.81167C73.269 11.5624 72.8119 12.9111 71.8976 13.8579C70.9833 14.8046 69.667 15.2779 67.9487 15.2779C66.2498 15.2779 64.94 14.8078 64.0192 13.8676C63.0984 12.9209 62.6381 11.5689 62.6381 9.81167C62.6381 8.06091 63.0952 6.71867 64.0095 5.78493C64.9238 4.84471 66.2368 4.37461 67.9487 4.37461ZM67.9487 6.61168C66.4119 6.60519 65.6435 7.67186 65.6435 9.81167C65.6435 11.9515 66.4119 13.0214 67.9487 13.0214C69.4919 13.0214 70.2636 11.9515 70.2636 9.81167C70.2636 7.67186 69.4919 6.60519 67.9487 6.61168ZM79.8538 4.37461C81.5721 4.37461 82.8884 4.84471 83.8027 5.78493C84.717 6.71867 85.1741 8.06091 85.1741 9.81167C85.1741 11.5624 84.717 12.9111 83.8027 13.8579C82.8884 14.8046 81.5721 15.2779 79.8538 15.2779C78.1549 15.2779 76.8451 14.8078 75.9243 13.8676C75.0036 12.9209 74.5432 11.5689 74.5432 9.81167C74.5432 8.06091 75.0003 6.71867 75.9146 5.78493C76.8289 4.84471 78.1419 4.37461 79.8538 4.37461ZM79.8538 6.61168C78.317 6.60519 77.5486 7.67186 77.5486 9.81167C77.5486 11.9515 78.317 13.0214 79.8538 13.0214C81.397 13.0214 82.1687 11.9515 82.1687 9.81167C82.1687 7.67186 81.397 6.60519 79.8538 6.61168ZM93.4124 0.756382C94.1581 0.756382 94.9005 0.853646 95.6397 1.04817C96.3854 1.23622 97.0533 1.50207 97.6434 1.84574L96.7388 3.95637C96.1812 3.69051 95.6657 3.49923 95.1923 3.38251C94.7255 3.25931 94.2521 3.19771 93.7723 3.19771C92.43 3.19771 91.4088 3.60298 90.7085 4.41351C90.0146 5.22404 89.6677 6.40094 89.6677 7.9442C89.6677 9.51339 90.0146 10.7033 90.7085 11.5138C91.4088 12.3178 92.43 12.7199 93.7723 12.7199C94.8098 12.7199 95.8926 12.4832 97.0209 12.0098L97.7601 14.2372C96.3011 14.8856 94.8389 15.2098 93.3735 15.2098C91.1688 15.2098 89.4797 14.5906 88.306 13.3521C87.1324 12.1071 86.5456 10.3239 86.5456 8.00255C86.5456 6.50469 86.8179 5.21108 87.3626 4.12172C87.9073 3.03236 88.6919 2.19913 89.7164 1.62203C90.7474 1.04493 91.9794 0.756382 93.4124 0.756382ZM103.44 4.41351C104.912 4.41351 106.041 4.77663 106.825 5.50287C107.61 6.22911 108.002 7.2828 108.002 8.66395V15.0542H105.532L105.191 13.8189C104.763 14.2728 104.28 14.6198 103.742 14.8597C103.21 15.0931 102.64 15.2098 102.03 15.2098C100.954 15.2098 100.098 14.931 99.4622 14.3734C98.8333 13.8157 98.5188 13.0668 98.5188 12.1266C98.5188 11.0372 98.9759 10.1878 99.8902 9.57823C100.811 8.96871 102.095 8.66395 103.742 8.66395H105.016V8.40134C104.977 7.19526 104.293 6.59223 102.964 6.59223C102.51 6.59223 101.985 6.66031 101.388 6.79648C100.792 6.92617 100.253 7.09476 99.7735 7.30225L99.1413 5.28889C99.8286 5.01006 100.552 4.79608 101.31 4.64694C102.069 4.49132 102.779 4.41351 103.44 4.41351ZM103.995 10.298C103.145 10.298 102.484 10.4439 102.011 10.7357C101.544 11.0275 101.31 11.4327 101.31 11.9515C101.31 12.3794 101.44 12.7069 101.699 12.9338C101.959 13.1543 102.325 13.2645 102.798 13.2645C103.226 13.2645 103.635 13.1705 104.024 12.9825C104.419 12.7944 104.75 12.5415 105.016 12.2238V10.298H103.995ZM113.274 6.067C113.929 4.99061 114.846 4.45242 116.026 4.45242C116.279 4.45242 116.493 4.46863 116.668 4.50105C116.85 4.52699 117.08 4.57886 117.359 4.65667L117.018 7.26335C116.461 7.06234 115.968 6.96507 115.54 6.97156C115.073 6.97156 114.678 7.05585 114.353 7.22444C114.029 7.38655 113.757 7.64592 113.536 8.00255V15.0542H110.541V4.61777H112.914L113.274 6.067Z" fill="#5157E0"/>
</svg>
