<svg width="26" height="19" viewBox="0 0 26 19" fill="none" xmlns="http://www.w3.org/2000/svg">
<path d="M23.1495 0.0078125H2.78604C1.24982 0.0078125 0 1.04808 0 2.32673V13.4575C0 14.7362 1.24982 15.7765 2.78604 15.7765H9.3466C9.42669 15.7765 9.50282 15.8085 9.55039 15.8621L11.944 18.5632C12.1839 18.8339 12.5532 18.99 12.9573 18.9916H12.9634C13.3652 18.9916 13.7338 18.8384 13.9754 18.5709L16.4233 15.8606C16.4709 15.8079 16.5466 15.7764 16.6258 15.7764H23.1495C24.6857 15.7764 25.9355 14.7362 25.9355 13.4575V2.32669C25.9355 1.04804 24.6857 0.0078125 23.1495 0.0078125ZM24.4158 13.4575C24.4158 13.5571 24.3988 13.6534 24.3677 13.7448L16.5614 8.04915L24.4158 2.62381V13.4575ZM23.1495 1.27268C23.3811 1.27268 23.5983 1.32496 23.7852 1.41573L13.7786 8.32763C13.31 8.65135 12.6298 8.65135 12.1612 8.32763L2.1528 1.41451C2.33921 1.32449 2.55546 1.27268 2.78604 1.27268H23.1495ZM1.56783 13.7448C1.53668 13.6534 1.51966 13.5571 1.51966 13.4575V2.62085L9.37619 8.04759L1.56783 13.7448ZM15.2087 15.1005L12.9651 17.5846L10.7734 15.1114C10.4407 14.7358 9.9072 14.5116 9.34655 14.5116H2.82216L10.5604 8.86558L11.1907 9.30094C11.7062 9.65705 12.3379 9.83501 12.9699 9.83501C13.6016 9.83501 14.2336 9.65692 14.749 9.30094L15.3771 8.8671L23.1132 14.5116H16.6258C16.0716 14.5116 15.5418 14.7317 15.2087 15.1005Z" fill="white"/>
</svg>
