<svg width="26" height="19" viewBox="0 0 26 19" fill="none" xmlns="http://www.w3.org/2000/svg">
<path d="M23.1495 0H2.78604C1.24982 0 0 0.994942 0 2.21788V12.8637C0 14.0867 1.24982 15.0816 2.78604 15.0816H9.3466C9.42669 15.0816 9.50282 15.1122 9.55039 15.1635L11.944 17.7469C12.1839 18.0058 12.5532 18.1551 12.9573 18.1566H12.9634C13.3652 18.1566 13.7338 18.0102 13.9754 17.7543L16.4233 15.162C16.4709 15.1116 16.5466 15.0816 16.6258 15.0816H23.1495C24.6857 15.0816 25.9355 14.0866 25.9355 12.8637V2.21784C25.9355 0.994902 24.6857 0 23.1495 0ZM24.4158 12.8637C24.4158 12.959 24.3988 13.051 24.3677 13.1384L16.5614 7.69097L24.4158 2.50201V12.8637ZM23.1495 1.20975C23.3811 1.20975 23.5983 1.25976 23.7852 1.34658L13.7786 7.95732C13.31 8.26693 12.6298 8.26693 12.1612 7.95732L2.1528 1.34541C2.33921 1.25931 2.55546 1.20975 2.78604 1.20975H23.1495ZM1.56783 13.1384C1.53668 13.051 1.51966 12.9589 1.51966 12.8637V2.49919L9.37619 7.68948L1.56783 13.1384ZM15.2087 14.4351L12.9651 16.8109L10.7734 14.4455C10.4407 14.0863 9.9072 13.8718 9.34655 13.8718H2.82216L10.5604 8.47183L11.1907 8.88822C11.7062 9.22881 12.3379 9.39902 12.9699 9.39902C13.6016 9.39902 14.2336 9.22869 14.749 8.88822L15.3771 8.47328L23.1132 13.8718H16.6258C16.0716 13.8718 15.5418 14.0824 15.2087 14.4351Z" fill="#9C27B0"/>
</svg>
