<svg width="81" height="79" viewBox="0 0 81 79" fill="none" xmlns="http://www.w3.org/2000/svg">
<path d="M40.5418 78.9906C44.9914 78.9906 48.6319 75.3501 48.6319 70.9006H32.4518C32.4518 75.3501 36.0923 78.9906 40.5418 78.9906ZM64.812 54.7204V34.4953C64.812 22.0771 58.2186 11.6813 46.6094 8.93071V6.18009C46.6094 2.82272 43.8992 0.112549 40.5418 0.112549C37.1844 0.112549 34.4743 2.82272 34.4743 6.18009V8.93071C22.9055 11.6813 16.2717 22.0366 16.2717 34.4953V54.7204L8.1816 62.8105V66.8555H72.902V62.8105L64.812 54.7204ZM56.7219 58.7655H24.3617V34.4953C24.3617 24.4636 30.4697 16.2927 40.5418 16.2927C50.6139 16.2927 56.7219 24.4636 56.7219 34.4953V58.7655ZM22.6628 6.50369L16.8784 0.719304C7.17034 8.12171 0.779195 19.5287 0.212891 32.4728H8.30295C8.9097 21.7535 14.4109 12.369 22.6628 6.50369ZM72.7807 32.4728H80.8707C80.264 19.5287 73.8729 8.12171 64.2052 0.719304L58.4613 6.50369C66.6323 12.369 72.1739 21.7535 72.7807 32.4728Z" fill="#656565"/>
</svg>
