<svg width="64" height="50" viewBox="0 0 64 50" fill="none" xmlns="http://www.w3.org/2000/svg">
<path d="M19.9906 43.5914H43.9793V48.7183H19.9906C8.95578 48.7183 0 42.9762 0 35.9011V12.83H7.99624V35.9011C7.99624 40.1564 13.3537 43.5914 19.9906 43.5914ZM25.6679 8.75417C28.7864 6.75468 28.7864 3.4991 25.6679 1.49962C22.5494 -0.499872 17.4718 -0.499872 14.3532 1.49962C11.2347 3.4991 11.2347 6.75468 14.3532 8.75417C17.4718 10.7793 22.5094 10.7793 25.6679 8.75417ZM29.9859 17.9569C29.9859 15.1371 26.3876 12.83 21.9896 12.83H19.9906C15.5927 12.83 11.9944 15.1371 11.9944 17.9569V33.3376C11.9944 37.5929 17.3518 41.0279 23.9887 41.0279H44.2592L58.2526 50L63.9699 46.3343L43.6994 33.3376H29.9859V17.9569Z" fill="#3F3D56"/>
</svg>
