<svg width="39" height="31" viewBox="0 0 39 31" fill="none" xmlns="http://www.w3.org/2000/svg">
<path d="M31.6875 30.3801H7.3125C7.06997 30.3801 6.87375 30.2241 6.87375 30.0314V5.19262H2.4375V4.49512H12.9675V0.968867C12.9675 0.776086 13.1637 0.620117 13.4063 0.620117H25.5938C25.8363 0.620117 26.0325 0.776086 26.0325 0.968867V4.49512H36.5625V5.19262H32.1263V30.0314C32.1263 30.2241 31.93 30.3801 31.6875 30.3801ZM7.75125 29.6826H31.2488V5.19262H7.75125V29.6826ZM13.845 4.49512H25.155V1.31762H13.845V4.49512Z" fill="#EA5050"/>
<path d="M25.5935 26.5051C25.351 26.5051 25.1548 26.3491 25.1548 26.1564V8.71887C25.1548 8.52609 25.351 8.37012 25.5935 8.37012C25.8361 8.37012 26.0323 8.52609 26.0323 8.71887V26.1564C26.0323 26.3491 25.8361 26.5051 25.5935 26.5051ZM19.4998 26.5051C19.2573 26.5051 19.061 26.3491 19.061 26.1564V8.71887C19.061 8.52609 19.2573 8.37012 19.4998 8.37012C19.7423 8.37012 19.9385 8.52609 19.9385 8.71887V26.1564C19.9385 26.3491 19.7423 26.5051 19.4998 26.5051ZM13.406 26.5051C13.1635 26.5051 12.9673 26.3491 12.9673 26.1564V8.71887C12.9673 8.52609 13.1635 8.37012 13.406 8.37012C13.6486 8.37012 13.8448 8.52609 13.8448 8.71887V26.1564C13.8448 26.3491 13.6486 26.5051 13.406 26.5051Z" fill="#EA5050"/>
</svg>
