<svg width="469" height="571" viewBox="0 0 469 571" fill="none" xmlns="http://www.w3.org/2000/svg">
<path d="M282.857 31.243C316.205 44.8217 347.279 61.6874 374.551 86.0066C403.294 111.639 429.991 139.912 445.314 176.113C461.986 215.502 475.449 259.537 465.728 301.42C455.985 343.401 422.13 372.977 392.636 403.078C363.808 432.501 334.159 462.286 295.798 474.853C256.943 487.582 214.675 486.735 175.787 474.121C137.859 461.818 104.895 436.412 79.2142 404.598C54.8395 374.401 46.3896 335.355 33.6811 298.074C20.0603 258.117 -7.23342 218.851 1.79352 177.479C10.8322 136.054 51.8788 113.354 80.5291 83.3665C108.743 53.8351 130.437 12.3169 169.108 2.35456C207.651 -7.57478 245.853 16.1756 282.857 31.243Z" fill="white"/>
<g clip-path="url(#clip0_398_482)">
<path d="M210.046 190.941H208.915V159.942C208.915 157.585 208.452 155.252 207.551 153.076C206.649 150.899 205.329 148.921 203.664 147.255C201.999 145.589 200.022 144.267 197.847 143.366C195.671 142.464 193.339 142 190.985 142H125.348C120.593 142 116.032 143.89 112.669 147.255C109.307 150.62 107.417 155.183 107.417 159.942V330.007C107.417 332.363 107.881 334.696 108.782 336.872C109.683 339.049 111.004 341.027 112.669 342.693C114.334 344.359 116.311 345.681 118.486 346.582C120.662 347.484 122.993 347.948 125.348 347.948H190.985C195.74 347.948 200.301 346.058 203.664 342.693C207.026 339.329 208.915 334.765 208.915 330.007V213.007H210.046V190.941Z" fill="#3F3D56"/>
<path d="M191.708 146.668H183.141C183.535 147.634 183.685 148.683 183.579 149.721C183.472 150.76 183.112 151.756 182.53 152.623C181.948 153.489 181.162 154.199 180.242 154.69C179.321 155.181 178.294 155.437 177.25 155.438H139.648C138.605 155.437 137.578 155.181 136.657 154.69C135.736 154.199 134.95 153.489 134.368 152.623C133.787 151.756 133.426 150.76 133.32 149.721C133.214 148.683 133.364 147.634 133.758 146.668H125.756C123.997 146.668 122.256 147.014 120.631 147.688C119.007 148.361 117.531 149.348 116.287 150.592C115.044 151.836 114.057 153.313 113.385 154.939C112.712 156.565 112.365 158.307 112.365 160.066V329.882C112.365 331.641 112.712 333.384 113.385 335.009C114.057 336.635 115.044 338.112 116.287 339.356C117.531 340.6 119.007 341.587 120.631 342.26C122.256 342.934 123.997 343.28 125.756 343.28H191.708C193.467 343.28 195.208 342.934 196.833 342.26C198.457 341.587 199.933 340.6 201.177 339.356C202.42 338.112 203.407 336.635 204.079 335.009C204.752 333.384 205.099 331.641 205.099 329.882V160.066C205.099 158.307 204.752 156.565 204.079 154.939C203.407 153.313 202.42 151.836 201.177 150.592C199.933 149.348 198.457 148.361 196.833 147.688C195.208 147.014 193.467 146.668 191.708 146.668Z" fill="white"/>
<path d="M231.084 347.977H86.3798C86.2791 347.977 86.1825 347.937 86.1112 347.866C86.04 347.795 86 347.698 86 347.597C86 347.497 86.04 347.4 86.1112 347.329C86.1825 347.257 86.2791 347.217 86.3798 347.217H231.084C231.185 347.217 231.282 347.257 231.353 347.329C231.424 347.4 231.464 347.497 231.464 347.597C231.464 347.698 231.424 347.795 231.353 347.866C231.282 347.937 231.185 347.977 231.084 347.977Z" fill="#CBCBCB"/>
<path d="M158.732 273.369C176.445 273.369 190.805 259.001 190.805 241.277C190.805 223.553 176.445 209.185 158.732 209.185C141.019 209.185 126.659 223.553 126.659 241.277C126.659 259.001 141.019 273.369 158.732 273.369Z" fill="#09B294"/>
<path d="M155.554 253.519C154.832 253.521 154.13 253.287 153.552 252.854L153.517 252.827L145.979 247.058C145.63 246.79 145.337 246.456 145.117 246.075C144.897 245.694 144.754 245.273 144.696 244.837C144.639 244.4 144.668 243.957 144.781 243.532C144.895 243.106 145.091 242.708 145.359 242.358C145.626 242.009 145.96 241.716 146.341 241.496C146.722 241.276 147.142 241.133 147.578 241.075C148.015 241.017 148.458 241.046 148.883 241.16C149.308 241.274 149.706 241.47 150.055 241.738L154.937 245.484L166.474 230.424C166.742 230.074 167.075 229.781 167.456 229.561C167.837 229.341 168.257 229.198 168.693 229.141C169.129 229.083 169.572 229.112 169.997 229.225C170.421 229.339 170.82 229.535 171.169 229.803L171.17 229.804L171.098 229.903L171.171 229.804C171.875 230.345 172.336 231.144 172.452 232.025C172.568 232.906 172.33 233.797 171.791 234.502L158.221 252.208C157.907 252.616 157.503 252.946 157.041 253.173C156.579 253.4 156.071 253.517 155.557 253.515L155.554 253.519Z" fill="white"/>
<path d="M349.675 351.132C350.066 350.501 350.525 349.915 351.045 349.385C351.259 349.163 351.485 348.953 351.719 348.749C353.137 347.486 354.865 346.624 356.727 346.251C358.589 345.878 360.516 346.008 362.31 346.628C364.105 347.247 365.703 348.334 366.938 349.776C368.174 351.218 369.004 352.963 369.342 354.833C370.909 349.036 366.831 343.327 362.731 338.941C358.63 334.557 353.942 329.748 353.965 323.741C353.977 320.398 355.611 317.416 358.078 315.205C358.154 315.138 358.23 315.071 358.308 315.007C361.29 312.449 365.127 311.111 369.052 311.26C376.344 311.651 382.71 316.555 387.132 322.371C394.249 331.73 397.368 344.868 392.385 355.522C388.003 364.892 378.656 370.456 369.117 374.93C367.785 375.555 366.455 376.161 365.129 376.748C365.12 376.75 365.11 376.756 365.101 376.759C365.038 376.787 364.974 376.815 364.914 376.844C364.64 376.964 364.366 377.085 364.095 377.205L364.22 377.287L364.613 377.541C364.477 377.459 364.342 377.379 364.206 377.296C364.166 377.271 364.123 377.248 364.083 377.223C359.397 374.41 354.647 371.434 351.41 367.043C348.054 362.483 346.704 355.952 349.675 351.132Z" fill="#F1F1F1"/>
<path d="M380.934 340.543C381.972 342.904 382.659 345.405 382.976 347.965C383.225 350.248 383.131 352.555 382.698 354.81C381.768 359.444 379.739 363.787 376.782 367.474C374.551 370.272 371.976 372.777 369.117 374.93C367.785 375.555 366.455 376.161 365.129 376.748C365.12 376.75 365.11 376.756 365.101 376.759C365.038 376.787 364.974 376.815 364.914 376.844C364.64 376.964 364.366 377.085 364.095 377.205L364.22 377.287L364.613 377.541C364.477 377.459 364.342 377.379 364.206 377.296C364.166 377.271 364.123 377.248 364.083 377.223C365.114 373.614 365.265 369.811 364.525 366.131C363.784 362.452 362.173 359.004 359.826 356.075C357.467 353.184 354.458 350.892 351.045 349.386C351.259 349.163 351.485 348.953 351.719 348.749C353.033 349.353 354.292 350.073 355.48 350.898C359.729 353.837 362.92 358.066 364.579 362.961C366.061 367.401 366.246 372.172 365.113 376.713C365.348 376.559 365.584 376.402 365.814 376.244C370.178 373.299 374.201 369.762 377.231 365.425C379.844 361.759 381.517 357.506 382.101 353.041C382.681 348.164 381.462 343.368 379.286 339.016C376.883 334.361 373.855 330.055 370.286 326.221C366.701 322.28 362.648 318.793 358.217 315.837C358.117 315.77 358.047 315.667 358.021 315.549C357.995 315.431 358.016 315.308 358.078 315.205C358.126 315.111 358.208 315.04 358.308 315.007C358.359 314.994 358.412 314.992 358.463 315.003C358.514 315.013 358.562 315.035 358.604 315.067C359.151 315.432 359.693 315.8 360.229 316.18C364.692 319.341 368.744 323.045 372.294 327.207C375.724 331.218 378.845 335.674 380.934 340.543Z" fill="white"/>
<path d="M285.412 156.901C289.174 156.901 292.223 153.85 292.223 150.086C292.223 146.322 289.174 143.27 285.412 143.27C281.65 143.27 278.601 146.322 278.601 150.086C278.601 153.85 281.65 156.901 285.412 156.901Z" fill="#F1F1F1"/>
<path d="M370.107 248.109C372.401 248.109 374.26 246.249 374.26 243.954C374.26 241.659 372.401 239.798 370.107 239.798C367.814 239.798 365.955 241.659 365.955 243.954C365.955 246.249 367.814 248.109 370.107 248.109Z" fill="#F1F1F1"/>
<path d="M248.571 259.51C250.864 259.51 252.724 257.65 252.724 255.355C252.724 253.06 250.864 251.199 248.571 251.199C246.277 251.199 244.418 253.06 244.418 255.355C244.418 257.65 246.277 259.51 248.571 259.51Z" fill="#F1F1F1"/>
<path d="M250.916 378H395.62C395.721 378 395.818 377.96 395.889 377.889C395.96 377.817 396 377.721 396 377.62C396 377.519 395.96 377.423 395.889 377.351C395.818 377.28 395.721 377.24 395.62 377.24H250.916C250.815 377.24 250.719 377.28 250.647 377.351C250.576 377.423 250.536 377.519 250.536 377.62C250.536 377.721 250.576 377.817 250.647 377.889C250.719 377.96 250.815 378 250.916 378Z" fill="#CBCBCB"/>
<path d="M379.651 178.724C379.841 177.375 379.53 176.002 378.776 174.866C378.022 173.731 376.878 172.912 375.561 172.564C374.244 172.216 372.845 172.364 371.629 172.979C370.413 173.594 369.466 174.634 368.965 175.902L357.223 189.372L360.668 199.001L372.477 183.262C373.248 183.509 374.063 183.584 374.866 183.481C375.669 183.379 376.439 183.102 377.123 182.669C377.807 182.236 378.388 181.659 378.825 180.977C379.262 180.296 379.544 179.527 379.651 178.724Z" fill="#FFB7B7"/>
<path d="M330.977 231.136L369.956 189.512L364.698 181.148L315.809 222.52L330.977 231.136Z" fill="#3F3D56"/>
<path d="M322.277 205.845C329.829 205.845 335.95 199.72 335.95 192.164C335.95 184.608 329.829 178.483 322.277 178.483C314.726 178.483 308.604 184.608 308.604 192.164C308.604 199.72 314.726 205.845 322.277 205.845Z" fill="#2F2E41"/>
<path d="M323.376 184.436C326.319 181.45 329.879 179.147 333.807 177.687C336.328 176.752 339.073 176.174 341.709 176.705C344.345 177.236 346.838 179.061 347.573 181.649C348.174 183.765 347.553 186.043 346.62 188.035C345.687 190.027 344.441 191.875 343.686 193.941C342.916 196.049 342.685 198.317 343.013 200.538C343.341 202.758 344.218 204.862 345.564 206.657C346.911 208.453 348.684 209.883 350.723 210.819C352.762 211.755 355.003 212.166 357.241 212.016C354.651 212.364 352.264 213.581 349.732 214.23C347.201 214.878 344.213 214.834 342.331 213.019C340.341 211.099 340.301 207.977 340.397 205.212C340.54 201.102 340.683 196.992 340.826 192.882C340.899 190.786 340.962 188.623 340.206 186.667C339.451 184.71 337.655 182.997 335.559 183.015C333.971 183.028 332.565 183.991 331.291 184.941C330.017 185.891 328.669 186.904 327.086 187.045C325.504 187.186 323.697 186.015 323.816 184.429L323.376 184.436Z" fill="#2F2E41"/>
<path d="M270.347 284.027C269.034 284.392 267.633 284.262 266.41 283.662C265.186 283.063 264.225 282.035 263.708 280.774C263.192 279.513 263.155 278.106 263.606 276.819C264.057 275.533 264.963 274.457 266.154 273.794L277.966 260.385L287.957 262.545L273.905 276.317C274.251 277.049 274.431 277.848 274.435 278.658C274.438 279.467 274.264 280.268 273.925 281.003C273.586 281.738 273.09 282.39 272.471 282.912C271.853 283.435 271.128 283.815 270.347 284.027Z" fill="#FFB7B7"/>
<path d="M309.209 236.022L279.768 272.999L270.794 268.876L305.398 214.971L309.209 236.022Z" fill="#3F3D56"/>
<path d="M285.718 347.678L278.702 347.567L279.546 371.496H285.717L285.718 347.678Z" fill="#FFB7B7"/>
<path d="M287.291 369.48L275.137 369.48H275.137C273.082 369.48 271.112 370.297 269.66 371.75C268.207 373.203 267.391 375.175 267.391 377.23V377.482L287.291 377.483L287.291 369.48Z" fill="#2F2E41"/>
<path d="M332.174 341.331L324.509 346.255L339.841 364.711L345.035 361.375L332.174 341.331Z" fill="#FFB7B7"/>
<path d="M345.271 358.827L335.043 365.397L335.043 365.398C333.314 366.508 332.097 368.26 331.66 370.269C331.222 372.277 331.6 374.377 332.71 376.106L332.846 376.318L349.591 365.561L345.271 358.827Z" fill="#2F2E41"/>
<path d="M334.905 268.262C334.905 268.262 317.875 211.665 312.401 210.9C306.928 210.135 298.11 225.422 298.11 225.422C286.677 240.018 274.888 287.299 274.888 287.299C274.888 287.299 294.541 288.53 308.908 296.178C323.275 303.826 340.229 295.791 340.229 295.791L334.905 268.262Z" fill="#3F3D56"/>
<path opacity="0.1" d="M334.905 268.262C334.905 268.262 317.875 211.665 312.401 210.9C306.928 210.135 300.35 225.577 300.35 225.577C294.653 249.139 274.888 287.299 274.888 287.299C274.888 287.299 294.541 288.53 308.908 296.178C323.275 303.826 340.229 295.791 340.229 295.791L334.905 268.262Z" fill="black"/>
<path d="M320.933 251.328V279.768L324.278 320.965L340.989 352.128L333.013 357.828L310.225 328.186L301.212 298.753L287.057 363.909L276.423 363.149L283.808 272.811L297.824 247.383L320.933 251.328Z" fill="#2F2E41"/>
<path d="M303.762 223.821C298.445 229.141 303.382 234.842 303.382 234.842L297.306 248.523L321.233 254.983L329.595 217.597L323.898 211.516C312.504 211.136 312.498 210.9 312.498 210.9C310.501 212.855 303.762 223.821 303.762 223.821Z" fill="#6C63FF"/>
<path d="M330.559 213.723C329.472 212.921 328.237 212.342 326.925 212.02C325.613 211.698 324.25 211.64 322.916 211.849C321.581 212.058 320.302 212.53 319.151 213.238C318 213.945 317 214.874 316.211 215.97C310.195 224.351 304.633 237.884 312.297 254.761C324.602 281.861 335.31 295.734 339.664 295.733C339.854 295.734 340.043 295.704 340.223 295.645C342.903 294.735 346.777 290.198 347.478 286.2C347.729 284.769 347.67 282.775 345.959 281.407C341.046 277.475 332.227 265.232 329.475 249.118C327.955 240.214 330.903 232.103 333.645 226.867C334.803 224.7 335.141 222.189 334.599 219.793C334.056 217.397 332.669 215.276 330.691 213.821L330.559 213.723Z" fill="#3F3D56"/>
<path d="M322.981 204.501C327.858 201.833 329.651 195.714 326.985 190.834C324.318 185.954 318.203 184.16 313.326 186.828C308.448 189.496 306.656 195.615 309.322 200.495C311.988 205.376 318.103 207.169 322.981 204.501Z" fill="#FFB7B7"/>
<path d="M303.999 194.903H318.532L318.681 192.815L319.426 194.903H321.664L321.959 190.765L323.436 194.903H327.766V194.698C327.763 191.817 326.618 189.055 324.582 187.018C322.546 184.981 319.786 183.835 316.907 183.832H314.858C311.979 183.835 309.219 184.981 307.183 187.018C305.147 189.055 304.002 191.817 303.999 194.698V194.903Z" fill="#2F2E41"/>
<path d="M325.571 202.408L331.773 200.394V185.324H320.058L320.348 185.613C324.383 189.646 328.871 203.953 325.571 202.408Z" fill="#2F2E41"/>
</g>
<path d="M74.8392 517.04L71.4192 528H69.5392L66.8992 519.3L64.2592 528H62.3792L58.9392 517.04H60.7992L63.3192 526.24L66.0392 517.04H67.8992L70.5592 526.26L73.0392 517.04H74.8392ZM86.6455 522.1C86.6455 522.447 86.6255 522.813 86.5855 523.2H77.8255C77.8921 524.28 78.2588 525.127 78.9255 525.74C79.6055 526.34 80.4255 526.64 81.3855 526.64C82.1721 526.64 82.8255 526.46 83.3455 526.1C83.8788 525.727 84.2521 525.233 84.4655 524.62H86.4255C86.1321 525.673 85.5455 526.533 84.6655 527.2C83.7855 527.853 82.6921 528.18 81.3855 528.18C80.3455 528.18 79.4121 527.947 78.5855 527.48C77.7721 527.013 77.1321 526.353 76.6655 525.5C76.1988 524.633 75.9655 523.633 75.9655 522.5C75.9655 521.367 76.1921 520.373 76.6455 519.52C77.0988 518.667 77.7321 518.013 78.5455 517.56C79.3721 517.093 80.3188 516.86 81.3855 516.86C82.4255 516.86 83.3455 517.087 84.1455 517.54C84.9455 517.993 85.5588 518.62 85.9855 519.42C86.4255 520.207 86.6455 521.1 86.6455 522.1ZM84.7655 521.72C84.7655 521.027 84.6121 520.433 84.3055 519.94C83.9988 519.433 83.5788 519.053 83.0455 518.8C82.5255 518.533 81.9455 518.4 81.3055 518.4C80.3855 518.4 79.5988 518.693 78.9455 519.28C78.3055 519.867 77.9388 520.68 77.8455 521.72H84.7655ZM90.8678 513.2V528H89.0478V513.2H90.8678ZM93.2897 522.5C93.2897 521.367 93.5164 520.38 93.9697 519.54C94.423 518.687 95.0497 518.027 95.8497 517.56C96.663 517.093 97.5897 516.86 98.6297 516.86C99.9764 516.86 101.083 517.187 101.95 517.84C102.83 518.493 103.41 519.4 103.69 520.56H101.73C101.543 519.893 101.176 519.367 100.63 518.98C100.096 518.593 99.4297 518.4 98.6297 518.4C97.5897 518.4 96.7497 518.76 96.1097 519.48C95.4697 520.187 95.1497 521.193 95.1497 522.5C95.1497 523.82 95.4697 524.84 96.1097 525.56C96.7497 526.28 97.5897 526.64 98.6297 526.64C99.4297 526.64 100.096 526.453 100.63 526.08C101.163 525.707 101.53 525.173 101.73 524.48H103.69C103.396 525.6 102.81 526.5 101.93 527.18C101.05 527.847 99.9497 528.18 98.6297 528.18C97.5897 528.18 96.663 527.947 95.8497 527.48C95.0497 527.013 94.423 526.353 93.9697 525.5C93.5164 524.647 93.2897 523.647 93.2897 522.5ZM110.898 528.18C109.871 528.18 108.938 527.947 108.098 527.48C107.271 527.013 106.618 526.353 106.138 525.5C105.671 524.633 105.438 523.633 105.438 522.5C105.438 521.38 105.678 520.393 106.158 519.54C106.651 518.673 107.318 518.013 108.158 517.56C108.998 517.093 109.938 516.86 110.978 516.86C112.018 516.86 112.958 517.093 113.798 517.56C114.638 518.013 115.298 518.667 115.778 519.52C116.271 520.373 116.518 521.367 116.518 522.5C116.518 523.633 116.265 524.633 115.758 525.5C115.265 526.353 114.591 527.013 113.738 527.48C112.885 527.947 111.938 528.18 110.898 528.18ZM110.898 526.58C111.551 526.58 112.165 526.427 112.738 526.12C113.311 525.813 113.771 525.353 114.118 524.74C114.478 524.127 114.658 523.38 114.658 522.5C114.658 521.62 114.485 520.873 114.138 520.26C113.791 519.647 113.338 519.193 112.778 518.9C112.218 518.593 111.611 518.44 110.958 518.44C110.291 518.44 109.678 518.593 109.118 518.9C108.571 519.193 108.131 519.647 107.798 520.26C107.465 520.873 107.298 521.62 107.298 522.5C107.298 523.393 107.458 524.147 107.778 524.76C108.111 525.373 108.551 525.833 109.098 526.14C109.645 526.433 110.245 526.58 110.898 526.58ZM132.091 516.84C132.944 516.84 133.704 517.02 134.371 517.38C135.038 517.727 135.564 518.253 135.951 518.96C136.338 519.667 136.531 520.527 136.531 521.54V528H134.731V521.8C134.731 520.707 134.458 519.873 133.911 519.3C133.378 518.713 132.651 518.42 131.731 518.42C130.784 518.42 130.031 518.727 129.471 519.34C128.911 519.94 128.631 520.813 128.631 521.96V528H126.831V521.8C126.831 520.707 126.558 519.873 126.011 519.3C125.478 518.713 124.751 518.42 123.831 518.42C122.884 518.42 122.131 518.727 121.571 519.34C121.011 519.94 120.731 520.813 120.731 521.96V528H118.911V517.04H120.731V518.62C121.091 518.047 121.571 517.607 122.171 517.3C122.784 516.993 123.458 516.84 124.191 516.84C125.111 516.84 125.924 517.047 126.631 517.46C127.338 517.873 127.864 518.48 128.211 519.28C128.518 518.507 129.024 517.907 129.731 517.48C130.438 517.053 131.224 516.84 132.091 516.84ZM149.517 522.1C149.517 522.447 149.497 522.813 149.457 523.2H140.697C140.763 524.28 141.13 525.127 141.797 525.74C142.477 526.34 143.297 526.64 144.257 526.64C145.043 526.64 145.697 526.46 146.217 526.1C146.75 525.727 147.123 525.233 147.337 524.62H149.297C149.003 525.673 148.417 526.533 147.537 527.2C146.657 527.853 145.563 528.18 144.257 528.18C143.217 528.18 142.283 527.947 141.457 527.48C140.643 527.013 140.003 526.353 139.537 525.5C139.07 524.633 138.837 523.633 138.837 522.5C138.837 521.367 139.063 520.373 139.517 519.52C139.97 518.667 140.603 518.013 141.417 517.56C142.243 517.093 143.19 516.86 144.257 516.86C145.297 516.86 146.217 517.087 147.017 517.54C147.817 517.993 148.43 518.62 148.857 519.42C149.297 520.207 149.517 521.1 149.517 522.1ZM147.637 521.72C147.637 521.027 147.483 520.433 147.177 519.94C146.87 519.433 146.45 519.053 145.917 518.8C145.397 518.533 144.817 518.4 144.177 518.4C143.257 518.4 142.47 518.693 141.817 519.28C141.177 519.867 140.81 520.68 140.717 521.72H147.637ZM159.471 518.54V525C159.471 525.533 159.584 525.913 159.811 526.14C160.038 526.353 160.431 526.46 160.991 526.46H162.331V528H160.691C159.678 528 158.918 527.767 158.411 527.3C157.904 526.833 157.651 526.067 157.651 525V518.54H156.231V517.04H157.651V514.28H159.471V517.04H162.331V518.54H159.471ZM169.316 528.18C168.289 528.18 167.356 527.947 166.516 527.48C165.689 527.013 165.036 526.353 164.556 525.5C164.089 524.633 163.856 523.633 163.856 522.5C163.856 521.38 164.096 520.393 164.576 519.54C165.069 518.673 165.736 518.013 166.576 517.56C167.416 517.093 168.356 516.86 169.396 516.86C170.436 516.86 171.376 517.093 172.216 517.56C173.056 518.013 173.716 518.667 174.196 519.52C174.689 520.373 174.936 521.367 174.936 522.5C174.936 523.633 174.683 524.633 174.176 525.5C173.683 526.353 173.009 527.013 172.156 527.48C171.303 527.947 170.356 528.18 169.316 528.18ZM169.316 526.58C169.969 526.58 170.583 526.427 171.156 526.12C171.729 525.813 172.189 525.353 172.536 524.74C172.896 524.127 173.076 523.38 173.076 522.5C173.076 521.62 172.903 520.873 172.556 520.26C172.209 519.647 171.756 519.193 171.196 518.9C170.636 518.593 170.029 518.44 169.376 518.44C168.709 518.44 168.096 518.593 167.536 518.9C166.989 519.193 166.549 519.647 166.216 520.26C165.883 520.873 165.716 521.62 165.716 522.5C165.716 523.393 165.876 524.147 166.196 524.76C166.529 525.373 166.969 525.833 167.516 526.14C168.063 526.433 168.663 526.58 169.316 526.58ZM200.181 514.06L196.141 528H194.101L190.861 516.78L187.501 528L185.481 528.02L181.581 514.06H183.521L186.561 525.88L189.921 514.06H191.961L195.161 525.84L198.221 514.06H200.181ZM208.493 528.14C207.199 528.14 206.019 527.84 204.953 527.24C203.886 526.627 203.039 525.78 202.413 524.7C201.799 523.607 201.493 522.38 201.493 521.02C201.493 519.66 201.799 518.44 202.413 517.36C203.039 516.267 203.886 515.42 204.953 514.82C206.019 514.207 207.199 513.9 208.493 513.9C209.799 513.9 210.986 514.207 212.053 514.82C213.119 515.42 213.959 516.26 214.573 517.34C215.186 518.42 215.493 519.647 215.493 521.02C215.493 522.393 215.186 523.62 214.573 524.7C213.959 525.78 213.119 526.627 212.053 527.24C210.986 527.84 209.799 528.14 208.493 528.14ZM208.493 526.56C209.466 526.56 210.339 526.333 211.113 525.88C211.899 525.427 212.513 524.78 212.953 523.94C213.406 523.1 213.633 522.127 213.633 521.02C213.633 519.9 213.406 518.927 212.953 518.1C212.513 517.26 211.906 516.613 211.133 516.16C210.359 515.707 209.479 515.48 208.493 515.48C207.506 515.48 206.626 515.707 205.853 516.16C205.079 516.613 204.466 517.26 204.013 518.1C203.573 518.927 203.353 519.9 203.353 521.02C203.353 522.127 203.573 523.1 204.013 523.94C204.466 524.78 205.079 525.427 205.853 525.88C206.639 526.333 207.519 526.56 208.493 526.56ZM222.675 528.18C221.649 528.18 220.715 527.947 219.875 527.48C219.049 527.013 218.395 526.353 217.915 525.5C217.449 524.633 217.215 523.633 217.215 522.5C217.215 521.38 217.455 520.393 217.935 519.54C218.429 518.673 219.095 518.013 219.935 517.56C220.775 517.093 221.715 516.86 222.755 516.86C223.795 516.86 224.735 517.093 225.575 517.56C226.415 518.013 227.075 518.667 227.555 519.52C228.049 520.373 228.295 521.367 228.295 522.5C228.295 523.633 228.042 524.633 227.535 525.5C227.042 526.353 226.369 527.013 225.515 527.48C224.662 527.947 223.715 528.18 222.675 528.18ZM222.675 526.58C223.329 526.58 223.942 526.427 224.515 526.12C225.089 525.813 225.549 525.353 225.895 524.74C226.255 524.127 226.435 523.38 226.435 522.5C226.435 521.62 226.262 520.873 225.915 520.26C225.569 519.647 225.115 519.193 224.555 518.9C223.995 518.593 223.389 518.44 222.735 518.44C222.069 518.44 221.455 518.593 220.895 518.9C220.349 519.193 219.909 519.647 219.575 520.26C219.242 520.873 219.075 521.62 219.075 522.5C219.075 523.393 219.235 524.147 219.555 524.76C219.889 525.373 220.329 525.833 220.875 526.14C221.422 526.433 222.022 526.58 222.675 526.58ZM241.428 514.06V528H239.608V521.68H232.508V528H230.688V514.06H232.508V520.18H239.608V514.06H241.428ZM250.856 528.14C249.563 528.14 248.383 527.84 247.316 527.24C246.249 526.627 245.403 525.78 244.776 524.7C244.163 523.607 243.856 522.38 243.856 521.02C243.856 519.66 244.163 518.44 244.776 517.36C245.403 516.267 246.249 515.42 247.316 514.82C248.383 514.207 249.563 513.9 250.856 513.9C252.163 513.9 253.349 514.207 254.416 514.82C255.483 515.42 256.323 516.26 256.936 517.34C257.549 518.42 257.856 519.647 257.856 521.02C257.856 522.393 257.549 523.62 256.936 524.7C256.323 525.78 255.483 526.627 254.416 527.24C253.349 527.84 252.163 528.14 250.856 528.14ZM250.856 526.56C251.829 526.56 252.703 526.333 253.476 525.88C254.263 525.427 254.876 524.78 255.316 523.94C255.769 523.1 255.996 522.127 255.996 521.02C255.996 519.9 255.769 518.927 255.316 518.1C254.876 517.26 254.269 516.613 253.496 516.16C252.723 515.707 251.843 515.48 250.856 515.48C249.869 515.48 248.989 515.707 248.216 516.16C247.443 516.613 246.829 517.26 246.376 518.1C245.936 518.927 245.716 519.9 245.716 521.02C245.716 522.127 245.936 523.1 246.376 523.94C246.829 524.78 247.443 525.427 248.216 525.88C249.003 526.333 249.883 526.56 250.856 526.56ZM265.039 528.18C264.012 528.18 263.079 527.947 262.239 527.48C261.412 527.013 260.759 526.353 260.279 525.5C259.812 524.633 259.579 523.633 259.579 522.5C259.579 521.38 259.819 520.393 260.299 519.54C260.792 518.673 261.459 518.013 262.299 517.56C263.139 517.093 264.079 516.86 265.119 516.86C266.159 516.86 267.099 517.093 267.939 517.56C268.779 518.013 269.439 518.667 269.919 519.52C270.412 520.373 270.659 521.367 270.659 522.5C270.659 523.633 270.405 524.633 269.899 525.5C269.405 526.353 268.732 527.013 267.879 527.48C267.025 527.947 266.079 528.18 265.039 528.18ZM265.039 526.58C265.692 526.58 266.305 526.427 266.879 526.12C267.452 525.813 267.912 525.353 268.259 524.74C268.619 524.127 268.799 523.38 268.799 522.5C268.799 521.62 268.625 520.873 268.279 520.26C267.932 519.647 267.479 519.193 266.919 518.9C266.359 518.593 265.752 518.44 265.099 518.44C264.432 518.44 263.819 518.593 263.259 518.9C262.712 519.193 262.272 519.647 261.939 520.26C261.605 520.873 261.439 521.62 261.439 522.5C261.439 523.393 261.599 524.147 261.919 524.76C262.252 525.373 262.692 525.833 263.239 526.14C263.785 526.433 264.385 526.58 265.039 526.58ZM284.252 528.76V530.44H273.612V528.76H284.252ZM287.04 521.02C287.04 519.66 287.346 518.44 287.96 517.36C288.573 516.267 289.406 515.413 290.46 514.8C291.526 514.187 292.706 513.88 294 513.88C295.52 513.88 296.846 514.247 297.98 514.98C299.113 515.713 299.94 516.753 300.46 518.1H298.28C297.893 517.26 297.333 516.613 296.6 516.16C295.88 515.707 295.013 515.48 294 515.48C293.026 515.48 292.153 515.707 291.38 516.16C290.606 516.613 290 517.26 289.56 518.1C289.12 518.927 288.9 519.9 288.9 521.02C288.9 522.127 289.12 523.1 289.56 523.94C290 524.767 290.606 525.407 291.38 525.86C292.153 526.313 293.026 526.54 294 526.54C295.013 526.54 295.88 526.32 296.6 525.88C297.333 525.427 297.893 524.78 298.28 523.94H300.46C299.94 525.273 299.113 526.307 297.98 527.04C296.846 527.76 295.52 528.12 294 528.12C292.706 528.12 291.526 527.82 290.46 527.22C289.406 526.607 288.573 525.76 287.96 524.68C287.346 523.6 287.04 522.38 287.04 521.02ZM302.489 522.48C302.489 521.36 302.716 520.38 303.169 519.54C303.622 518.687 304.242 518.027 305.029 517.56C305.829 517.093 306.716 516.86 307.689 516.86C308.649 516.86 309.482 517.067 310.189 517.48C310.896 517.893 311.422 518.413 311.769 519.04V517.04H313.609V528H311.769V525.96C311.409 526.6 310.869 527.133 310.149 527.56C309.442 527.973 308.616 528.18 307.669 528.18C306.696 528.18 305.816 527.94 305.029 527.46C304.242 526.98 303.622 526.307 303.169 525.44C302.716 524.573 302.489 523.587 302.489 522.48ZM311.769 522.5C311.769 521.673 311.602 520.953 311.269 520.34C310.936 519.727 310.482 519.26 309.909 518.94C309.349 518.607 308.729 518.44 308.049 518.44C307.369 518.44 306.749 518.6 306.189 518.92C305.629 519.24 305.182 519.707 304.849 520.32C304.516 520.933 304.349 521.653 304.349 522.48C304.349 523.32 304.516 524.053 304.849 524.68C305.182 525.293 305.629 525.767 306.189 526.1C306.749 526.42 307.369 526.58 308.049 526.58C308.729 526.58 309.349 526.42 309.909 526.1C310.482 525.767 310.936 525.293 311.269 524.68C311.602 524.053 311.769 523.327 311.769 522.5ZM318.505 518.82C318.825 518.193 319.278 517.707 319.865 517.36C320.465 517.013 321.191 516.84 322.045 516.84V518.72H321.565C319.525 518.72 318.505 519.827 318.505 522.04V528H316.685V517.04H318.505V518.82ZM328.798 522.5C328.798 521.367 329.024 520.38 329.478 519.54C329.931 518.687 330.558 518.027 331.358 517.56C332.171 517.093 333.098 516.86 334.138 516.86C335.484 516.86 336.591 517.187 337.458 517.84C338.338 518.493 338.918 519.4 339.198 520.56H337.238C337.051 519.893 336.684 519.367 336.138 518.98C335.604 518.593 334.938 518.4 334.138 518.4C333.098 518.4 332.258 518.76 331.618 519.48C330.978 520.187 330.658 521.193 330.658 522.5C330.658 523.82 330.978 524.84 331.618 525.56C332.258 526.28 333.098 526.64 334.138 526.64C334.938 526.64 335.604 526.453 336.138 526.08C336.671 525.707 337.038 525.173 337.238 524.48H339.198C338.904 525.6 338.318 526.5 337.438 527.18C336.558 527.847 335.458 528.18 334.138 528.18C333.098 528.18 332.171 527.947 331.358 527.48C330.558 527.013 329.931 526.353 329.478 525.5C329.024 524.647 328.798 523.647 328.798 522.5ZM346.406 528.18C345.379 528.18 344.446 527.947 343.606 527.48C342.779 527.013 342.126 526.353 341.646 525.5C341.179 524.633 340.946 523.633 340.946 522.5C340.946 521.38 341.186 520.393 341.666 519.54C342.159 518.673 342.826 518.013 343.666 517.56C344.506 517.093 345.446 516.86 346.486 516.86C347.526 516.86 348.466 517.093 349.306 517.56C350.146 518.013 350.806 518.667 351.286 519.52C351.779 520.373 352.026 521.367 352.026 522.5C352.026 523.633 351.773 524.633 351.266 525.5C350.773 526.353 350.099 527.013 349.246 527.48C348.393 527.947 347.446 528.18 346.406 528.18ZM346.406 526.58C347.059 526.58 347.673 526.427 348.246 526.12C348.819 525.813 349.279 525.353 349.626 524.74C349.986 524.127 350.166 523.38 350.166 522.5C350.166 521.62 349.993 520.873 349.646 520.26C349.299 519.647 348.846 519.193 348.286 518.9C347.726 518.593 347.119 518.44 346.466 518.44C345.799 518.44 345.186 518.593 344.626 518.9C344.079 519.193 343.639 519.647 343.306 520.26C342.973 520.873 342.806 521.62 342.806 522.5C342.806 523.393 342.966 524.147 343.286 524.76C343.619 525.373 344.059 525.833 344.606 526.14C345.153 526.433 345.753 526.58 346.406 526.58ZM359.759 516.84C361.092 516.84 362.172 517.247 362.999 518.06C363.826 518.86 364.239 520.02 364.239 521.54V528H362.439V521.8C362.439 520.707 362.166 519.873 361.619 519.3C361.072 518.713 360.326 518.42 359.379 518.42C358.419 518.42 357.652 518.72 357.079 519.32C356.519 519.92 356.239 520.793 356.239 521.94V528H354.419V517.04H356.239V518.6C356.599 518.04 357.086 517.607 357.699 517.3C358.326 516.993 359.012 516.84 359.759 516.84ZM372.552 516.84C373.885 516.84 374.965 517.247 375.792 518.06C376.619 518.86 377.032 520.02 377.032 521.54V528H375.232V521.8C375.232 520.707 374.959 519.873 374.412 519.3C373.865 518.713 373.119 518.42 372.172 518.42C371.212 518.42 370.445 518.72 369.872 519.32C369.312 519.92 369.032 520.793 369.032 521.94V528H367.212V517.04H369.032V518.6C369.392 518.04 369.879 517.607 370.492 517.3C371.119 516.993 371.805 516.84 372.552 516.84ZM390.005 522.1C390.005 522.447 389.985 522.813 389.945 523.2H381.185C381.252 524.28 381.618 525.127 382.285 525.74C382.965 526.34 383.785 526.64 384.745 526.64C385.532 526.64 386.185 526.46 386.705 526.1C387.238 525.727 387.612 525.233 387.825 524.62H389.785C389.492 525.673 388.905 526.533 388.025 527.2C387.145 527.853 386.052 528.18 384.745 528.18C383.705 528.18 382.772 527.947 381.945 527.48C381.132 527.013 380.492 526.353 380.025 525.5C379.558 524.633 379.325 523.633 379.325 522.5C379.325 521.367 379.552 520.373 380.005 519.52C380.458 518.667 381.092 518.013 381.905 517.56C382.732 517.093 383.678 516.86 384.745 516.86C385.785 516.86 386.705 517.087 387.505 517.54C388.305 517.993 388.918 518.62 389.345 519.42C389.785 520.207 390.005 521.1 390.005 522.1ZM388.125 521.72C388.125 521.027 387.972 520.433 387.665 519.94C387.358 519.433 386.938 519.053 386.405 518.8C385.885 518.533 385.305 518.4 384.665 518.4C383.745 518.4 382.958 518.693 382.305 519.28C381.665 519.867 381.298 520.68 381.205 521.72H388.125ZM391.727 522.5C391.727 521.367 391.954 520.38 392.407 519.54C392.861 518.687 393.487 518.027 394.287 517.56C395.101 517.093 396.027 516.86 397.067 516.86C398.414 516.86 399.521 517.187 400.387 517.84C401.267 518.493 401.847 519.4 402.127 520.56H400.167C399.981 519.893 399.614 519.367 399.067 518.98C398.534 518.593 397.867 518.4 397.067 518.4C396.027 518.4 395.187 518.76 394.547 519.48C393.907 520.187 393.587 521.193 393.587 522.5C393.587 523.82 393.907 524.84 394.547 525.56C395.187 526.28 396.027 526.64 397.067 526.64C397.867 526.64 398.534 526.453 399.067 526.08C399.601 525.707 399.967 525.173 400.167 524.48H402.127C401.834 525.6 401.247 526.5 400.367 527.18C399.487 527.847 398.387 528.18 397.067 528.18C396.027 528.18 395.101 527.947 394.287 527.48C393.487 527.013 392.861 526.353 392.407 525.5C391.954 524.647 391.727 523.647 391.727 522.5ZM406.776 518.54V525C406.776 525.533 406.889 525.913 407.116 526.14C407.342 526.353 407.736 526.46 408.296 526.46H409.636V528H407.996C406.982 528 406.222 527.767 405.716 527.3C405.209 526.833 404.956 526.067 404.956 525V518.54H403.536V517.04H404.956V514.28H406.776V517.04H409.636V518.54H406.776ZM136.336 548.54V555C136.336 555.533 136.45 555.913 136.676 556.14C136.903 556.353 137.296 556.46 137.856 556.46H139.196V558H137.556C136.543 558 135.783 557.767 135.276 557.3C134.77 556.833 134.516 556.067 134.516 555V548.54H133.096V547.04H134.516V544.28H136.336V547.04H139.196V548.54H136.336ZM146.841 546.84C147.668 546.84 148.415 547.02 149.081 547.38C149.748 547.727 150.268 548.253 150.641 548.96C151.028 549.667 151.221 550.527 151.221 551.54V558H149.421V551.8C149.421 550.707 149.148 549.873 148.601 549.3C148.055 548.713 147.308 548.42 146.361 548.42C145.401 548.42 144.635 548.72 144.061 549.32C143.501 549.92 143.221 550.793 143.221 551.94V558H141.401V543.2H143.221V548.6C143.581 548.04 144.075 547.607 144.701 547.3C145.341 546.993 146.055 546.84 146.841 546.84ZM156.014 548.82C156.334 548.193 156.788 547.707 157.374 547.36C157.974 547.013 158.701 546.84 159.554 546.84V548.72H159.074C157.034 548.72 156.014 549.827 156.014 552.04V558H154.194V547.04H156.014V548.82ZM166.435 558.18C165.409 558.18 164.475 557.947 163.635 557.48C162.809 557.013 162.155 556.353 161.675 555.5C161.209 554.633 160.975 553.633 160.975 552.5C160.975 551.38 161.215 550.393 161.695 549.54C162.189 548.673 162.855 548.013 163.695 547.56C164.535 547.093 165.475 546.86 166.515 546.86C167.555 546.86 168.495 547.093 169.335 547.56C170.175 548.013 170.835 548.667 171.315 549.52C171.809 550.373 172.055 551.367 172.055 552.5C172.055 553.633 171.802 554.633 171.295 555.5C170.802 556.353 170.129 557.013 169.275 557.48C168.422 557.947 167.475 558.18 166.435 558.18ZM166.435 556.58C167.089 556.58 167.702 556.427 168.275 556.12C168.849 555.813 169.309 555.353 169.655 554.74C170.015 554.127 170.195 553.38 170.195 552.5C170.195 551.62 170.022 550.873 169.675 550.26C169.329 549.647 168.875 549.193 168.315 548.9C167.755 548.593 167.149 548.44 166.495 548.44C165.829 548.44 165.215 548.593 164.655 548.9C164.109 549.193 163.669 549.647 163.335 550.26C163.002 550.873 162.835 551.62 162.835 552.5C162.835 553.393 162.995 554.147 163.315 554.76C163.649 555.373 164.089 555.833 164.635 556.14C165.182 556.433 165.782 556.58 166.435 556.58ZM184.168 547.04V558H182.348V556.38C182.002 556.94 181.515 557.38 180.888 557.7C180.275 558.007 179.595 558.16 178.848 558.16C177.995 558.16 177.228 557.987 176.548 557.64C175.868 557.28 175.328 556.747 174.928 556.04C174.542 555.333 174.348 554.473 174.348 553.46V547.04H176.148V553.22C176.148 554.3 176.422 555.133 176.968 555.72C177.515 556.293 178.262 556.58 179.208 556.58C180.182 556.58 180.948 556.28 181.508 555.68C182.068 555.08 182.348 554.207 182.348 553.06V547.04H184.168ZM191.761 546.86C192.708 546.86 193.535 547.067 194.241 547.48C194.961 547.893 195.495 548.413 195.841 549.04V547.04H197.681V558.24C197.681 559.24 197.468 560.127 197.041 560.9C196.615 561.687 196.001 562.3 195.201 562.74C194.415 563.18 193.495 563.4 192.441 563.4C191.001 563.4 189.801 563.06 188.841 562.38C187.881 561.7 187.315 560.773 187.141 559.6H188.941C189.141 560.267 189.555 560.8 190.181 561.2C190.808 561.613 191.561 561.82 192.441 561.82C193.441 561.82 194.255 561.507 194.881 560.88C195.521 560.253 195.841 559.373 195.841 558.24V555.94C195.481 556.58 194.948 557.113 194.241 557.54C193.535 557.967 192.708 558.18 191.761 558.18C190.788 558.18 189.901 557.94 189.101 557.46C188.315 556.98 187.695 556.307 187.241 555.44C186.788 554.573 186.561 553.587 186.561 552.48C186.561 551.36 186.788 550.38 187.241 549.54C187.695 548.687 188.315 548.027 189.101 547.56C189.901 547.093 190.788 546.86 191.761 546.86ZM195.841 552.5C195.841 551.673 195.675 550.953 195.341 550.34C195.008 549.727 194.555 549.26 193.981 548.94C193.421 548.607 192.801 548.44 192.121 548.44C191.441 548.44 190.821 548.6 190.261 548.92C189.701 549.24 189.255 549.707 188.921 550.32C188.588 550.933 188.421 551.653 188.421 552.48C188.421 553.32 188.588 554.053 188.921 554.68C189.255 555.293 189.701 555.767 190.261 556.1C190.821 556.42 191.441 556.58 192.121 556.58C192.801 556.58 193.421 556.42 193.981 556.1C194.555 555.767 195.008 555.293 195.341 554.68C195.675 554.053 195.841 553.327 195.841 552.5ZM206.197 546.84C207.023 546.84 207.77 547.02 208.437 547.38C209.103 547.727 209.623 548.253 209.997 548.96C210.383 549.667 210.577 550.527 210.577 551.54V558H208.777V551.8C208.777 550.707 208.503 549.873 207.957 549.3C207.41 548.713 206.663 548.42 205.717 548.42C204.757 548.42 203.99 548.72 203.417 549.32C202.857 549.92 202.577 550.793 202.577 551.94V558H200.757V543.2H202.577V548.6C202.937 548.04 203.43 547.607 204.057 547.3C204.697 546.993 205.41 546.84 206.197 546.84ZM220.702 548.82C221.022 548.193 221.475 547.707 222.062 547.36C222.662 547.013 223.388 546.84 224.242 546.84V548.72H223.762C221.722 548.72 220.702 549.827 220.702 552.04V558H218.882V547.04H220.702V548.82ZM227.283 545.26C226.936 545.26 226.643 545.14 226.403 544.9C226.163 544.66 226.043 544.367 226.043 544.02C226.043 543.673 226.163 543.38 226.403 543.14C226.643 542.9 226.936 542.78 227.283 542.78C227.616 542.78 227.896 542.9 228.123 543.14C228.363 543.38 228.483 543.673 228.483 544.02C228.483 544.367 228.363 544.66 228.123 544.9C227.896 545.14 227.616 545.26 227.283 545.26ZM228.163 547.04V558H226.343V547.04H228.163ZM230.585 552.48C230.585 551.36 230.811 550.38 231.265 549.54C231.718 548.687 232.338 548.027 233.125 547.56C233.925 547.093 234.818 546.86 235.805 546.86C236.658 546.86 237.451 547.06 238.185 547.46C238.918 547.847 239.478 548.36 239.865 549V543.2H241.705V558H239.865V555.94C239.505 556.593 238.971 557.133 238.265 557.56C237.558 557.973 236.731 558.18 235.785 558.18C234.811 558.18 233.925 557.94 233.125 557.46C232.338 556.98 231.718 556.307 231.265 555.44C230.811 554.573 230.585 553.587 230.585 552.48ZM239.865 552.5C239.865 551.673 239.698 550.953 239.365 550.34C239.031 549.727 238.578 549.26 238.005 548.94C237.445 548.607 236.825 548.44 236.145 548.44C235.465 548.44 234.845 548.6 234.285 548.92C233.725 549.24 233.278 549.707 232.945 550.32C232.611 550.933 232.445 551.653 232.445 552.48C232.445 553.32 232.611 554.053 232.945 554.68C233.278 555.293 233.725 555.767 234.285 556.1C234.845 556.42 235.465 556.58 236.145 556.58C236.825 556.58 237.445 556.42 238.005 556.1C238.578 555.767 239.031 555.293 239.365 554.68C239.698 554.053 239.865 553.327 239.865 552.5ZM254.78 552.1C254.78 552.447 254.76 552.813 254.72 553.2H245.96C246.027 554.28 246.394 555.127 247.06 555.74C247.74 556.34 248.56 556.64 249.52 556.64C250.307 556.64 250.96 556.46 251.48 556.1C252.014 555.727 252.387 555.233 252.6 554.62H254.56C254.267 555.673 253.68 556.533 252.8 557.2C251.92 557.853 250.827 558.18 249.52 558.18C248.48 558.18 247.547 557.947 246.72 557.48C245.907 557.013 245.267 556.353 244.8 555.5C244.334 554.633 244.1 553.633 244.1 552.5C244.1 551.367 244.327 550.373 244.78 549.52C245.234 548.667 245.867 548.013 246.68 547.56C247.507 547.093 248.454 546.86 249.52 546.86C250.56 546.86 251.48 547.087 252.28 547.54C253.08 547.993 253.694 548.62 254.12 549.42C254.56 550.207 254.78 551.1 254.78 552.1ZM252.9 551.72C252.9 551.027 252.747 550.433 252.44 549.94C252.134 549.433 251.714 549.053 251.18 548.8C250.66 548.533 250.08 548.4 249.44 548.4C248.52 548.4 247.734 548.693 247.08 549.28C246.44 549.867 246.074 550.68 245.98 551.72H252.9ZM266.395 558.18C265.555 558.18 264.801 558.04 264.135 557.76C263.468 557.467 262.941 557.067 262.555 556.56C262.168 556.04 261.955 555.447 261.915 554.78H263.795C263.848 555.327 264.101 555.773 264.555 556.12C265.021 556.467 265.628 556.64 266.375 556.64C267.068 556.64 267.615 556.487 268.015 556.18C268.415 555.873 268.615 555.487 268.615 555.02C268.615 554.54 268.401 554.187 267.975 553.96C267.548 553.72 266.888 553.487 265.995 553.26C265.181 553.047 264.515 552.833 263.995 552.62C263.488 552.393 263.048 552.067 262.675 551.64C262.315 551.2 262.135 550.627 262.135 549.92C262.135 549.36 262.301 548.847 262.635 548.38C262.968 547.913 263.441 547.547 264.055 547.28C264.668 547 265.368 546.86 266.155 546.86C267.368 546.86 268.348 547.167 269.095 547.78C269.841 548.393 270.241 549.233 270.295 550.3H268.475C268.435 549.727 268.201 549.267 267.775 548.92C267.361 548.573 266.801 548.4 266.095 548.4C265.441 548.4 264.921 548.54 264.535 548.82C264.148 549.1 263.955 549.467 263.955 549.92C263.955 550.28 264.068 550.58 264.295 550.82C264.535 551.047 264.828 551.233 265.175 551.38C265.535 551.513 266.028 551.667 266.655 551.84C267.441 552.053 268.081 552.267 268.575 552.48C269.068 552.68 269.488 552.987 269.835 553.4C270.195 553.813 270.381 554.353 270.395 555.02C270.395 555.62 270.228 556.16 269.895 556.64C269.561 557.12 269.088 557.5 268.475 557.78C267.875 558.047 267.181 558.18 266.395 558.18ZM278.404 546.84C279.23 546.84 279.977 547.02 280.644 547.38C281.31 547.727 281.83 548.253 282.204 548.96C282.59 549.667 282.784 550.527 282.784 551.54V558H280.984V551.8C280.984 550.707 280.71 549.873 280.164 549.3C279.617 548.713 278.87 548.42 277.924 548.42C276.964 548.42 276.197 548.72 275.624 549.32C275.064 549.92 274.784 550.793 274.784 551.94V558H272.964V543.2H274.784V548.6C275.144 548.04 275.637 547.607 276.264 547.3C276.904 546.993 277.617 546.84 278.404 546.84ZM285.077 552.48C285.077 551.36 285.303 550.38 285.757 549.54C286.21 548.687 286.83 548.027 287.617 547.56C288.417 547.093 289.303 546.86 290.277 546.86C291.237 546.86 292.07 547.067 292.777 547.48C293.483 547.893 294.01 548.413 294.357 549.04V547.04H296.197V558H294.357V555.96C293.997 556.6 293.457 557.133 292.737 557.56C292.03 557.973 291.203 558.18 290.257 558.18C289.283 558.18 288.403 557.94 287.617 557.46C286.83 556.98 286.21 556.307 285.757 555.44C285.303 554.573 285.077 553.587 285.077 552.48ZM294.357 552.5C294.357 551.673 294.19 550.953 293.857 550.34C293.523 549.727 293.07 549.26 292.497 548.94C291.937 548.607 291.317 548.44 290.637 548.44C289.957 548.44 289.337 548.6 288.777 548.92C288.217 549.24 287.77 549.707 287.437 550.32C287.103 550.933 286.937 551.653 286.937 552.48C286.937 553.32 287.103 554.053 287.437 554.68C287.77 555.293 288.217 555.767 288.777 556.1C289.337 556.42 289.957 556.58 290.637 556.58C291.317 556.58 291.937 556.42 292.497 556.1C293.07 555.767 293.523 555.293 293.857 554.68C294.19 554.053 294.357 553.327 294.357 552.5ZM301.092 548.82C301.412 548.193 301.866 547.707 302.452 547.36C303.052 547.013 303.779 546.84 304.632 546.84V548.72H304.152C302.112 548.72 301.092 549.827 301.092 552.04V558H299.272V547.04H301.092V548.82ZM307.673 545.26C307.327 545.26 307.033 545.14 306.793 544.9C306.553 544.66 306.433 544.367 306.433 544.02C306.433 543.673 306.553 543.38 306.793 543.14C307.033 542.9 307.327 542.78 307.673 542.78C308.007 542.78 308.287 542.9 308.513 543.14C308.753 543.38 308.873 543.673 308.873 544.02C308.873 544.367 308.753 544.66 308.513 544.9C308.287 545.14 308.007 545.26 307.673 545.26ZM308.553 547.04V558H306.733V547.04H308.553ZM316.995 546.84C318.329 546.84 319.409 547.247 320.235 548.06C321.062 548.86 321.475 550.02 321.475 551.54V558H319.675V551.8C319.675 550.707 319.402 549.873 318.855 549.3C318.309 548.713 317.562 548.42 316.615 548.42C315.655 548.42 314.889 548.72 314.315 549.32C313.755 549.92 313.475 550.793 313.475 551.94V558H311.655V547.04H313.475V548.6C313.835 548.04 314.322 547.607 314.935 547.3C315.562 546.993 316.249 546.84 316.995 546.84ZM328.968 546.86C329.915 546.86 330.742 547.067 331.448 547.48C332.168 547.893 332.702 548.413 333.048 549.04V547.04H334.888V558.24C334.888 559.24 334.675 560.127 334.248 560.9C333.822 561.687 333.208 562.3 332.408 562.74C331.622 563.18 330.702 563.4 329.648 563.4C328.208 563.4 327.008 563.06 326.048 562.38C325.088 561.7 324.522 560.773 324.348 559.6H326.148C326.348 560.267 326.762 560.8 327.388 561.2C328.015 561.613 328.768 561.82 329.648 561.82C330.648 561.82 331.462 561.507 332.088 560.88C332.728 560.253 333.048 559.373 333.048 558.24V555.94C332.688 556.58 332.155 557.113 331.448 557.54C330.742 557.967 329.915 558.18 328.968 558.18C327.995 558.18 327.108 557.94 326.308 557.46C325.522 556.98 324.902 556.307 324.448 555.44C323.995 554.573 323.768 553.587 323.768 552.48C323.768 551.36 323.995 550.38 324.448 549.54C324.902 548.687 325.522 548.027 326.308 547.56C327.108 547.093 327.995 546.86 328.968 546.86ZM333.048 552.5C333.048 551.673 332.882 550.953 332.548 550.34C332.215 549.727 331.762 549.26 331.188 548.94C330.628 548.607 330.008 548.44 329.328 548.44C328.648 548.44 328.028 548.6 327.468 548.92C326.908 549.24 326.462 549.707 326.128 550.32C325.795 550.933 325.628 551.653 325.628 552.48C325.628 553.32 325.795 554.053 326.128 554.68C326.462 555.293 326.908 555.767 327.468 556.1C328.028 556.42 328.648 556.58 329.328 556.58C330.008 556.58 330.628 556.42 331.188 556.1C331.762 555.767 332.215 555.293 332.548 554.68C332.882 554.053 333.048 553.327 333.048 552.5Z" fill="white"/>
<defs>
<clipPath id="clip0_398_482">
<rect width="310" height="236" fill="white" transform="translate(86 142)"/>
</clipPath>
</defs>
</svg>
